<svg id="Layer_1" data-name="Layer 1" xmlns="http://www.w3.org/2000/svg" viewBox="0 0 110 40"><defs><style>.cls-1{fill:#293360;}</style></defs><title>broadgate</title><g id="_Group_" data-name="&lt;Group&gt;"><path id="_Compound_Path_" data-name="&lt;Compound Path&gt;" class="cls-1" d="M61.5363,6.2421c-.0159.3428-.0082.6887-.0551,1.0272-.0379.2738-.0128.5463-.0406.8172-.0487.4756-.0118.955-.0554,1.4277-.04.4306-.0219.8588-.0356,1.2878-.1032,3.2208-.0244,6.4426-.0483,9.6639-.0031.4078-.0042.8159.0047,1.2236.0071.3271.0281.6542.048.981.008.1313.04.2618.0406.3929a.1566.1566,0,0,0,.1326.1633.1853.1853,0,0,0,.0465.0049q.3612.0245.7222.0487c.2487.0166.4971.034.7458.0483.0676.004.1.0325.0989.1-.0006.0313,0,.0628.0007.0941.0024.2428-.0249.2632-.2726.23a3.4784,3.4784,0,0,0-.44-.0405q-.9178-.0066-1.8355,0c-.17.0015-.34.0328-.51.0407-.142.0065-.1478-.0014-.15-.14-.0033-.2587-.0009-.5177-.0028-.7764-.0009-.1046-.0138-.1107-.099-.0637-.3277.1809-.653.3669-.9848.54a7.361,7.361,0,0,1-1.7787.62,6.8987,6.8987,0,0,1-.8542.1066,5.5252,5.5252,0,0,1-.6514.0431,6.0323,6.0323,0,0,1-2.1215-.379,4.4864,4.4864,0,0,1-1.5277-.9733,4.6983,4.6983,0,0,1-.9717-1.3379,5.9916,5.9916,0,0,1-.4793-1.5522,8.0564,8.0564,0,0,1-.0751-1.8683,5.9824,5.9824,0,0,1,.5437-2.2493,5.6421,5.6421,0,0,1,.81-1.2769A4.9908,4.9908,0,0,1,53.14,13.33a5.9294,5.9294,0,0,1,1.7144-.585,4.5533,4.5533,0,0,1,.58-.0562,6.4627,6.4627,0,0,1,.7925-.0391,8.3975,8.3975,0,0,1,1.2935.1486,7.6043,7.6043,0,0,1,2.0063.7438c.117.0623.2306.1308.3457.1965.0379.0216.0568.0086.0577-.0327.0014-.0547.0013-.11.0013-.1647,0-1.1608.0249-2.3223-.01-3.4822-.0185-.6174-.0077-1.2355-.0415-1.8518-.0243-.441-.0883-.88-.1375-1.3193-.014-.1245-.053-.1422-.1924-.1784a4.273,4.273,0,0,0-.8406-.0426c-.2485-.0154-.4971-.0313-.7458-.0442-.0673-.0034-.1008-.03-.1-.0988.0012-.094.0007-.1882.001-.2823h.4237a.2931.2931,0,0,0,.0984.0407q1.031.0035,2.0622,0a.295.295,0,0,0,.0991-.0406ZM59.9312,18.2745V14.8162c0-.0862-.004-.1727.0012-.2587a.1968.1968,0,0,0-.0839-.1824c-.106-.0789-.2119-.1579-.3185-.236a5.2473,5.2473,0,0,0-1.2207-.6308,4.9574,4.9574,0,0,0-1.4458-.3329,3.86,3.86,0,0,0-.88-.02c-.2132.0335-.4358.0005-.65.0552-.2177.0555-.4437.0862-.6532.1627a3.4867,3.4867,0,0,0-1.2683.7732,4.1476,4.1476,0,0,0-.7916,1.0324,4.9343,4.9343,0,0,0-.4039,1.0177,6.5783,6.5783,0,0,0-.2325,1.4906c-.011.329.0018.6587-.0047.9879a5.4852,5.4852,0,0,0,.1455,1.2239,5.0521,5.0521,0,0,0,.6649,1.66,4.1483,4.1483,0,0,0,1.2247,1.2727,4.5605,4.5605,0,0,0,3.0255.5933c.2258-.0524.4577-.0809.6809-.1415a4.8471,4.8471,0,0,0,1.2216-.5158,7.1523,7.1523,0,0,0,.8461-.5818.3535.3535,0,0,0,.1476-.3117C59.9278,20.6743,59.9312,19.4744,59.9312,18.2745Z"/><path id="_Path_" data-name="&lt;Path&gt;" class="cls-1" d="M1.0439,35.9c.0863-.0011.1726-.0029.2588-.0029q53.2075,0,106.415,0c.0941,0,.1883.0018.2823.0029v.4237H1.2557c-.0706,0-.1687.0276-.204-.0077s-.0078-.1336-.0078-.2041Z"/><path id="_Path_2" data-name="&lt;Path&gt;" class="cls-1" d="M108,25.8727c-.094.001-.1882.0029-.2823.0029q-53.2075,0-106.415,0c-.0862,0-.1725-.0019-.2588-.0029V25.449c.0942-.001.1882-.0029.2823-.0029q53.1841,0,106.368,0c.1019,0,.2039.0019.3058.0029Z"/><path id="_Compound_Path_2" data-name="&lt;Compound Path&gt;" class="cls-1" d="M3.9091,7.5087c.4157,0,.8336.0256,1.2468-.0068.4612-.0361.9243-.0027,1.3815-.0475a14.64,14.64,0,0,1,2.0642-.0262,5.7008,5.7008,0,0,1,2.0781.4687,3.9674,3.9674,0,0,1,1.3051.8894,3.1247,3.1247,0,0,1,.7445,1.3072,3.1764,3.1764,0,0,1,.1375.8479c.0007.1.0423.2.0374.2989a3.8576,3.8576,0,0,1-.7807,2.255,4.72,4.72,0,0,1-1.2471,1.0834,6.5354,6.5354,0,0,1-1.1805.5616c-.02.0075-.0392.0164-.0588.0245a.1979.1979,0,0,0,.058.0362c.1287.026.2574.0535.3873.0713a6.6538,6.6538,0,0,1,1.3919.372,3.6913,3.6913,0,0,1,1.6181,1.1218,3.2267,3.2267,0,0,1,.6137,1.2762,5.7677,5.7677,0,0,1,.1092.6651,4.5219,4.5219,0,0,1-.742,3.1064,4.3153,4.3153,0,0,1-1.4362,1.2155,6.572,6.572,0,0,1-1.6817.619c-.2482.0582-.5063.0729-.76.11a7.5359,7.5359,0,0,1-1.6092.0831c-.3746-.0252-.7513-.0081-1.122-.05-.2737-.0307-.5459-.0151-.8174-.0384-.7814-.0669-1.5643-.0421-2.3466-.04-.2251.0006-.45.0336-.6754.04-.199.0056-.2118-.0139-.2156-.2124-.0007-.0394-.0013-.0785,0-.1177.005-.1364.0072-.1249.1485-.1469a9.0636,9.0636,0,0,1,1.1935-.0449c.2933-.0067.3414-.0463.3906-.3206a.4026.4026,0,0,0,.0037-.0469c.0168-.3035.0358-.607.05-.9106.0187-.4133.0073-.83.0576-1.2392.0462-.376.022-.7495.0376-1.1236.1-2.3821.0394-4.7653.035-7.1479-.001-.5219-.0065-1.0481-.0475-1.569-.0258-.3282.007-.66-.0459-.9807-.0573-.3488.01-.7023-.0774-1.0471a1.7285,1.7285,0,0,1-.0081-.2815c-.0119-.1547-.0275-.3095-.05-.463-.0037-.0254-.048-.047-.0767-.0658-.0111-.0073-.0307-.0015-.0463-.002Q3.3069,8.01,2.64,7.9861c-.0313-.0012-.0628-.001-.0941-.0012a.1208.1208,0,0,1-.1349-.1286c-.0031-.0863,0-.1727,0-.259A.0785.0785,0,0,1,2.497,7.51c.047-.0013.0941,0,.1413,0H3.9091ZM5.8,17.2419c.0184.53-.012,1.1077.0392,1.6865.05.5675-.0154,1.1395.0466,1.71.0488.449.0374.9043.0564,1.3566.0134.3193.032.6383.05.9572a.5206.5206,0,0,0,.0276.1125c.0468.16.0472.1615.2017.1669a2.0139,2.0139,0,0,1,.3519.01,9.9891,9.9891,0,0,0,1.0933.0753,5.2664,5.2664,0,0,0,1.2316-.079,4.1869,4.1869,0,0,0,1.3727-.4246A2.9782,2.9782,0,0,0,11.4,21.8182a3.7847,3.7847,0,0,0,.6029-1.9592,5.82,5.82,0,0,0-.031-1.1461,3.7355,3.7355,0,0,0-.4529-1.4072,2.8094,2.8094,0,0,0-.7449-.8019,3.8615,3.8615,0,0,0-1.4052-.6069,6.2326,6.2326,0,0,0-1.1681-.1945c-.3174-.0205-.633-.0715-.9505-.0843-.3758-.0151-.7527-.0041-1.1291-.0029a.4535.4535,0,0,0-.162.0142c-.1647.0653-.1586-.0012-.159.2C5.7994,16.2844,5.8,16.7392,5.8,17.2419Zm.003-3.6221H5.8v.9646c0,.11-.0022.22.0006.3293.0031.1233.005.1235.1368.13.0312.0015.0628.0021.094.0011a14.5584,14.5584,0,0,0,1.7808-.0456c.1763-.0275.36-.0195.5322-.0605a4.9214,4.9214,0,0,0,1.3978-.498,2.6394,2.6394,0,0,0,.7417-.6381,3.0548,3.0548,0,0,0,.6222-1.7067,5.1719,5.1719,0,0,0-.0326-1.2865,4.4705,4.4705,0,0,0-.2242-.8758A2.8012,2.8012,0,0,0,9.16,8.3181a6.1425,6.1425,0,0,0-1.8956-.3273,6.7846,6.7846,0,0,0-1.1218.0416c-.1239.0135-.1451.0292-.15.1588-.0091.2176-.0135.4341-.0406.6522-.0345.277-.0175.5588-.0481.8394-.0372.34-.0228.6846-.0447,1.0278-.0442.6937-.0416,1.39-.0549,2.086C5.7987,13.071,5.8031,13.3455,5.8031,13.62Z"/><path id="_Compound_Path_3" data-name="&lt;Compound Path&gt;" class="cls-1" d="M30.9971,12.6413c.0793,0,.1107.0005.1421,0a7.622,7.622,0,0,1,1.1392.0843,5.8756,5.8756,0,0,1,1.1952.29,5.5562,5.5562,0,0,1,1.6665.9269,4.98,4.98,0,0,1,1.1069,1.2593,5.5029,5.5029,0,0,1,.6774,1.68,8.03,8.03,0,0,1,.1256,2.1192,6.2494,6.2494,0,0,1-.1677.9591,4.1136,4.1136,0,0,1-.367,1.0051,4.3026,4.3026,0,0,1-.6668,1.0121c-.1049.1154-.1978.2425-.31.35a6.0107,6.0107,0,0,1-1.93,1.2517,8.2925,8.2925,0,0,1-1.4546.4022,4.7317,4.7317,0,0,1-.6034.0572c-.2328.0175-.4656.0383-.6987.0443A8.6574,8.6574,0,0,1,29.6895,24a5.84,5.84,0,0,1-1.2861-.3111,4.97,4.97,0,0,1-1.673-.9583c-.1-.0875-.2059-.1676-.3007-.26a5.1257,5.1257,0,0,1-1.3329-2.1682,6.9713,6.9713,0,0,1-.2443-1.2056,6.5516,6.5516,0,0,1-.037-.7466,5.9711,5.9711,0,0,1,.3407-2.0587,4.6721,4.6721,0,0,1,.7623-1.3855,5.73,5.73,0,0,1,1.49-1.341,5.9237,5.9237,0,0,1,1.8318-.7341c.31-.0686.6239-.1135.94-.1531C30.47,12.6417,30.7574,12.6575,30.9971,12.6413Zm4.4775,6.1818c-.0218-.28-.0425-.559-.0658-.8383a4.88,4.88,0,0,0-.0576-.58,6.1018,6.1018,0,0,0-.382-1.34,6.58,6.58,0,0,0-.5123-.9455,4.3946,4.3946,0,0,0-.8613-.9785,5.3437,5.3437,0,0,0-.7286-.505,3.7137,3.7137,0,0,0-1.1608-.4106c-.3119-.0571-.6317-.07-.9483-.1022-.0144-.0015-.03.009-.0449.0108a1.9434,1.9434,0,0,1-.2536.0265,3.3939,3.3939,0,0,0-1.0986.1822,3.8258,3.8258,0,0,0-1.53.9167,4.4254,4.4254,0,0,0-1.11,1.7933,3.7942,3.7942,0,0,0-.2108.9756c-.0191.31-.0654.6175-.0842.9272-.0078.13.0381.2618.0362.3924A5.732,5.732,0,0,0,26.6546,19.8a5.154,5.154,0,0,0,.6933,1.6222,5.3775,5.3775,0,0,0,1.0818,1.22,4.051,4.051,0,0,0,2.3275.9148,5.0214,5.0214,0,0,0,1.3975-.0811,4.1363,4.1363,0,0,0,1.38-.5479,3.6687,3.6687,0,0,0,.933-.8418,4.0242,4.0242,0,0,0,.61-1.046A6.0737,6.0737,0,0,0,35.4746,18.8231Z"/><path id="_Compound_Path_4" data-name="&lt;Compound Path&gt;" class="cls-1" d="M74.637,25.1192c-.2117,0-.4234-.0024-.6352.0011a.166.166,0,0,1-.1871-.1326,1.8753,1.8753,0,0,0-.4959-.7564,2.7183,2.7183,0,0,0-1.0106-.6142,5.8041,5.8041,0,0,0-1.338-.29,11.49,11.49,0,0,0-1.2564-.0851c-.35.0063-.6969.0477-1.0449.0822a6.9209,6.9209,0,0,0-1.1819.2463.2134.2134,0,0,1-.1964-.0227,3.5478,3.5478,0,0,0-.3482-.2358c-.103-.0546-.1007-.1306-.0817-.2171.0465-.2116.1054-.4208.1445-.6336.0377-.2055.059-.414.0839-.6216.0836-.694.0333-1.3912.05-2.0868a.3126.3126,0,0,0-.169-.32,2.997,2.997,0,0,1-.69-.5573,3.2973,3.2973,0,0,1-.8471-1.6342,3.8412,3.8412,0,0,1-.0831-.9978,3.4448,3.4448,0,0,1,.6915-1.9964,3.6819,3.6819,0,0,1,1.2115-1.0086,5.4481,5.4481,0,0,1,1.4515-.4943,4.9914,4.9914,0,0,1,.6036-.056,6.2313,6.2313,0,0,1,.7455-.04,6.6721,6.6721,0,0,1,2.2216.4658c.1153.0473.2271.1033.3445.1446a.7231.7231,0,0,0,.2257.041,7.5129,7.5129,0,0,0,1.0917-.0873c.1925-.026.3883-.0273.58-.0558.3216-.0477.6413-.108.9615-.164.122-.0214.2426-.0519.3653-.0663.0855-.01.1137.03.0859.115-.07.2142-.1508.4252-.2154.6409a.1107.1107,0,0,1-.1327.0953c-.1624-.0138-.3247-.0288-.4872-.0425-.039-.0032-.0783-.0042-.1174-.0043q-.8706-.0026-1.7412-.0036a.6051.6051,0,0,0-.0907.0136.6237.6237,0,0,0,.0536.09,4.2094,4.2094,0,0,1,.764,1.3049,3.5688,3.5688,0,0,1,.1389.4917,3.9443,3.9443,0,0,1,.0456,1.0974,3.6381,3.6381,0,0,1-.2836,1.1238,3.1421,3.1421,0,0,1-.8568,1.1831,4.0656,4.0656,0,0,1-1.326.77,5.9938,5.9938,0,0,1-1.243.291c-.2185.0268-.4347.0328-.6525.0412-.0538.002-.1071.02-.1608.0216-.1073.0026-.2147,0-.3221-.0036-.0462-.0017-.0923-.0194-.138-.0178a2.8336,2.8336,0,0,1-1.2843-.2937c-.0884-.04-.1281-.0415-.1376.0645-.0035.0377-.031.0735-.0331.111-.0187.3268-.0506.6541-.0444.9807a1.7338,1.7338,0,0,0,.1146.5427.9228.9228,0,0,0,.7738.5629,9.4954,9.4954,0,0,0,1.09.1066c.5712.05,1.1416.01,1.711.0406.2549.0139.5076.0664.7624.0848a5.9863,5.9863,0,0,1,1.1445.1958,3.2,3.2,0,0,1,1.1677.5123,2.1877,2.1877,0,0,1,.5806.6354,2.8039,2.8039,0,0,1,.3714,1.073c.0089.0767.0365.1515.0416.2281.0081.1222-.0065.137-.1269.1387C75.0763,25.1213,74.8566,25.1191,74.637,25.1192Zm-7.7814-8.7827h.0058a5.0326,5.0326,0,0,0,.0051.6577,4.1465,4.1465,0,0,0,.2812,1.0765,2.8545,2.8545,0,0,0,.847,1.1346,2.5763,2.5763,0,0,0,1.6052.5436,4.64,4.64,0,0,0,.6283-.0373,2.5079,2.5079,0,0,0,.9081-.2771A2.7553,2.7553,0,0,0,72.47,17.8451a4.7248,4.7248,0,0,0,.2163-1.6083,2.9361,2.9361,0,0,0-.0417-.3221c-.023-.1768-.03-.357-.07-.53a3.3292,3.3292,0,0,0-.63-1.3655,2.4138,2.4138,0,0,0-1.018-.76,3.3363,3.3363,0,0,0-2.702.2046,2.5294,2.5294,0,0,0-.7425.6733,3.0916,3.0916,0,0,0-.6265,1.94C66.8565,16.1641,66.8556,16.25,66.8556,16.3364Z"/><path id="_Compound_Path_5" data-name="&lt;Compound Path&gt;" class="cls-1" d="M47.5593,19.6913V22.909a1.3008,1.3008,0,0,1-.0011.1647c-.0122.0931.0476.1234.1169.1485a.1689.1689,0,0,0,.0458.0084q.3259.0252.6518.05c.2173.0165.4345.0337.6517.049a.08.08,0,0,1,.0857.0888c.0007.0784-.0005.1569.0007.2352.0013.0667-.0267.103-.0965.1018-.0391-.0006-.0784.0006-.1176.0006H46.3547c-.0392,0-.0784-.0013-.1177-.0005-.0693.0012-.0974-.0341-.0971-.1012.0009-.1648,0-.33,0-.4943,0-.0628.0011-.1256-.0031-.1881-.0034-.05-.0326-.0658-.08-.0444-.149.0679-.2994.1327-.4469.2036a10.6642,10.6642,0,0,1-1.9852.7462,4.0233,4.0233,0,0,1-1.0323.1671c-.1857-.0019-.3723.0435-.5576.038a3.7417,3.7417,0,0,1-1.7274-.4237,5.6144,5.6144,0,0,1-.5561-.3844,2.6251,2.6251,0,0,1-.7389-.8925,3.1567,3.1567,0,0,1-.31-.9,3.541,3.541,0,0,1-.0451-.7931,3.2708,3.2708,0,0,1,.5092-1.7006,3.5978,3.5978,0,0,1,1.3758-1.2416,5.3683,5.3683,0,0,1,1.6093-.5293,5.7759,5.7759,0,0,1,.6274-.056,7.0259,7.0259,0,0,1,.7223-.0394c.3019.01.6021.0617.904.0792a7.7228,7.7228,0,0,1,.9887.1494c.19.0359.3784.0807.5673.1228.1184.0263.1372.0182.1332-.11-.0079-.2489-.007-.4966-.0354-.747a5.9924,5.9924,0,0,0-.29-1.2437A3.3935,3.3935,0,0,0,44.7048,13.83a2.2336,2.2336,0,0,0-1.2992-.5261,2.8806,2.8806,0,0,0-.44-.0379,1.9243,1.9243,0,0,0-.7667.1713.8877.8877,0,0,0-.4829.571,3.9126,3.9126,0,0,0-.0877.455c-.01.0734-.0246.12-.1084.1157-.0469-.0025-.0941-.0006-.1411-.0007-.0557,0-.088-.0258-.0886-.0842-.0005-.047-.0011-.0941-.0012-.1411,0-.4551-.0012-.91.0007-1.3652.0006-.1528.0044-.157.16-.1572.761-.0006,1.5232-.0245,2.2826.0106a5.2533,5.2533,0,0,1,1.7091.3166,3.3217,3.3217,0,0,1,.9484.5445,2.97,2.97,0,0,1,.9716,1.6355,7.5458,7.5458,0,0,1,.1554,1.1291C47.6107,17.6175,47.5212,18.7692,47.5593,19.6913Zm-1.42.4316q0-.9528,0-1.9053c0-.055,0-.11,0-.1647a.1188.1188,0,0,0-.1053-.1316c-.2118-.0458-.4216-.1023-.6346-.1419-.2967-.0552-.5958-.0983-.8936-.1477a5.2229,5.2229,0,0,0-.9266-.0879c-.2334.0033-.4656.0138-.6992.035a3.9452,3.9452,0,0,0-1.0628.2411,1.9846,1.9846,0,0,0-1.0861.9455,3.4016,3.4016,0,0,0-.3233,1.4191c-.01.1687.0338.34.036.51a3.3328,3.3328,0,0,0,.1447.8462,2.6014,2.6014,0,0,0,.9381,1.3643,2.3429,2.3429,0,0,0,1.2755.4617,3.9718,3.9718,0,0,0,1.2782-.085,4.9473,4.9473,0,0,0,1.94-.9318.2788.2788,0,0,0,.1221-.2515C46.1365,21.44,46.14,20.7815,46.14,20.1228Z"/><path id="_Compound_Path_6" data-name="&lt;Compound Path&gt;" class="cls-1" d="M85.6436,19.9218q0,1.53,0,3.06c0,.2248.0174.237.2338.2521.4034.0286.8064.0647,1.21.0934.0809.0058.1126.0394.1081.1163-.0014.0234,0,.047,0,.0707-.0009.2638.0179.2414-.24.2416H84.4606c-.0472,0-.0942-.0013-.1413-.0006-.07.0009-.0956-.0371-.0954-.1031.001-.1726,0-.3452,0-.5179,0-.0549.0015-.11-.0033-.1645-.0045-.0514-.0357-.0623-.0813-.0417-.1633.0742-.3282.1448-.49.2224a10.3961,10.3961,0,0,1-1.942.7272,5.144,5.144,0,0,1-1.0321.1719,5.8823,5.8823,0,0,1-.6288.0331,3.7137,3.7137,0,0,1-1.9951-.6329,3.0542,3.0542,0,0,1-1.2188-1.7665,3.4972,3.4972,0,0,1-.088-1.138,3.275,3.275,0,0,1,.6919-1.8288,3.5468,3.5468,0,0,1,1.1287-.94,4.7521,4.7521,0,0,1,1.15-.4492c.2334-.0539.4725-.084.71-.121a5.9438,5.9438,0,0,1,1.1622-.0865c.302.0126.602.0634.904.0806a7.9463,7.9463,0,0,1,.9888.1492c.1826.0338.3642.0741.5457.114.1506.0331.1577.0345.1527-.1268-.0077-.2411-.0083-.4811-.0355-.7235a5.9135,5.9135,0,0,0-.29-1.2436,3.3931,3.3931,0,0,0-1.0648-1.5414,2.23,2.23,0,0,0-1.3-.5249,3.2734,3.2734,0,0,0-.4164-.0387,1.8844,1.8844,0,0,0-.8114.1824.8873.8873,0,0,0-.4422.4951,2.8641,2.8641,0,0,0-.1053.4989c-.02.1312-.01.133-.1338.1374-.0391.0013-.0784,0-.1176-.0007a.077.077,0,0,1-.0868-.0859c0-.0707-.001-.1413-.001-.2118,0-.4237-.0012-.8473,0-1.2711.0006-.1759.0032-.1789.1853-.1789.7453-.0005,1.4914-.0176,2.2357.0094a6.739,6.739,0,0,1,1.2192.1681,3.529,3.529,0,0,1,1.24.5235,2.7858,2.7858,0,0,1,1.0184,1.2775,4.7222,4.7222,0,0,1,.2794,1.1728,12.6009,12.6009,0,0,1,.0921,1.7512C85.6414,18.4624,85.6436,19.1921,85.6436,19.9218Zm-1.42.207q0-.9643,0-1.9288c0-.0549,0-.11-.0016-.1647a.1109.1109,0,0,0-.0982-.1129c-.2115-.0474-.4214-.1034-.6345-.1428-.3045-.0562-.6107-.1048-.9173-.1487a6.4514,6.4514,0,0,0-.7385-.0826,6.3511,6.3511,0,0,0-.8638.03,4.3025,4.3025,0,0,0-1.063.24,1.9814,1.9814,0,0,0-1.0891.9421,3.4015,3.4015,0,0,0-.3269,1.4183,4.4561,4.4561,0,0,0,.0845.9266,2.7169,2.7169,0,0,0,.7507,1.5466,2.3908,2.3908,0,0,0,1.5774.7171,3.9967,3.9967,0,0,0,1.2782-.088,5.146,5.146,0,0,0,1.8834-.8949.3569.3569,0,0,0,.1632-.328C84.2176,21.4149,84.2238,20.7718,84.2238,20.1288Z"/><path id="_Compound_Path_7" data-name="&lt;Compound Path&gt;" class="cls-1" d="M102.9573,16.6959h-3.86c-.0628,0-.1255.0012-.1883.0005-.0588-.0005-.08.0294-.085.0861a10.44,10.44,0,0,0-.0411,1.6163,7.4393,7.4393,0,0,0,.353,1.8925,5.3578,5.3578,0,0,0,.845,1.5781,4.1536,4.1536,0,0,0,2.7759,1.608,5.7451,5.7451,0,0,0,.9821.0355,4.3321,4.3321,0,0,0,1.339-.2766,7.1674,7.1674,0,0,0,1.53-.8c.09-.059.1084-.0543.1647.0355.0413.0661.0794.1341.1208.2s.0268.109-.04.153c-.2147.141-.416.305-.639.4305a5.8082,5.8082,0,0,1-1.69.6609,8.1821,8.1821,0,0,1-.8971.1293,5.486,5.486,0,0,1-.817.0359c-.31-.0183-.6177-.0618-.927-.087a4.7221,4.7221,0,0,1-1.1769-.266,5.22,5.22,0,0,1-3.548-3.9265,6.76,6.76,0,0,1-.1181-1.9553,5.5737,5.5737,0,0,1,.6766-2.3331,4.4687,4.4687,0,0,1,.6512-.9394c.14-.147.2636-.31.4105-.45a5.5815,5.5815,0,0,1,1.7419-1.1165,5.6469,5.6469,0,0,1,1.1426-.31,5.4516,5.4516,0,0,1,1.4268-.0474,4.4956,4.4956,0,0,1,1.7194.4707,4.4172,4.4172,0,0,1,1.3937,1.1217,4.3025,4.3025,0,0,1,.7909,1.5757,3.7707,3.7707,0,0,1,.1106.6638c.0207.2094.0089.2105-.1928.213-.0391.0005-.0785,0-.1176,0Zm-.8724-.4768h1.7645c.4234,0,.847.0012,1.27-.0006.147-.0006.1558-.014.1463-.1642a.2827.2827,0,0,0-.0028-.0468,6.2466,6.2466,0,0,0-.2765-1.031,3.1888,3.1888,0,0,0-1.1256-1.4332,2.9134,2.9134,0,0,0-1.7282-.4686c-.0839,0-.1673.036-.2516.0395a2.59,2.59,0,0,0-1.13.3385,3.3744,3.3744,0,0,0-1.21,1.1493,4.7741,4.7741,0,0,0-.6065,1.5322c-.0167.0694.0135.083.068.0842.0628.0014.1254.0009.1881.0009Z"/><path id="_Path_3" data-name="&lt;Path&gt;" class="cls-1" d="M90.016,18.7641c0-.5019-.02-1.0049.0057-1.5056.0264-.5077.0124-1.0171.0523-1.5221.03-.3752-.002-.7518.0444-1.1221a10.41,10.41,0,0,0,.0373-1.0526c.004-.1608-.0021-.1634-.1713-.1638-.51-.0013-1.02,0-1.53-.0006a.4852.4852,0,0,1-.1631-.0062.1834.1834,0,0,1-.106-.1024c-.061-.2548-.0081-.3176.2511-.3177q.7882,0,1.5765,0c.1988,0,.1879.0059.1879-.1955q.0006-1.2707.0028-2.5412c0-.055.0019-.11,0-.1648a.1433.1433,0,0,1,.1087-.1573c.4465-.16.8908-.3253,1.3372-.4855.1369-.0491.1866-.0164.1514.1172a3.385,3.385,0,0,0-.043.6055c-.0253.3092-.0587.618-.088.927-.0029.0311,0,.0628-.0016.094-.0168.3584-.0319.717-.0518,1.0752-.01.1862-.0354.3716-.0429.5578-.0064.1636,0,.1666.1668.1668q1.3646.0016,2.73.0005c.3764,0,.7529,0,1.13.0011a.4436.4436,0,0,1,.0894.0186.2789.2789,0,0,1-.0453.0747c-.37.3106-.7425.6183-1.1111.9305-.0538.0454-.0849.0481-.1339-.0018a2.1058,2.1058,0,0,0-1.2327-.5524,12.5855,12.5855,0,0,0-1.4992-.0436.1185.1185,0,0,0-.1379.124c-.001.0157,0,.0314-.001.047-.0169.5075-.0164,1.0163-.0566,1.5218-.0287.359-.0081.72-.0512,1.0745-.0361.2975-.01.5936-.04.8878a23.0285,23.0285,0,0,0-.0369,2.3932c0,.301.0591.6018.0858.903a4.6469,4.6469,0,0,0,.283,1.2441,2.7478,2.7478,0,0,0,.5828.9775,1.9953,1.9953,0,0,0,1.0063.5589,3.33,3.33,0,0,0,1.1848.0226,6.4737,6.4737,0,0,0,1.0133-.2594c.155-.0468.1548-.0484.2323.0957.0185.0344.0333.071.0534.1044.05.0828.0137.1262-.0629.1633a6.4967,6.4967,0,0,1-1.818.6434,3.92,3.92,0,0,1-.6675.0842,3.74,3.74,0,0,1-1.9678-.5679,2.2349,2.2349,0,0,1-.715-.762,3.579,3.579,0,0,1-.4509-1.3624A19.3993,19.3993,0,0,1,90.016,18.7641Z"/><path id="_Path_4" data-name="&lt;Path&gt;" class="cls-1" d="M19.2653,19.8066c0,.6667-.0057,1.3334.002,2,.0048.4213.0329.8423.0425,1.2635a.1459.1459,0,0,0,.1162.15.2466.2466,0,0,0,.0689.011c.2878.0168.5756.0318.8634.05.233.0144.4662.0281.6986.05.16.0151.08.1463.0865.2239.0061.0708.0573.1885-.0874.1986a.7333.7333,0,0,1-.2575-.0045,1.8518,1.8518,0,0,0-.5589-.0374q-1.7764-.0035-3.553.0019c-.178.0006-.3559.0337-.5341.04-.1873.0065-.1891,0-.19-.1965-.0006-.2419-.0167-.2182.23-.2325.31-.0179.6177-.06.9271-.0846.1326-.0108.2665-.0043.4-.0073a.7232.7232,0,0,0,.163-.0123.1372.1372,0,0,0,.12-.1459c.01-.5153.02-1.0311.0469-1.5459.0726-1.3933.04-2.7875.04-4.1814,0-.8448-.0059-1.6907-.0538-2.5336-.0238-.4221-.0207-.8429-.0359-1.264-.0053-.1482-.0047-.151-.1618-.1516-.4471-.0015-.8942-.0005-1.3412-.0006-.055,0-.11.0018-.1646-.0019a.1217.1217,0,0,1-.12-.12c-.04-.2684-.01-.2989.2712-.3055.5311-.0125,1.0641-.0091,1.5923-.0559.32-.0282.6391-.0234.9583-.04.1783-.009.3558-.0342.5341-.0408.126-.0047.1334.0041.13.1356a1.6044,1.6044,0,0,1-.0386.5349.3842.3842,0,0,0-.0046.1169q-.0258.8552-.0518,1.71a.6708.6708,0,0,1-.0022.07c-.0084.06-.0191.1191-.0289.1787a.8612.8612,0,0,0,.1516-.122,9.8328,9.8328,0,0,1,1.1087-1.1421A5.6546,5.6546,0,0,1,23.147,12.94a4.4179,4.4179,0,0,1,1.0728-.0633c.0585.0006.0828.0342.0831.09,0,.0392.001.0785.001.1177v1.9295a.3914.3914,0,0,1-.0016.0938c-.01.0418-.0249.1109-.0482.1155a.5.5,0,0,1-.2052-.0084c-.0181-.0041-.0312-.0665-.0319-.1024q-.0048-.2706-.0006-.5412c.0012-.08-.0216-.115-.1067-.1476a3.1093,3.1093,0,0,0-1.3725-.2171,3.224,3.224,0,0,0-2.0494.9065c-.1174.114-.2505.2119-.365.3285a5.8725,5.8725,0,0,0-.4388.4871,1.6793,1.6793,0,0,0-.3293.7869,11.5292,11.5292,0,0,0-.0925,1.8213q-.0008.6353,0,1.2707Z"/><path id="_Compound_Path_8" data-name="&lt;Compound Path&gt;" d="M45.4874,34.8134a.7467.7467,0,0,1,.1556-.042A.3747.3747,0,0,0,45.99,34.5q.1471-.3811.2856-.7656.4052-1.1191.8073-2.2393a.235.235,0,0,1,.0251-.065c.0359-.0468.0763-.09.115-.1351a.6147.6147,0,0,1,.095.1243c.0843.201.1626.4045.2411.6079.2212.5736.44,1.1482.6631,1.7213.0958.2466.1892.495.3014.7342a.4531.4531,0,0,0,.5334.2861.1371.1371,0,0,0,.1436-.148c.0124-.2254.0395-.45.0411-.6758.0051-.7924.0016-1.5848.0027-2.3771a.8951.8951,0,0,1,.0163-.209c.0113-.0469.0528-.0805.1039-.0293.1385.1388.279.2757.4139.418.1073.1131.2048.2357.3114.35.3049.3257.6145.6469.9179.9741.3135.338.6218.6809.9329,1.0212a.369.369,0,0,0,.0552.0416.2527.2527,0,0,0,.0258-.0758,6.2676,6.2676,0,0,0-.0062-.8c-.0584-.4689-.0238-.9375-.0386-1.4058-.0088-.2793-.0476-.3275-.3348-.3763a.1152.1152,0,0,1-.0621-.0237.0551.0551,0,0,1,0-.055.0966.0966,0,0,1,.0626-.0219q.4589-.0018.9178.0006c.02,0,.0391.0178.0587.0272-.0132.0185-.0226.0445-.0405.0537a.4769.4769,0,0,1-.0893.0228c-.136.0386-.1692.0746-.176.2073-.0052.1018-.0032.2039-.0033.3059,0,.8315.0017,1.6631-.0019,2.4947a2.51,2.51,0,0,1-.0408.3694c-.0133.0855-.0473.097-.12.0459a.8358.8358,0,0,1-.1052-.0935c-.305-.3051-.6154-.6053-.9128-.9176-.4044-.4247-.8-.8583-1.1973-1.2895-.127-.1376-.2493-.28-.3754-.4186-.0119-.0129-.0364-.0144-.0551-.0213a.26.26,0,0,0-.0094.0452.6534.6534,0,0,0,0,.1409,8.296,8.296,0,0,1,.0441,1.2173c.015.3194.0274.6389.0472.9581.0107.1741.0682.2253.2448.2443a.2447.2447,0,0,1,.0917.0107.3685.3685,0,0,1,.0744.08c-.03.0178-.06.0508-.09.0509-.502.0029-1.0041.0019-1.5062.0014-.0862,0-.1728.0027-.2586-.004-.0778-.0059-.0907-.0412-.0653-.12a.2119.2119,0,0,0,.0117-.125c-.1281-.3509-.2633-.6992-.3919-1.05-.0215-.0585-.0588-.0649-.1075-.0649-.2745,0-.5491,0-.8237,0a.1288.1288,0,0,0-.1437.0925c-.0971.3034-.2007.6047-.293.91-.0518.1712-.0437.1735.1188.22a.2177.2177,0,0,1,.0654.022c.0171.0119.0385.0361.0365.0523a.0756.0756,0,0,1-.045.0487.3659.3659,0,0,1-.1137.0192c-.2588.0015-.5178.0005-.7765.0011-.0662,0-.13-.0012-.1316-.0917Zm1.659-1.5037V33.31c.0861,0,.1723.0016.2583,0,.16-.0036.1664-.0106.1163-.1574-.113-.33-.2295-.66-.3451-.99a.382.382,0,0,0-.029-.0529c-.0158.0163-.04.03-.0461.0491-.05.155-.0944.3116-.1442.4665-.0619.1923-.1289.3829-.19.5754-.02.0615-.0043.1091.0746.1089C46.9428,33.3094,47.0446,33.31,47.1464,33.31Z"/><path id="_Compound_Path_9" data-name="&lt;Compound Path&gt;" d="M37.8875,34.9136q-.4469,0-.8939,0a.5373.5373,0,0,1-.1392-.01c-.0256-.007-.0441-.04-.0658-.0612.0218-.0211.0438-.061.0651-.0605.2151.005.2385-.1555.2418-.3019.01-.4468.0035-.8939.007-1.3409.0006-.0863-.04-.1048-.1153-.1046-.5646.0014-1.1293-.0007-1.6939.0017-.1428.0006-.1579.0179-.1594.1675-.003.3059-.0057.6119.0012.9176.0034.1548.0263.3094.0433.4637a.1857.1857,0,0,0,.1766.1829c.0612.009.1237.0113.184.0242a.0672.0672,0,0,1,.041.0506.0763.0763,0,0,1-.0416.0518.2186.2186,0,0,1-.09.019c-.3214.0013-.6431.0009-.9645.0005a.1144.1144,0,0,1-.0464-.0042c-.0192-.0091-.0518-.0276-.05-.0372a.1993.1993,0,0,1,.0384-.0772.0546.0546,0,0,1,.0411-.02c.1947.0137.194-.1428.2274-.2648a.5489.5489,0,0,0,.0043-.1406q.0013-1.2588.0019-2.5174c0-.0313,0-.0628-.0017-.094-.009-.197-.0525-.247-.2421-.2784-.0306-.005-.0626-.0041-.0924-.0117-.0117-.003-.0291-.024-.0269-.0328a.1575.1575,0,0,1,.0314-.0541c.0033-.0044.0149-.0037.0227-.0037.337,0,.6741,0,1.0112.0034a.06.06,0,0,1,.042.042c0,.0164-.0233.0473-.0372.0476-.1831.0055-.2142.1162-.2433.2765a8.0155,8.0155,0,0,0-.03,1.0061c-.0033.0614.0335.0805.0884.08.1569,0,.3137,0,.4706,0,.4156,0,.8313.0011,1.2469,0,.1578-.0006.16-.0031.1613-.15.0017-.298.0027-.596,0-.8939-.0025-.2376-.0345-.2694-.2817-.3117a.1922.1922,0,0,1-.0645-.0205.0409.0409,0,0,1,.0091-.0715.3874.3874,0,0,1,.0922-.0109q.4352-.001.87,0a.435.435,0,0,1,.0929.0083c.0121.0026.0308.0231.0288.0311a.1766.1766,0,0,1-.0317.0562c-.0033.0047-.0149.0029-.0223.0052-.2072.0653-.1982.0663-.22.2641-.0839.75-.0226,1.5014-.0368,2.2521a3.8444,3.8444,0,0,0,.0477.6041.2171.2171,0,0,0,.1167.1555.9109.9109,0,0,0,.5442-.0009.415.415,0,0,0,.1847-.2,4.9556,4.9556,0,0,0,.2142-.5172c.21-.5773.4151-1.1565.6237-1.7343.0977-.2706.1982-.54.3-.8094a.9447.9447,0,0,1,.0735-.1467c.0371-.0627.086-.065.1231-.0021a1.15,1.15,0,0,1,.0747.17c.3026.7838.6033,1.5684.9082,2.3513.0819.21.1768.4155.2647.6235a.393.393,0,0,0,.3874.2845.0825.0825,0,0,1,.0456.0072.7266.7266,0,0,1,.0689.06.5608.5608,0,0,1-.0826.0711.1506.1506,0,0,1-.0694.0048c-.22-.0005-.4393.0018-.6587-.0033-.14-.0032-.1453-.0174-.13-.162a.2538.2538,0,0,0-.01-.1125c-.1221-.328-.2474-.6547-.3714-.9819a.1455.1455,0,0,0-.1574-.1073c-.2666.0056-.5333.003-.8.0016a.1387.1387,0,0,0-.1514.1136c-.084.2669-.1789.53-.2651.7966a.7579.7579,0,0,0-.0184.1622c-.008.0883.0078.1522.12.1546.0329.0007.0647.0487.0971.075-.0392.021-.0776.0584-.1177.06-.1565.0065-.3135.0016-.47.0014q-.2706,0-.5411,0Zm1.7339-2.8621c-.126.379-.2489.7456-.3694,1.113-.0413.126-.0313.143.0888.1448.2114.0032.4228,0,.6342.0014.0635,0,.0773-.0153.054-.0809C39.8916,32.8425,39.76,32.4532,39.6214,32.0515Z"/><path id="_Compound_Path_10" data-name="&lt;Compound Path&gt;" d="M61.7884,26.9041c.22,0,.44-.0084.6587.0024a.9579.9579,0,0,1,.6382.25.8666.8666,0,0,1,.215.8856,1.6971,1.6971,0,0,1-.3994.6787c-.0959.1205-.0928.1175.0078.2417.2206.2725.4379.5477.6559.8224a1.9462,1.9462,0,0,0,.46.4305.1107.1107,0,0,0,.1781-.0362,1.999,1.999,0,0,0,.1468-.2934c.1892-.51.3733-1.0227.5587-1.5345q.2464-.68.4925-1.36a.61.61,0,0,1,.0647-.1246c.04-.0607.0929-.0614.1223.0056q.1221.2776.2306.5614c.3052.791.6075,1.5831.9133,2.374a1.4317,1.4317,0,0,0,.1267.2511c.0805.1256.1668.2491.345.241a.1758.1758,0,0,1,.0875.0284.3079.3079,0,0,1,.0571.0561c-.0243.018-.0464.0457-.0734.0513a.69.69,0,0,1-.1405.0061c-.18,0-.3609.0025-.5411-.0038a.9138.9138,0,0,1-.2028-.0418c-.0126-.0034-.0293-.0438-.0259-.0469.1112-.1.0132-.1827-.02-.2714-.1081-.2918-.2177-.5829-.32-.8767-.0288-.0826-.06-.129-.1586-.1265q-.4.01-.8,0c-.1-.0027-.131.0452-.1572.1278-.0893.2818-.187.5609-.2773.8422-.0591.1846-.0538.1895.1351.2674a.22.22,0,0,1,.0418.0213c.0178.0124.0338.0273.0506.041a.2842.2842,0,0,1-.0689.0587.2551.2551,0,0,1-.0927.0087c-.2509.0012-.5023.0109-.7527-.0007a.8142.8142,0,0,1-.565-.2381,9.3593,9.3593,0,0,1-.7169-.8939.4564.4564,0,0,1-.0688-.0942c-.1393-.3307-.4277-.28-.6983-.2757-.061.0011-.0768.0413-.0767.094.0016.3451-.0031.69.0068,1.0351.0047.1655.0647.2116.2323.2288.0156.0015.0342-.0043.0466.0024.045.0243.1226.05.1249.0794.006.0793-.072.0623-.1228.0626-.3136.0014-.6275.0018-.941-.0019-.0313,0-.0623-.0307-.0935-.0473.0229-.0281.0446-.08.0686-.0806.1663-.0079.202-.1092.2078-.2508.0064-.1549.0384-.3091.0392-.4637.0038-.7372.0017-1.4745-.0007-2.2115a.6907.6907,0,0,0-.028-.2059.2191.2191,0,0,0-.2219-.174.3581.3581,0,0,1-.1284-.04.0841.0841,0,0,1,.0046-.05.5823.5823,0,0,1,.1156-.0117c.22-.001.4392-.0005.6587-.0005Zm.031.9861h0c0,.2111-.0014.4222,0,.6331.0014.1676.0335.204.2.2155.109.0075.2188.0064.3281.0045a.5257.5257,0,0,0,.5-.3827,1.2794,1.2794,0,0,0,.0459-.5542.7513.7513,0,0,0-.5014-.6724,2.0165,2.0165,0,0,0-.4619-.0342c-.08-.0051-.1117.031-.1109.1106C61.8209,27.4369,61.8194,27.6636,61.8194,27.89Zm3.61.96.0007-.008c.11-.0041.22-.0012.3289-.0049.1032-.0034.1208-.0288.085-.1321-.1121-.3226-.2275-.6438-.342-.9656-.0123-.0345-.0271-.0682-.0406-.1022a.6764.6764,0,0,0-.0653.114c-.0807.2348-.1577.4707-.2359.7064q-.0585.1768-.117.3537Z"/><path id="_Path_5" data-name="&lt;Path&gt;" d="M58.8956,28.5973c0-.4157.0009-.8316,0-1.2473-.0009-.275-.017-.292-.2958-.3452a.1592.1592,0,0,1-.0653-.0222.1891.1891,0,0,1-.0353-.0554c.0136-.007.0268-.0194.0407-.02.0627-.0034.1253-.0047.188-.0047.3766,0,.7532.0047,1.13,0a1.4383,1.4383,0,0,0,.5122-.0349c.0262-.01.1074.039.1059.0559-.0152.1768-.0412.3528-.0669.5285-.0025.0165-.024.03-.0366.0451a.2343.2343,0,0,1-.05-.0465.4286.4286,0,0,1-.0179-.0672c-.0782-.2122-.11-.23-.3443-.24-.147-.0065-.2933-.0317-.44-.0389-.1688-.0082-.19.0128-.1911.184q-.0037.4942,0,.9884c.001.1323.0045.1357.1279.1372.2118.0024.4237,0,.6355,0a.3.3,0,0,0,.2177-.0648c.0551-.0481.104-.0137.0976.06q-.022.2554-.0493.51a.142.142,0,0,1-.0276.0627c-.0217.0308-.0475.0377-.0685-.002-.011-.0207-.0293-.0429-.0287-.0638.0061-.19-.13-.2222-.2719-.2486a.4534.4534,0,0,0-.0928-.01c-.1712.0034-.3423.0088-.5136.0134-.009.1618-.0221.3235-.026.4854-.0045.1961-.0012.3922-.0009.5884a1.2912,1.2912,0,0,0,.0024.141c.0262.2358.1082.3106.3481.3154.1332.0026.2669.0036.4-.0014a.3447.3447,0,0,0,.3747-.3031c.0044-.0148.0036-.0349.0133-.0437a.9963.9963,0,0,1,.0855-.0642c.0146.0249.0439.0512.0415.0742a3.4709,3.4709,0,0,1-.0637.46c-.0215.0893-.1063.1251-.2051.1223-.1881-.0051-.3764-.0031-.5647-.0031-.51,0-1.02-.0121-1.53.0037a1.22,1.22,0,0,1-.9633-.3948c-.3725-.39-.7346-.79-1.1022-1.1846-.0476-.051-.1016-.0961-.1527-.1439a1.7925,1.7925,0,0,0-.0273.2158c-.0024.3216-.0012.6432.0016.9648a.88.88,0,0,0,.0222.2082c.0427.1672.0461.1666.217.1851.0233.0026.0514-.005.07.0056.0374.022.0956.05.0986.0809.0063.0635-.0583.0583-.1036.0584-.3215.0006-.6433.0015-.9648-.0024-.03,0-.0593-.034-.0891-.0521.018-.0236.0349-.0669.054-.0678.2628-.0133.2367-.2232.2592-.3889a2.8251,2.8251,0,0,0,.0045-.3761q0-1.1061-.0009-2.2122c0-.0314.0017-.063-.001-.0942a.2228.2228,0,0,0-.2084-.2387A.5765.5765,0,0,1,55.251,27c-.0236-.0092-.04-.0368-.06-.0562a.3368.3368,0,0,1,.0528-.0371.1139.1139,0,0,1,.0463-.0042c.306,0,.612-.001.9179.001a.3023.3023,0,0,1,.084.0264c-.02.0222-.0358.0543-.0607.0649-.0615.026-.153-.0082-.1849.0744a.7447.7447,0,0,0-.0587.2452c-.0068.3529-.0041.706-.0035,1.059a.2849.2849,0,0,0,.0161.0664.3051.3051,0,0,0,.0576-.0379q.43-.45.8587-.9c.0867-.0908.1754-.18.2643-.2681a.1634.1634,0,0,0,.0261-.2478c-.0482-.058-.022-.0816.0407-.0818q.4119-.0013.8237.0011c.0182,0,.0361.0191.0543.0294-.014.0179-.0244.043-.0428.0519a.5553.5553,0,0,1-.09.0216,1.0119,1.0119,0,0,0-.4465.2447q-.55.5484-1.1,1.0967c-.1082.1084-.1063.1112-.0009.2221.0487.0512.1.0994.1493.15.2921.3052.5769.6181.8782.9139a6.8932,6.8932,0,0,0,.6224.5313.7855.7855,0,0,0,.6172.13c.0822-.0119.128-.0462.1374-.13.0128-.1156.041-.2305.0426-.3461C58.899,29.4132,58.8956,29.0053,58.8956,28.5973Z"/><path id="_Compound_Path_11" data-name="&lt;Compound Path&gt;" d="M90.67,28.5687c0-.4.0022-.8-.0019-1.2a.7515.7515,0,0,0-.043-.2262c-.0381-.1138-.1363-.1376-.2439-.1469-.0218-.0018-.04-.0417-.06-.0641.02-.0092.04-.0264.06-.0265.3216-.0017.6433-.0022.9648.0005.0245,0,.0487.0272.0729.0416-.02.0189-.0371.0481-.0608.0553-.2376.072-.2527.0846-.2532.318q-.0024,1.2593.0015,2.5184a2.4218,2.4218,0,0,0,.0464.3459.1251.1251,0,0,0,.13.1106,1.4,1.4,0,0,1,.2056.0337c.0223.0056.0384.036.0574.0551a.2568.2568,0,0,1-.073.052.4719.4719,0,0,1-.117.0057c-.4472,0-.8944.0035-1.3416-.0016a.7871.7871,0,0,1-.5429-.1783,1.5542,1.5542,0,0,1-.1912-.1988q-.3723-.48-.7366-.9665a.318.318,0,0,0-.3137-.1594c-.1152.0146-.2325.0113-.3489.016-.01.1222-.0257.2443-.0278.3668-.0041.22-.0016.4394.002.659a.6989.6989,0,0,0,.0258.1836.1571.1571,0,0,0,.1681.1336.2736.2736,0,0,1,.1163.0066c.0387.0163.095.05.0974.0806.0055.0634-.0592.0576-.1045.0578-.3216.0006-.6433.0015-.9649-.0025-.03,0-.06-.034-.0894-.0523.0248-.0272.0491-.0772.0744-.0777.1755-.0032.1894-.1177.2028-.2537.0878-.8913.021-1.7846.0381-2.6767.0051-.2614-.0411-.3012-.3118-.3747a.1793.1793,0,0,1-.0608-.031.0533.0533,0,0,1-.02-.0395c.001-.01.02-.0229.0324-.0249a.5976.5976,0,0,1,.0938-.0053c.4394,0,.8789-.0038,1.318.0035a.9241.9241,0,0,1,.6222.2294.891.891,0,0,1,.1963,1.0322,2.5654,2.5654,0,0,1-.2432.3978c-.0209.0323-.0552.0557-.08.0863-.1312.1649-.1331.1671.0006.3432a9.5341,9.5341,0,0,0,.8646,1.0452.7611.7611,0,0,0,.6042.2564c.1212-.0082.1652-.03.1834-.1351a2.7065,2.7065,0,0,0,.0483-.4161C90.6742,29.3532,90.67,28.9609,90.67,28.5687Zm-2.423.1745v.0009c.0234,0,.0468,0,.07,0a.5039.5039,0,0,0,.5563-.3941,1.0458,1.0458,0,0,0,.0531-.4828.7636.7636,0,0,0-.491-.7263,1.5123,1.5123,0,0,0-.4363-.04c-.1419-.0027-.1459.0047-.1466.1418-.0022.3827-.0009.7654-.0009,1.1482,0,.347,0,.347.3483.352C88.2158,28.7434,88.2313,28.7432,88.247,28.7432Z"/><path id="_Path_6" data-name="&lt;Path&gt;" d="M64.5392,34.9136c-.102,0-.204.0018-.3058-.0007a.5886.5886,0,0,1-.1375-.0188.0736.0736,0,0,1-.0448-.0487c-.0021-.0161.02-.0382.0352-.0534a.0955.0955,0,0,1,.0422-.0185c.066-.0173.1626-.0126.1914-.0546a.6.6,0,0,0,.08-.263c.0248-.2085.0323-.4191.0554-.6279.0219-.2.0567-.3989.0822-.5987q.031-.2428.0533-.4867c.0194-.2092.03-.4193.0531-.6281.026-.2391.059-.4774.0941-.7153a.1228.1228,0,0,1,.0611-.0884c.0231-.0067.069.0276.0889.0553a1.1112,1.1112,0,0,1,.09.1639q.5842,1.189,1.1669,2.3788c.0375.0769.0652.1585.1006.2363.0084.0185.0293.0429.0451.0434s.0373-.0236.0458-.0419c.0491-.106.0926-.2147.1425-.32.177-.3742.3575-.7467.5336-1.1213.1825-.3884.3613-.7785.5418-1.1677a.3879.3879,0,0,1,.0421-.0836c.0423-.0525.0946-.1462.1341-.1419.0838.0092.0642.1063.0724.175.0441.37.0937.7389.1353,1.109.0235.2087.0308.4192.0539.6279.0219.2.0577.3985.0822.5985.0219.1775.0349.3561.0559.5337a1.3094,1.3094,0,0,0,.0415.1806.2827.2827,0,0,0,.3051.2342.5893.5893,0,0,1,.178.0377c.014.0043.0287.04.0253.0572a.0639.0639,0,0,1-.0457.0416c-.2108-.0017-.4218-.0028-.6324-.0137-.1071-.0055-.2133-.03-.32-.0461a2.2782,2.2782,0,0,0,.0139-.3141c-.0211-.2392-.0581-.477-.083-.7161-.0218-.2089-.0375-.4185-.0526-.6281-.0191-.2642-.0344-.5287-.0533-.7929-.0012-.0165-.018-.0317-.0276-.0475-.012.01-.03.0165-.0351.0288-.0551.1205-.1053.2433-.1623.3628-.2015.4231-.4059.8449-.6076,1.268-.1109.2325-.2184.4665-.328.7a.9581.9581,0,0,1-.0752.1454c-.0346.0488-.08.082-.1255.0055-.04-.0668-.088-.13-.1221-.1994q-.4592-.9369-.9137-1.8759c-.051-.105-.0936-.2141-.1416-.3206-.0048-.01-.0227-.0236-.031-.0216a.0532.0532,0,0,0-.0341.0287.4147.4147,0,0,0-.0183.0907c-.0164.17-.0341.34-.0463.5108-.0194.272-.0338.5445-.0522.8166-.0146.2174-.0384.4344-.0468.6521-.0074.1926-.0006.1927.2.23a.1917.1917,0,0,1,.0662.0191c.0186.0118.0421.0339.0419.0513a.0687.0687,0,0,1-.0419.0507.7935.7935,0,0,1-.1605.0211C64.7432,34.9158,64.6411,34.9136,64.5392,34.9136Z"/><path id="_Path_7" data-name="&lt;Path&gt;" d="M11.1931,27.8531c-.0461.0909-.0863.1651-.122.2414q-.4611.986-.9216,1.9723a3.3515,3.3515,0,0,1-.1664.3088c-.0364.06-.089.0593-.13.0005a1.3,1.3,0,0,1-.0966-.16c-.2313-.4615-.4647-.9217-.69-1.3862-.1359-.2806-.2573-.5681-.3861-.8521a.3771.3771,0,0,0-.0387-.0567.4189.4189,0,0,0-.016.0653c-.0327.3875-.062.7754-.0974,1.1625-.0256.2782-.06.5556-.0882.8336a1.4542,1.4542,0,0,0,0,.1882.1149.1149,0,0,0,.1145.1232c.0234.0022.0469.0021.0706.0034.0556.0031.1205.01.1167.0784-.0014.0237-.0713.0612-.1106.0621-.2431.0057-.4863.0037-.7294.0015a.1967.1967,0,0,1-.0877-.0277.3576.3576,0,0,1-.0618-.0554c.0241-.0183.0454-.0466.0723-.0535.2531-.0639.2544-.0737.28-.3113.0377-.3547.09-.7078.1316-1.062.0227-.1932.0331-.3877.0544-.581.0246-.2236.0578-.4461.0822-.67.023-.2087.04-.4182.0583-.6275a.4745.4745,0,0,1,.0065-.1167c.0149-.0407.0414-.0953.0747-.1056.0261-.0081.0837.0338.1039.0675.0561.0938.1007.1944.1485.293q.3886.8013.7766,1.6032c.1389.2883.2741.5784.4133.8666.02.0414.0484.089.0874.0061q.299-.6356.6016-1.27.3516-.7407.7046-1.4807a.2149.2149,0,0,1,.0543-.0746c.0371-.03.0756-.0229.0891.0265a1.3988,1.3988,0,0,1,.0492.2274c.036.3717.0621.7442.1023,1.1153.0367.3391.0894.6763.13,1.015.0226.1852.0348.3717.054.5574.0072.069.02.1376.0321.2061a.33.33,0,0,0,.37.3105.216.216,0,0,1,.1106.0271.1127.1127,0,0,1,.038.0747c.0015.01-.0322.0356-.05.0358-.18.002-.3607.0046-.5407-.0022a2.9376,2.9376,0,0,1-.2994-.0381c-.075-.0107-.1144-.022-.1037-.1308a3.81,3.81,0,0,0-.02-.5575c-.002-.0388-.0093-.0773-.0119-.1161-.0176-.2643-.0291-.5292-.0535-.7929C11.27,28.49,11.23,28.182,11.1931,27.8531Z"/><path id="_Path_8" data-name="&lt;Path&gt;" d="M38.7973,26.9028c.1569,0,.3137-.0014.47.0018.0241,0,.0476.023.0713.0353a.2871.2871,0,0,1-.0668.059c-.0274.0118-.0631.0031-.0923.0125a.19.19,0,0,0-.1453.1886c-.0119.288-.037.5757-.0395.8637-.006.69-.0019,1.38-.0019,2.07,0,.055.0019.11-.0015.1647-.0032.0511.0179.1265-.0537.1347a.2015.2015,0,0,1-.1385-.0626c-.39-.3864-.7787-.774-1.1623-1.1664-.2131-.2179-.4188-.4431-.6229-.67s-.4008-.4579-.6016-.6862c-.0414-.047-.0859-.0916-.1315-.1345a.1749.1749,0,0,0-.0554-.0234.1593.1593,0,0,0-.0107.0446,3.2844,3.2844,0,0,0,.035.7233.6174.6174,0,0,1,.0066.1638c.0017.3214-.0018.6432.0063.9645a5.0475,5.0475,0,0,0,.045.51c.0182.1428.067.1817.21.1991.0709.0087.1908-.0237.181.0816-.0087.093-.128.0617-.2023.0626-.2274.0028-.4548.0011-.6822.0006a.3726.3726,0,0,1-.1166-.0055.3591.3591,0,0,1-.09-.0662c.0293-.023.0551-.0568.0882-.0672.2241-.07.2281-.0686.2288-.3036.002-.7057,0-1.4115.0031-2.1172,0-.1.0273-.1994.0315-.3a2.146,2.146,0,0,0-.0125-.255.8964.8964,0,0,1-.0179-.1841c.0148-.1056.0464-.2089.071-.3132.1176.0038.1668.1052.2323.1745q.6689.707,1.3288,1.4227c.3818.4132.76.83,1.1393,1.245l.03.0341a.1362.1362,0,0,0,.0132-.04c0-.1488.0038-.2981-.003-.4468-.006-.1314-.0331-.262-.0351-.3932-.0063-.4391-.003-.8783-.009-1.3173-.0015-.1-.0354-.1992-.037-.299-.0019-.1354-.0962-.1683-.1949-.1973-.0439-.013-.095-.0016-.14-.0132-.0257-.0067-.0451-.0372-.0674-.0571.0229-.0129.0457-.0369.0689-.0373C38.4835,26.9011,38.64,26.9028,38.7973,26.9028Z"/><path id="_Compound_Path_12" data-name="&lt;Compound Path&gt;" d="M40.252,28.6557c0-.4211.0033-.7659-.0019-1.1107A1.9828,1.9828,0,0,0,40.209,27.2c-.0291-.15-.055-.1672-.2147-.1928a.4081.4081,0,0,1-.0908-.0169c-.0189-.0079-.0311-.0317-.0464-.0483.015-.0123.0284-.0317.0452-.0352a.454.454,0,0,1,.0936-.0042c.5878.0009,1.176-.012,1.7632.0073a1.7172,1.7172,0,0,1,1.1949.5079,1.5689,1.5689,0,0,1,.42.8179,1.9271,1.9271,0,0,1-.3274,1.5288,1.506,1.506,0,0,1-.7524.5718,2.2693,2.2693,0,0,1-1.1907.1185A3.7862,3.7862,0,0,0,40.47,30.44c-.1488-.0012-.2979.0036-.4466-.0015-.03-.001-.0595-.034-.0891-.0523.0179-.0233.0342-.0655.054-.0672.2193-.0181.2036-.1744.2269-.3347A12.8716,12.8716,0,0,0,40.252,28.6557Zm.4322-.0982c0,.094,0,.188,0,.282.0005.3209-.0012.642.0028.9629.0033.2851.0545.3742.331.42a2.0546,2.0546,0,0,0,1.0181-.0442,1.2,1.2,0,0,0,.8-.7653,1.965,1.965,0,0,0,.02-1.2142,1.5863,1.5863,0,0,0-.4826-.7042,1.4638,1.4638,0,0,0-.6822-.3411,2.9878,2.9878,0,0,0-.7906-.0536c-.2047.0092-.2148.0137-.2158.2128C40.6827,27.7278,40.6842,28.1426,40.6842,28.5575Z"/><path id="_Compound_Path_13" data-name="&lt;Compound Path&gt;" d="M77.1253,31.3777c.2979,0,.5967-.015.8935.0034a1.76,1.76,0,0,1,1.2087.5334,1.5475,1.5475,0,0,1,.3937.782,1.955,1.955,0,0,1-.1327,1.2068,1.6215,1.6215,0,0,1-.9767.9146,2.4138,2.4138,0,0,1-1.2163.1086,5.0212,5.0212,0,0,0-.7513-.0149c-.0628-.0005-.1261.0066-.188,0-.0576-.0062-.1607-.0214-.1626-.041-.01-.0947.0731-.0955.1435-.1046.09-.0115.107-.0889.1148-.156a5.187,5.187,0,0,0,.0462-.5572c.0052-.7055.0022-1.4112.0019-2.1167a.5994.5994,0,0,0-.007-.1869c-.0621-.181-.0387-.26-.284-.2721a.2046.2046,0,0,1-.084-.0336.0486.0486,0,0,1-.02-.039c.0011-.01.0207-.0235.033-.0245.0546-.004.1095-.0052.1642-.0053q.4116-.0006.8232,0Zm-.1909,1.6268h-.0019c0,.0862,0,.1723,0,.2586.0006.3287,0,.6576.0026.9864.0027.3071.085.4316.3739.4592a2.26,2.26,0,0,0,.93-.0425,1.2287,1.2287,0,0,0,.8372-.7571,1.8222,1.8222,0,0,0,0-1.3238,1.5648,1.5648,0,0,0-1.1112-.9549,2.6446,2.6446,0,0,0-.79-.0592c-.2366.0117-.2391.0064-.24.2355C76.9332,32.206,76.9344,32.6054,76.9344,33.0046Z"/><path id="_Compound_Path_14" data-name="&lt;Compound Path&gt;" d="M54.1648,31.3773c.29,0,.58-.0115.8693.003a1.8153,1.8153,0,0,1,.9065.2695,1.5416,1.5416,0,0,1,.7126,1.0477A1.9179,1.9179,0,0,1,56.354,34.21a1.6068,1.6068,0,0,1-1.1874.7047,2.7428,2.7428,0,0,1-.5565.0387c-.4366-.0421-.8728-.0414-1.31-.0426-.03,0-.0595-.0335-.0892-.0513.0246-.0273.05-.0788.0738-.0781.1765.0052.2033-.1019.2071-.2438.0028-.1077.0348-.2149.0352-.3224.0033-.7755.0018-1.5511.0016-2.3267a.6265.6265,0,0,0-.0053-.1637c-.0578-.2065-.0479-.2171-.2505-.2453a.24.24,0,0,1-.0693-.0071.3737.3737,0,0,1-.0689-.0569c.0221-.0134.0433-.0358.0666-.0384a1.53,1.53,0,0,1,.1644-.0026q.4,0,.799,0ZM53.9615,32.99h.0013c0,.3528-.0034.7055.0018,1.0583.0018.1233.04.2468.0351.3692a.2287.2287,0,0,0,.2166.2549,1.9582,1.9582,0,0,0,1.28-.0953,1.1333,1.1333,0,0,0,.6131-.6483,1.9254,1.9254,0,0,0,.0092-1.3058,1.4966,1.4966,0,0,0-.944-.9369,2.681,2.681,0,0,0-1.0394-.1108c-.1369.0062-.173.052-.1737.1918C53.96,32.175,53.9615,32.5826,53.9615,32.99Z"/><path id="_Compound_Path_15" data-name="&lt;Compound Path&gt;" d="M52.904,30.4894a1.6557,1.6557,0,0,1-1.61-.9562,2.007,2.007,0,0,1-.201-.8541,1.9168,1.9168,0,0,1,1.0782-1.7005,1.8638,1.8638,0,0,1,1.0683-.1368,2.13,2.13,0,0,1,.8845.3353,1.5991,1.5991,0,0,1,.6436,1.0693,1.9769,1.9769,0,0,1-.057.9189,1.7091,1.7091,0,0,1-.7868,1.058A1.7593,1.7593,0,0,1,52.904,30.4894Zm-1.2957-1.9383a1.4947,1.4947,0,0,0,.1.6964,1.52,1.52,0,0,0,.7087.8686,1.4046,1.4046,0,0,0,.75.1344,1,1,0,0,0,.4855-.1478,1.2289,1.2289,0,0,0,.5854-.8627,2.4052,2.4052,0,0,0-.0061-1.0674,1.36,1.36,0,0,0-.96-1.0812,1.6437,1.6437,0,0,0-.51-.0379,1.0984,1.0984,0,0,0-.9655.6021A1.5634,1.5634,0,0,0,51.6083,28.5511Z"/><path id="_Compound_Path_16" data-name="&lt;Compound Path&gt;" d="M48.777,26.9049c.2272,0,.4554-.013.6815.0029a.8348.8348,0,0,1,.7928.5587.98.98,0,0,1-.0788.8363,2.85,2.85,0,0,1-.3239.4271c-.0578.0654-.07.1142-.019.1786q.3054.384.6128.7665c.0438.0546.09.1077.1325.1629a1.3863,1.3863,0,0,0,.4421.3773.5172.5172,0,0,0,.2882.0827.3155.3155,0,0,1,.1162.0078c.0265.0083.0463.0379.0692.0578-.0263.0247-.0521.05-.0792.0738-.0048.0042-.0152.0032-.0229.0028a3.1723,3.1723,0,0,1-.6992-.0372.5673.5673,0,0,1-.3017-.1637c-.1883-.2182-.3763-.4371-.5563-.6621-.1163-.1455-.2166-.3039-.328-.4536a.3682.3682,0,0,0-.3742-.1868,2.9223,2.9223,0,0,1-.3231.02c-.0083.107-.0219.2141-.0236.3213-.0033.2115-.001.423.0015.6346a.84.84,0,0,0,.0166.1856c.0418.1746.05.1784.2316.1984a.2394.2394,0,0,1,.0913.0126.3709.3709,0,0,1,.073.08c-.03.0174-.0606.05-.0913.05q-.4935.0055-.9872-.0005c-.0288,0-.057-.0367-.0857-.0564.0263-.0265.0539-.0771.0788-.0758.1607.0083.2-.0868.2089-.22.0055-.0768.0292-.1531.0293-.23q.0034-1.2575.0012-2.5152a.82.82,0,0,0-.0047-.1406.2205.2205,0,0,0-.1819-.1891c-.0528-.0115-.1085-.01-.1613-.0213-.0181-.0041-.0308-.0315-.046-.0482.0149-.0124.029-.0339.045-.0354.0543-.0052.1094-.0044.1642-.0045q.3056,0,.6111,0Zm.0042.9674c0,.2113-.0011.4225,0,.6338.0013.2.0243.2242.2292.2338.1172.0053.2347.002.3521.0032a.4067.4067,0,0,0,.387-.2491,1.1628,1.1628,0,0,0,.0425-.9518.6419.6419,0,0,0-.5535-.44c-.1159-.0127-.2345,0-.3517-.0029-.0834-.0019-.1071.04-.1065.1156C48.7829,27.434,48.7814,27.6531,48.7812,27.8723Z"/><path id="_Path_9" data-name="&lt;Path&gt;" d="M69.9136,29.5013c0-.1569.0031-.3138-.001-.4706-.0042-.1667-.0306-.1955-.1938-.2389a.2469.2469,0,0,1-.0674-.0167,1.2155,1.2155,0,0,1-.1027-.08.3586.3586,0,0,1,.1172-.047c.29-.004.58-.002.8706-.0015a.2475.2475,0,0,1,.0927.0073c.0258.011.0436.04.065.0615a.2177.2177,0,0,1-.0531.0335c-.276.077-.249.0494-.2535.356-.0042.29,0,.5805-.0013.8708-.0015.2477-.0478.3184-.2814.3924a2.6637,2.6637,0,0,1-1.9368-.101,1.5579,1.5579,0,0,1-.8849-1.0616,1.7188,1.7188,0,0,1-.09-.5486,2.0741,2.0741,0,0,1,.3259-1.0805,1.67,1.67,0,0,1,1.2308-.72c.1077-.014.2147-.0372.3227-.042a4.5633,4.5633,0,0,1,1.0182.11c.0228.0041.0438.0174.0666.0214.068.0114.1747-.0019.1964.0352a.4749.4749,0,0,1,.032.2455c-.0057.1315-.0236.2627-.0412.3934-.0073.0537.0339.1262-.0444.1517a.35.35,0,0,1-.0668-.1318.6518.6518,0,0,0-.5036-.4985,2.1875,2.1875,0,0,0-1.0616-.0539,1.17,1.17,0,0,0-.96.964,1.8765,1.8765,0,0,0,.365,1.6308,1.4606,1.4606,0,0,0,.8669.5194,1.5983,1.5983,0,0,0,.7623-.0012c.1858-.05.2107-.0786.2127-.2753.0014-.1411,0-.2824,0-.4237Z"/><path id="_Compound_Path_17" data-name="&lt;Compound Path&gt;" d="M45.8384,26.9041c.2037,0,.4078-.0087.6109.0022a.7714.7714,0,0,1,.6016.3049.7608.7608,0,0,1,.0178.8576,1.02,1.02,0,0,1-.1035.1557c-.0491.0678-.1007.1336-.1513.2l.217.1254a.9813.9813,0,0,1,.524.8777.9372.9372,0,0,1-.4836.8295,1.206,1.206,0,0,1-.6885.1874c-.3367-.006-.6737-.0025-1.0106-.0036a.5734.5734,0,0,1-.1168-.0064.0687.0687,0,0,1-.0448-.0435c-.0031-.0175.0135-.0408.0263-.0581a.0581.0581,0,0,1,.039-.0241c.1858.0049.1939-.11.2117-.26.0767-.64.02-1.2809.0375-1.9211.0064-.2348.0028-.47-.0022-.705a1.7165,1.7165,0,0,0-.0352-.2283.2009.2009,0,0,0-.2254-.1885.2144.2144,0,0,1-.09-.0183c-.0185-.0086-.0294-.0334-.0437-.0508.0173-.0108.0345-.0308.052-.031C45.4,26.9034,45.619,26.9041,45.8384,26.9041Zm.5992,3.3446a.5851.5851,0,0,0,.66-.5926,1.8536,1.8536,0,0,0-.0143-.2041.9288.9288,0,0,0-.9993-.8893c-.124.0024-.1279.0044-.1285.1358q-.003.5752,0,1.1506c.0013.28.0467.3352.3189.39A1.1357,1.1357,0,0,0,46.4377,30.2486Zm-.21-1.8419a.4745.4745,0,0,0,.5172-.3117.8994.8994,0,0,0-.0876-.7631.5631.5631,0,0,0-.5116-.2735c-.15-.0044-.19.0448-.1908.1978q-.0029.4822,0,.9642c.0007.1283.036.1685.1552.1854A.8427.8427,0,0,0,46.2278,28.4068Z"/><path id="_Path_10" data-name="&lt;Path&gt;" d="M85.9661,28.2385c0-.3135.0013-.627,0-.9406-.0013-.2209-.032-.2555-.2441-.2907-.0306-.0051-.0622-.0052-.0919-.0133-.0114-.0032-.0282-.0249-.0259-.0334a.1069.1069,0,0,1,.034-.0512c.01-.0083.03-.0061.0457-.0061.2979,0,.5957-.0011.8935.0012.0247,0,.0492.022.0737.0338a.3571.3571,0,0,1-.0649.0613c-.0186.01-.0468.0022-.0691.0086-.1264.0356-.1555.08-.1713.2135a11.9021,11.9021,0,0,0-.0412,1.3571c-.0009.2037.0022.4076-.0029.6112a1.5746,1.5746,0,0,1-.2033.7114,1.0949,1.0949,0,0,1-.67.5186,1.5379,1.5379,0,0,1-1.2048-.0743,1.2347,1.2347,0,0,1-.6629-1.0344c-.07-.6558-.0273-1.3126-.04-1.9686-.0056-.2832-.0027-.2832-.2951-.3375-.0076-.0014-.0172,0-.0227-.0043-.0169-.013-.0322-.0281-.048-.0425.02-.0179.04-.0512.06-.0514q.5171-.0048,1.0343,0c.02,0,.04.0339.0605.0521-.0163.0141-.03.035-.0491.0412-.2628.0854-.2642.0849-.2648.3546-.001.5409-.0045,1.0817.0015,1.6225a2.9715,2.9715,0,0,0,.0507.5093,1.0138,1.0138,0,0,0,.43.6478.6222.6222,0,0,0,.3729.1187,1.1225,1.1225,0,0,0,.7123-.17.7839.7839,0,0,0,.3-.4039,2.3229,2.3229,0,0,0,.0989-.547C85.9776,28.8347,85.9661,28.5363,85.9661,28.2385Z"/><path id="_Path_11" data-name="&lt;Path&gt;" d="M34.6536,28.2409c0-.2978.0012-.5956,0-.8934-.0014-.274-.0143-.2861-.2977-.344-.0247-.005-.0447-.0326-.0668-.05.0216-.0167.0432-.0476.065-.0478q.4465-.0045.8932.0009c.02,0,.04.0338.06.052-.0161.0142-.0318.04-.0485.041-.1684.0078-.2282.1-.2289.2608-.0006.1309-.0342.2618-.0356.3929-.0051.4858.0055.972-.008,1.4575a2.1516,2.1516,0,0,1-.095.5476,1.25,1.25,0,0,1-1.1315.8315,1.7186,1.7186,0,0,1-.8439-.1366,1.216,1.216,0,0,1-.6639-1.0038,13.3312,13.3312,0,0,1-.0429-1.639c-.0032-.1174,0-.2351-.0009-.3527-.0029-.2928-.0034-.2919-.3027-.3557-.0237-.005-.0421-.0349-.0631-.0533.0234-.0152.0466-.0435.07-.0437q.5054-.0043,1.0109,0c.0248,0,.0494.0267.0741.0408-.0276.02-.0529.0508-.0834.0573-.1765.0377-.2272.0815-.2283.2593-.0042.6427-.0107,1.2854.0037,1.9277a1.2259,1.2259,0,0,0,.1627.6023.7939.7939,0,0,0,.7536.4569,2.0678,2.0678,0,0,0,.3691-.0383.8354.8354,0,0,0,.6259-.7091,3.3338,3.3338,0,0,0,.0515-.58C34.66,28.6957,34.6536,28.4681,34.6536,28.2409Z"/><path id="_Path_12" data-name="&lt;Path&gt;" d="M15.1172,28.2512c0-.3057.0015-.6113,0-.9169-.0016-.2591-.0245-.2828-.2873-.3292a.1141.1141,0,0,1-.0618-.0245.0552.0552,0,0,1,0-.0549.0962.0962,0,0,1,.0627-.0217q.4348-.0019.87,0a.0866.0866,0,0,1,.0443.01.0535.0535,0,0,1,.0246.0342.0471.0471,0,0,1-.0186.0377.3213.3213,0,0,1-.0648.02c-.1538.0459-.1635.0708-.1909.22a6.4032,6.4032,0,0,0-.0387,1.0517c-.0046.2742-.0041.5486-.0018.8228a1.7547,1.7547,0,0,1-.1013.571,1.2484,1.2484,0,0,1-1.12.8153,2.075,2.075,0,0,1-.5815-.0362,1.2107,1.2107,0,0,1-.9394-1.138c-.077-.6556-.0229-1.3125-.04-1.9685-.0075-.2854-.0042-.2855-.2937-.3394-.0077-.0013-.0173,0-.0228-.0042-.0173-.0128-.0329-.0276-.0493-.0417.02-.0182.0395-.0521.0595-.0522q.5171-.005,1.0342,0c.02,0,.04.0342.06.0525-.0165.0139-.0309.0354-.05.04-.2433.0641-.2619.0814-.2628.3234-.0021.6035-.0065,1.207.0022,1.81a1.31,1.31,0,0,0,.1838.6911.8042.8042,0,0,0,.7257.4287,1.08,1.08,0,0,0,.6433-.164.774.774,0,0,0,.3134-.4213,2.4349,2.4349,0,0,0,.0966-.5472c.0156-.289.0041-.58.0041-.87Z"/><path id="_Path_13" data-name="&lt;Path&gt;" d="M21.7569,28.2406c0-.306.0012-.612,0-.9179-.0013-.2575-.0184-.2761-.2673-.3164a.3622.3622,0,0,1-.0688-.0115c-.012-.0044-.0289-.0248-.0264-.033a.1086.1086,0,0,1,.0341-.0516.08.08,0,0,1,.0456-.0067c.2981-.0005.5961-.0014.8943.001.024,0,.0479.023.0719.0353-.0218.02-.0418.0562-.0654.0588-.08.0088-.168.0135-.2018.0939a.6041.6041,0,0,0-.0353.2262q-.0055.647-.0024,1.2944a5.0989,5.0989,0,0,1-.0859.8566,1.253,1.253,0,0,1-1.2932,1.0225,1.89,1.89,0,0,1-.5752-.0789,1.129,1.129,0,0,1-.76-.7936,1.7966,1.7966,0,0,1-.066-.46c-.0086-.4861-.0007-.9727-.0062-1.459-.0017-.1547-.0375-.3095-.0355-.4639.0019-.1431-.0783-.1948-.1916-.2253-.0633-.017-.1476.0132-.1688-.0852a1.51,1.51,0,0,1,.1819-.0231c.2667-.0026.5334-.0017.8-.0005a.9021.9021,0,0,1,.1389.012c.01.0015.0236.0213.0248.0337a.0536.0536,0,0,1-.0185.0381.1079.1079,0,0,1-.0417.0172c-.2039.059-.2479.0979-.25.2973-.0057.6039-.0093,1.2082.0021,1.8119a1.9645,1.9645,0,0,0,.0958.5254.8785.8785,0,0,0,.8246.6157,1.0884,1.0884,0,0,0,.5858-.1252.7749.7749,0,0,0,.3024-.3175,1.4939,1.4939,0,0,0,.1562-.63c0-.0313.0014-.0628.0015-.0941Q21.757,28.6641,21.7569,28.2406Z"/><path id="_Compound_Path_18" data-name="&lt;Compound Path&gt;" d="M23.9416,29.0659l-.5107.0324c-.0542.1533-.11.306-.1621.46s-.1013.3105-.15.4664c-.0644.2074-.0635.2076.1293.2876.0216.009.0509.0148.0613.0317a.0685.0685,0,0,1-.0027.0657.1472.1472,0,0,1-.0853.03c-.2822.0022-.5645.003-.8466-.0007-.0309,0-.0615-.0317-.0922-.0487.0236-.0277.0467-.0558.0712-.0827a.0294.0294,0,0,1,.0219-.0061c.29.0231.3656-.2011.4453-.4017.126-.3178.2326-.6432.3494-.9647.2364-.65.4726-1.3.7137-1.949a.7531.7531,0,0,1,.12-.1642.8021.8021,0,0,1,.117.1609c.1415.3537.2761.71.4129,1.0659.2262.5878.451,1.1761.679,1.7633a1.561,1.561,0,0,0,.1163.23c.0813.1366.17.2647.3576.259a.24.24,0,0,1,.1082.04.07.07,0,0,1,.0278.0482c.0012.01-.0178.0291-.03.032a.6729.6729,0,0,1-.137.02c-.2038.0015-.4077.0027-.6113-.0031a.6712.6712,0,0,1-.179-.0434c-.0115-.0037-.0251-.0451-.0205-.0491.1047-.09.0182-.1686-.0123-.25-.1142-.3058-.2326-.61-.3391-.9189-.0253-.0735-.0537-.1021-.1285-.1-.1409.0035-.2821.0011-.4232.0011Zm-.039-.2206,0-.0049c.11-.0024.2192,0,.3286-.0031s.1287-.0277.0948-.1259c-.1185-.3447-.24-.6883-.3613-1.0323-.005-.0145-.0115-.0286-.0173-.0428-.0179.0135-.0462.0235-.0521.041q-.1322.3975-.2589.7966c-.0369.1157-.07.2325-.1048.3488Z"/><path id="_Path_14" data-name="&lt;Path&gt;" d="M81.8552,30.4887a2.4031,2.4031,0,0,1-1.0633-.1808,1.6487,1.6487,0,0,1-.9826-1.0868,1.8545,1.8545,0,0,1-.0932-.6184,1.9622,1.9622,0,0,1,.303-.9931,1.6185,1.6185,0,0,1,1.2315-.7525,3.0178,3.0178,0,0,1,.5572-.0392c.3239.0261.6461.0785.9669.1328.1254.0213.1565.0634.1313.1763a3.29,3.29,0,0,0-.041.6293.1634.1634,0,0,1-.0126.0679.0972.0972,0,0,1-.0479.0463c-.01.0033-.0384-.0195-.0437-.0355a.6107.6107,0,0,1-.0395-.1565.4927.4927,0,0,0-.3082-.4546,1.7466,1.7466,0,0,0-1.1373-.1354,1.6266,1.6266,0,0,0-.295.0647,1.1973,1.1973,0,0,0-.7529.9935,2.3935,2.3935,0,0,0-.0416.2755,1.6949,1.6949,0,0,0,2.1257,1.7629.578.578,0,0,0,.438-.416c.0212-.0774.0283-.22.1108-.2015.1033.0241.0512.1618.0422.2466-.0138.13-.0555.2568-.079.386a.2438.2438,0,0,1-.1974.2031A2.2407,2.2407,0,0,1,81.8552,30.4887Z"/><path id="_Path_15" data-name="&lt;Path&gt;" d="M72.122,30.44q-.3647,0-.7295,0a.9.9,0,0,1-.164-.0063c-.0254-.0047-.0456-.0377-.0681-.0581.0158-.0141.03-.0379.0477-.0413.2265-.0438.2623-.2.2611-.4-.0049-.8628,0-1.7259-.0014-2.5888,0-.2863-.0033-.2863-.2918-.3409a.1328.1328,0,0,1-.0446-.0113c-.0119-.0074-.0283-.0259-.0257-.034.006-.0188.0209-.0474.0348-.049a1.6619,1.6619,0,0,1,.1876-.0079c.4237,0,.8474.0038,1.271,0a3.1669,3.1669,0,0,0,.3693-.0379c.0714-.0091.1076.0187.1013.0888-.0138.1546-.0287.3092-.0509.4628-.0047.0322-.0433.0595-.0663.0891-.0233-.0291-.0587-.0552-.0674-.0881-.0188-.0726.0156-.1693-.0744-.208a.91.91,0,0,0-.245-.0621c-.1617-.02-.3244-.0356-.4873-.042-.1318-.0053-.1364.0018-.1372.1265-.0024.353.001.7061-.002,1.0591-.0009.0888.0278.1274.1208.1254.2117-.0047.424.0031.6354-.006a.54.54,0,0,0,.19-.0686c.0611-.0287.0924-.0073.0926.052.0005.0936-.0063.1873-.0148.2806a.9135.9135,0,0,1-.0287.136c-.0172.0684.0454.1592-.0565.2043-.0244-.0614-.0484-.1229-.0736-.1839a.21.21,0,0,0-.1452-.1363,2.3357,2.3357,0,0,0-.6526-.0353c-.0649-.0014-.066.0536-.0661.1018q0,.2236,0,.4472c0,.2354-.0032.4707.0017.7061.0045.2111.0741.28.2838.286.141.0045.2825.0051.4236,0,.2534-.01.32-.0615.4062-.3043a.3967.3967,0,0,1,.0172-.0677c.01-.0167.0338-.0373.049-.0355a.0615.0615,0,0,1,.0413.0443q-.0024.1752-.015.35c-.0027.0381-.0228.0749-.0265.113-.0106.1089-.0752.1449-.1758.1444-.2745-.0014-.5492,0-.8238,0Z"/><path id="_Path_16" data-name="&lt;Path&gt;" d="M97.873,30.44h-.7295a.45.45,0,0,1-.1171-.0016.6233.6233,0,0,1-.1169-.0606c.0322-.0265.06-.0653.0973-.0774.1543-.0506.1918-.0867.207-.2352a1.6218,1.6218,0,0,0,.0032-.1646q0-1.2707,0-2.5413c0-.0391.0024-.0786-.0013-.1175a.222.222,0,0,0-.2144-.234c-.0382-.0075-.0793-.0027-.116-.0136-.0152-.0044-.0265-.0344-.0315-.0549-.0018-.0075.0189-.0289.03-.03q.0935-.0075.1877-.0075c.3921,0,.7844.0049,1.1765-.0005.1547-.0021.3091-.0265.4635-.0412.0831-.0079.1151.0275.1028.1095-.0148.0993-.0272.199-.0389.2989a.547.547,0,0,1-.0083.1166.6331.6331,0,0,1-.07.1157.496.496,0,0,1-.0668-.1132c-.0555-.2027-.0858-.2294-.283-.2427-.1783-.0121-.3564-.0272-.5344-.043-.09-.008-.1253.0274-.1244.12.0035.3608.0029.7216.0006,1.0824,0,.0809.0317.1114.1114.11.22-.0032.4392-.0012.6588-.0036a.3209.3209,0,0,0,.1138-.0206c.1629-.0645.166-.0657.1531.111-.0114.1548-.0312.3092-.0507.4633a.0658.0658,0,0,1-.0408.0459c-.0139.0025-.0334-.0215-.0489-.0355-.0047-.0044-.0032-.0151-.0062-.0222-.0327-.0774-.045-.1891-.1034-.2241a.7.7,0,0,0-.3136-.07c-.1471-.0079-.2954.0061-.4432.0106-.01.1455-.0183.2913-.03.4367s-.0388.2936-.0375.44c.0014.1625.0274.3249.0425.4873a.1759.1759,0,0,0,.18.1556c.218.0108.4373.0005.6559-.0086.1507-.0063.2038-.1232.2534-.2424a.526.526,0,0,1,.0822-.1426c.0881.0336.0515.1176.0474.18a2.7868,2.7868,0,0,1-.0525.3685.128.128,0,0,1-.1421.0979c-.1333,0-.2666.0009-.4.0011q-.2236,0-.4471,0Z"/><path id="_Path_17" data-name="&lt;Path&gt;" d="M78.2748,30.441q-.3647,0-.7294,0a.8654.8654,0,0,1-.1405-.0068.0657.0657,0,0,1-.042-.0459c-.0019-.018.0178-.0388.03-.0574a.03.03,0,0,1,.0189-.0132c.1962-.0146.2092-.1453.23-.308.0725-.5781.0187-1.157.0349-1.7349.0073-.2587.0041-.5178,0-.7765-.0015-.0843-.0319-.1683-.0314-.2524.0006-.1616-.0958-.2167-.2324-.2389a.3183.3183,0,0,1-.09-.0207c-.0181-.0089-.0281-.0344-.0416-.0525.0187-.01.0372-.0282.0561-.0286.1332-.0029.2666-.0022.4-.0022.3765,0,.753.0027,1.1294,0a1.6012,1.6012,0,0,0,.253-.0317c.099-.0168.1266.001.12.1089-.0052.0846-.03.1677-.0417.252-.0108.0766-.0151.1541-.0256.2309-.0016.0115-.0235.03-.0327.0288-.0164-.0032-.0422-.0183-.0435-.03-.03-.2969-.2317-.3266-.4722-.32a3.5482,3.5482,0,0,1-.4165-.0373c-.07-.0063-.0972.0292-.0969.0976.0011.3686.0018.7373-.0007,1.1059-.0005.0829.035.1093.1129.1081.22-.003.44.0051.6586-.0065a.7548.7548,0,0,0,.2095-.084.07.07,0,0,1,.0973.0667c-.0137.1547-.0281.3092-.0461.4635a.3714.3714,0,0,1-.0372.11c-.0079.0169-.0343.0422-.0416.039a.0955.0955,0,0,1-.0476-.0474c-.0252-.0634-.0263-.1521-.0711-.1886a.4988.4988,0,0,0-.2505-.1054c-.1631-.0169-.3289-.005-.4935-.0073-.075-.0011-.0906.0408-.09.1049.0016.3922-.0015.7843.0035,1.1765a.2509.2509,0,0,0,.2651.2626c.1488.0055.298.0044.4471.0014.2524-.0049.3386-.0771.4107-.3282a.3421.3421,0,0,1,.058-.0868c.0273.034.08.07.0774.1017a1.7677,1.7677,0,0,1-.0575.39c-.0507.167-.099.1712-.2386.1684-.2667-.0051-.5335-.0015-.8-.0015Z"/><path id="_Path_18" data-name="&lt;Path&gt;" d="M74.6087,34.9136c-.2509,0-.5016.0006-.7525-.0005a.5153.5153,0,0,1-.1378-.015c-.0117-.0033-.02-.0508-.0136-.0739a.0691.0691,0,0,1,.0519-.0415c.2391.0088.2055-.1922.2438-.3267a.97.97,0,0,0,.0064-.2576q0-1.1524,0-2.3048a1.1681,1.1681,0,0,0-.0038-.1644.2641.2641,0,0,0-.2583-.25.352.352,0,0,1-.09-.0189c-.0184-.0084-.0294-.0333-.0438-.0507.0172-.0109.034-.03.0518-.0312.0783-.0041.1567-.0036.235-.0035.4,0,.8.004,1.1993,0a3.2619,3.2619,0,0,0,.3694-.0369c.0927-.0117.1243.0159.1125.1132-.0195.1619-.04.3237-.0643.4849a.0615.0615,0,0,1-.0444.04c-.0154,0-.0358-.024-.0439-.042a.5585.5585,0,0,1-.01-.0691.278.278,0,0,0-.2945-.2464c-.178-.0146-.3559-.03-.5341-.0425-.1022-.0074-.1449.0265-.146.1336q-.0055.5409,0,1.0819c.0012.1122.0273.1385.1446.1341.2409-.009.4814-.0289.7221-.045a.1412.1412,0,0,0,.0446-.0125c.0467-.02.093-.0412.1394-.0619.0011.0586.005.1173.0021.1756-.0043.0854-.0146.1706-.02.256a.9729.9729,0,0,1-.0079.1636c-.0076.0308-.046.0541-.0706.0807-.02-.023-.0589-.0474-.0572-.0686.0188-.24-.1656-.2589-.3212-.28a3.9464,3.9464,0,0,0-.4932-.0066c-.0592,0-.0838.0293-.0837.0862.0005.392-.005.784.0031,1.1758a.2631.2631,0,0,0,.2818.281,4.5341,4.5341,0,0,0,.5171-.0014.3306.3306,0,0,0,.3211-.282.3879.3879,0,0,1,.0439-.1053c.0091-.0139.04-.0184.06-.0184a.0444.0444,0,0,1,.0313.03.6591.6591,0,0,1,.0038.14c-.01.0923-.0291.1835-.041.2756a.1993.1993,0,0,1-.23.2059c-.2743.0034-.5488.001-.8232.001Z"/><path id="_Path_19" data-name="&lt;Path&gt;" d="M17.5719,28.6156c0,.4-.0032.8.0021,1.2.0015.1155.03.23.0419.346.01.0988.0664.1327.1582.134a1.0928,1.0928,0,0,1,.1849.018c.0143.0028.0314.0366.0313.056a.0728.0728,0,0,1-.0325.056.2206.2206,0,0,1-.0906.0148q-.4708.0011-.9414,0a.1265.1265,0,0,1-.0466-.0037c-.02-.0086-.0537-.025-.0526-.035.003-.0271.0194-.0738.0335-.075.2267-.02.2157-.1788.2442-.35a5.013,5.013,0,0,0,.0319-.7948c.005-.6276.0024-1.2553.0011-1.8829,0-.15-.0034-.1523-.1576-.1533-.204-.0015-.4079.0013-.612.0013a.3882.3882,0,0,0-.3987.2286.2706.2706,0,0,1-.0554.0737.047.047,0,0,1-.0414.0122.0872.0872,0,0,1-.0422-.0462.2327.2327,0,0,1,.002-.0929c.0146-.0682.0307-.1364.0519-.2027.03-.0952.0406-.229.107-.2707.0607-.0383.1842.0269.281.0405a1.5329,1.5329,0,0,0,.21.0129c.6355.001,1.2711.0025,1.9066-.0013a2.6368,2.6368,0,0,0,.2989-.0413c.0494-.0061.1029.0036.1038.065.0029.18,0,.36-.0047.54,0,.0153-.0287.0406-.0451.0417s-.033-.0237-.0484-.0385a.0384.0384,0,0,1-.0094-.0213c-.0357-.2577-.24-.2806-.4341-.2966-.1871-.0155-.3765,0-.5646-.0068-.1-.0035-.1161.0463-.1158.1292.0019.4473.0009.8945.0009,1.3418Z"/><path id="_Path_20" data-name="&lt;Path&gt;" d="M93.5051,28.5971c0,.4078-.0026.8157.0018,1.2234a1.4969,1.4969,0,0,0,.04.2987c.036.1652.04.1645.212.1769a.4251.4251,0,0,1,.1161.0106.0864.0864,0,0,1,.046.0675c-.0016.0221-.0334.0445-.0558.0615-.01.0081-.03.0052-.0458.0052q-.4823,0-.9646,0a.1144.1144,0,0,1-.0464-.0043c-.0192-.0094-.0512-.0279-.05-.038.0043-.0269.0213-.072.0374-.0738.2018-.0234.2409-.15.2377-.3281-.0029-.1544.034-.309.035-.4638.0047-.7135.003-1.4273.0035-2.141,0-.0549-.0007-.11-.0006-.1647,0-.06-.034-.0811-.0893-.0807-.251.0011-.5019-.0007-.7528.0032a.3641.3641,0,0,0-.2773.1558c-.0341.042-.059.0916-.0935.1334a.0713.0713,0,0,1-.06.0213c-.0163-.0045-.04-.0357-.0367-.05.0416-.18.0852-.3607.1357-.5387a.0968.0968,0,0,1,.0869-.0361,2.26,2.26,0,0,0,.7659.0678c.494.0009.9881.0027,1.4822-.0016a2.5261,2.5261,0,0,0,.3459-.0382c.1108-.0163.1484.0051.15.1133.003.1567,0,.3136-.0058.47-.001.0219-.0345.0426-.0529.0637a.2188.2188,0,0,1-.0451-.0467.5524.5524,0,0,1-.0417-.1089.2247.2247,0,0,0-.1771-.164,2.0122,2.0122,0,0,0-.5814-.0451c-.32-.0017-.32,0-.32.3212Z"/><path id="_Path_21" data-name="&lt;Path&gt;" d="M72.0856,33.102q0,.6235,0,1.2471a1.11,1.11,0,0,0,.0066.1879c.0327.1868.0612.2083.2541.2334a.4266.4266,0,0,1,.13.0419c.0136.0067.0186.04.0189.0605,0,.0108-.0174.0286-.03.0313a.4217.4217,0,0,1-.0928.009q-.4589.001-.9177,0a.1224.1224,0,0,1-.0466-.0018c-.0258-.0117-.0651-.0259-.069-.045-.0043-.0213.0229-.07.04-.0712.2279-.0216.2187-.1815.2347-.3532.0833-.8915.0149-1.7844.0365-2.6763.0034-.1429-.0033-.1459-.1394-.147-.2118-.0018-.4237,0-.6354.0016a.3831.3831,0,0,0-.3943.2336.09.09,0,0,1-.0244.0395.6842.6842,0,0,1-.0775.0421c-.0136-.0328-.0413-.0672-.038-.0982a1.5015,1.5015,0,0,1,.0522-.2741.4961.4961,0,0,1,.1137-.247c.0456-.0344.1564.0189.2385.0308a1.6581,1.6581,0,0,0,.2308.0274q.9646.0034,1.9295,0a1.5338,1.5338,0,0,0,.2519-.0371c.1109-.0194.1481.0035.15.1118.0031.149.0017.2982-.0067.4468-.0017.03-.0446.0565-.0685.0846-.02-.0228-.058-.0454-.0581-.0683-.0014-.263-.2131-.2645-.38-.2849a5.994,5.994,0,0,0-.6111-.0094c-.0888-.0017-.1012.0477-.1007.1192.0015.2824,0,.5648,0,.8471v.5178Z"/><path id="_Path_22" data-name="&lt;Path&gt;" d="M32.7779,33.0654c0,.3919-.0035.7838.0022,1.1756a2.027,2.027,0,0,0,.0458.3686c.0273.1358.05.1479.1872.1587a1.3086,1.3086,0,0,1,.1615.0182c.0188.004.049.0353.0459.0457a.1408.1408,0,0,1-.05.0675.1232.1232,0,0,1-.0674.0132c-.3291.0006-.6583.0017-.9874-.0021-.03,0-.0591-.0341-.0888-.0523.0248-.0272.0506-.0787.0744-.0778.1779.0064.2028-.1023.2067-.2435.0028-.1.0349-.1993.0353-.299.0031-.8072.0019-1.6144.002-2.4216,0-.0392-.0007-.0785-.0009-.1176,0-.06-.035-.08-.09-.08-.2509.0013-.5017-.0006-.7524.0041a.3613.3613,0,0,0-.2767.1561c-.0337.0423-.0585.0919-.0928.1338a.0706.0706,0,0,1-.06.0205c-.0164-.0048-.04-.0357-.0364-.05.0379-.1735.0781-.3467.1224-.5187.0165-.0631.0518-.0783.1233-.0519a1.617,1.617,0,0,0,.5772.0646c.5094-.0032,1.0188.0021,1.5281-.0031.1624-.0016.3246-.025.4867-.04.07-.0063.1283.001.1281.09,0,.1645,0,.3291-.0051.4935-.0007.0219-.0333.0429-.051.0643-.0148-.0152-.0406-.0291-.0426-.0459-.0286-.2421-.2149-.2929-.4037-.31-.21-.0192-.4228-.0061-.6343-.0075-.0564,0-.0878.0234-.0871.0831.0006.0549-.0005.11-.0005.1645v1.199Z"/><path id="_Path_23" data-name="&lt;Path&gt;" d="M30.5409,26.904q.3647,0,.73,0a1.31,1.31,0,0,0,.188-.0061c.1918-.0283.1968-.03.1858.1509-.0086.1392-.0313.2778-.0516.4162a.0618.0618,0,0,1-.0447.04c-.0156,0-.0314-.0257-.0454-.0414-.0046-.0052-.0032-.0152-.006-.0225-.1092-.2884-.1139-.2921-.4183-.2949-.18-.0015-.3609,0-.5413-.0027-.0766-.0014-.1147.0229-.1141.1068.0025.353-.0014.7061.0022,1.059.0013.1253.023.1484.1583.1441.249-.0076.4977-.0272.7464-.0431a.206.206,0,0,0,.0662-.0206c.0439-.0192.0768-.1082.131-.0417.0226.0277-.01.0981-.0125.1493-.0058.1487-.0068.2977-.0148.4464-.0014.0256-.0271.05-.0415.0745-.0291-.021-.0816-.04-.0834-.0633-.0234-.2872-.236-.2911-.4426-.2993-.1409-.0057-.2824,0-.4237-.0007-.0587,0-.0845.0284-.0844.0858.001.4,0,.8.004,1.2a1.0882,1.0882,0,0,0,.04.1815.185.185,0,0,0,.1881.173c.0816.0031.2034-.0006.1953.0938-.0073.0837-.1324.05-.2068.0509-.2666.0032-.5334.0013-.8.0012a.3957.3957,0,0,1-.0937-.0025.32.32,0,0,1-.0751-.0417.5108.5108,0,0,1,.0642-.0858.1151.1151,0,0,1,.0668-.015c.0984-.0036.1345-.0586.1406-.1513.0112-.1706.0407-.3406.0419-.5109.0049-.7374.0021-1.4749.0019-2.2124a1.17,1.17,0,0,0-.0041-.1645.2639.2639,0,0,0-.258-.2509.361.361,0,0,1-.09-.0188c-.0185-.0084-.0294-.0334-.0437-.0508.0172-.011.0345-.0312.0519-.0313C29.9448,26.9035,30.2428,26.9041,30.5409,26.904Z"/><path id="_Path_24" data-name="&lt;Path&gt;" d="M100.14,30.5079c-.1455-.0223-.2929-.0368-.4362-.0688-.2293-.0511-.2854-.1568-.2472-.3882.0214-.13.0152-.2648.0252-.3971a.0661.0661,0,0,1,.0386-.0484.0608.0608,0,0,1,.05.0313,1.75,1.75,0,0,1,.05.1794.5245.5245,0,0,0,.4584.4331.9436.9436,0,0,0,.3166.0089.6149.6149,0,0,0,.35-1.0176,5.9259,5.9259,0,0,0-.4317-.4261c-.1756-.1667-.3646-.32-.5293-.4971a.9761.9761,0,0,1-.0745-1.1328.9063.9063,0,0,1,.5025-.3223,1.0322,1.0322,0,0,1,.6212-.0142,1.7848,1.7848,0,0,0,.2975.0524.0914.0914,0,0,1,.0885.1125c-.0143.1624-.0279.3249-.0448.487-.002.02-.0221.0377-.0337.0565-.0209-.0181-.05-.0323-.06-.0551a.5889.5889,0,0,1-.0241-.1138.4277.4277,0,0,0-.404-.3312,1.2391,1.2391,0,0,0-.3052-.0029.4979.4979,0,0,0-.4213.61,1.0569,1.0569,0,0,0,.4443.5561,5.03,5.03,0,0,1,.6788.6109,1.0437,1.0437,0,0,1-.0292,1.3528.9886.9886,0,0,1-.69.3058c-.0627.0012-.1255,0-.1882,0Z"/><path id="_Path_25" data-name="&lt;Path&gt;" d="M75.0008,29.9606c0-.1018-.0019-.2036.0017-.3053.0006-.0183.026-.0522.0354-.0507.0273.0044.0676.0175.0749.0374a.5924.5924,0,0,1,.0291.1579.4689.4689,0,0,0,.29.3953.8557.8557,0,0,0,.61.0449.5742.5742,0,0,0,.37-.4678.8232.8232,0,0,0-.3565-.7634c-.2377-.19-.4585-.4016-.6768-.6139a.952.952,0,0,1-.2815-.8791.809.809,0,0,1,.6044-.6508,1.7182,1.7182,0,0,1,.9426.0321c.0784.0188.1047.0562.0978.1295-.0152.1621-.03.3244-.0463.4865-.0013.0126-.0142.0325-.0241.0339a.0467.0467,0,0,1-.0392-.02.7658.7658,0,0,1-.0566-.15c-.0469-.2247-.2247-.2855-.412-.3212a1.1494,1.1494,0,0,0-.3049-.0021.4974.4974,0,0,0-.413.5972.9507.9507,0,0,0,.4357.5609c.22.1645.4135.3562.6178.5372a1.0888,1.0888,0,0,1,.1143,1.3519.9921.9921,0,0,1-.6509.3751,1.4836,1.4836,0,0,1-.83-.0734c-.0938-.04-.1436-.0817-.14-.1837.0033-.0861.0007-.1724.0007-.2586Z"/><path id="_Path_26" data-name="&lt;Path&gt;" d="M45.48,34.8221a.2353.2353,0,0,1-.1962.0956c-.5805-.0048-1.1612-.0034-1.7416-.0042a.1682.1682,0,0,1-.07-.0038.6428.6428,0,0,1-.09-.0652c.0277-.0238.0515-.059.0835-.07.19-.0636.2186-.0941.2238-.2911s.0043-.3921.0042-.5883q0-1.0472-.0022-2.0947c-.0009-.27-.0087-.276-.2843-.3224-.0155-.0027-.0358.0005-.0454-.0082a.1156.1156,0,0,1-.0323-.0547c-.0019-.0082.0163-.0277.0286-.0318a.2287.2287,0,0,1,.07-.0083c.3375,0,.6747-.001,1.0121.0011a.2622.2622,0,0,1,.08.0293c-.02.022-.0372.0572-.0616.0636-.0876.0226-.208-.0157-.25.0908a.8343.8343,0,0,0-.0417.2949q-.0035,1.1768.0018,2.3535a2.223,2.223,0,0,0,.0309.2532.2262.2262,0,0,0,.2417.2074c.2036.01.4082.01.6118.0014a.3857.3857,0,0,0,.34-.2506c.02-.0418.0259-.09.0468-.1311.0129-.0253.042-.0423.0639-.063.0108.0259.0323.0525.03.0774-.0129.17-.0309.34-.0472.51Z"/><path id="_Path_27" data-name="&lt;Path&gt;" d="M60.3569,33.12q0-.6235,0-1.2468c0-.3236-.0006-.323-.3146-.4-.0188-.0047-.0334-.0266-.05-.0406.0194-.0185.0357-.0456.0587-.0535a.2934.2934,0,0,1,.0934-.0046q.341,0,.6821.0007c.1019,0,.2039-.0005.3057.003.0172.0006.0337.0209.05.0321-.0143.0174-.026.0454-.0437.05-.0444.0121-.0922.0109-.1375.02a.1867.1867,0,0,0-.1683.1912c-.0038.0388-.0028.0783-.0028.1175q.0006,1.2115.0018,2.4232c0,.047.0027.0941.0015.1411a.2963.2963,0,0,0,.3211.32c.1723-.0051.3451.0026.5174-.0016a.3746.3746,0,0,0,.3852-.2789.3171.3171,0,0,1,.0381-.0852.8091.8091,0,0,1,.0742-.0829.3.3,0,0,1,.03.1018,4.2393,4.2393,0,0,1-.0542.4388c-.0246.1236-.0632.148-.1984.1482-.4156.0011-.8312-.002-1.2468-.0028-.1569,0-.3137.0026-.47.0012a.5517.5517,0,0,1-.1375-.0183.0708.0708,0,0,1-.0425-.05c-.0014-.017.021-.0383.0369-.0534a.1087.1087,0,0,1,.0425-.0181c.1919-.06.2231-.0914.2249-.288.0041-.4548.0013-.91.0013-1.3644Z"/><path id="_Path_28" data-name="&lt;Path&gt;" d="M26.9092,30.4408q-.4,0-.7991,0a1.1588,1.1588,0,0,1-.1637-.0075c-.0158-.0024-.0319-.03-.04-.05-.0041-.01.0074-.0293.0165-.0406a.0666.0666,0,0,1,.0376-.0266c.2007-.0136.209-.1494.2247-.31.0807-.8354.0173-1.6724.036-2.5083.0018-.0837-.0322-.168-.0317-.2518.001-.1613-.0947-.2171-.2316-.239a.33.33,0,0,1-.09-.02c-.0181-.0086-.0283-.0341-.042-.0521.0179-.01.0356-.03.0536-.03.36-.0013.72-.0013,1.0806.0024.0192,0,.038.036.0569.0553A.183.183,0,0,1,26.9648,27c-.03.0076-.0628.002-.0932.0079a.2177.2177,0,0,0-.2129.2336c-.0052.0623-.0028.1253-.0028.188,0,.7442-.0006,1.4885.0036,2.2326a1.59,1.59,0,0,0,.0447.3216c.035.1613.09.2083.258.2142.1956.0066.3916.0015.5874.0027a.3048.3048,0,0,0,.3121-.2c.0293-.0719.0554-.145.0879-.2153a.0643.0643,0,0,1,.0534-.0306c.0188.0036.0472.0283.0478.045a1.2543,1.2543,0,0,1-.1075.5845c-.0172.0371-.1076.0554-.1647.0565-.29.0056-.58.0026-.8695.0026Z"/><path id="_Path_29" data-name="&lt;Path&gt;" d="M63.1135,34.9136c-.1409,0-.2819.001-.4229-.0005a.6987.6987,0,0,1-.1387-.0125.0824.0824,0,0,1-.0482-.0456c-.0037-.0091.0184-.0335.0335-.0448a.1409.1409,0,0,1,.0628-.031c.1618-.019.1947-.137.2015-.268.007-.1328.0042-.2662.0042-.3994q0-1.163-.0011-2.3261c0-.2388-.0028-.2378-.25-.31-.0248-.0073-.0438-.0336-.0657-.0511.0226-.0163.0448-.0466.0674-.0467.3288-.0022.6577-.0009.9865.0021.0129,0,.0306.024.0362.04.0029.0082-.0153.0248-.0254.0361a.0516.0516,0,0,1-.02.0113c-.2526.0952-.254.0951-.2542.3534q-.0011,1.2334,0,2.4671c0,.0783-.002.1569.004.2348.0134.1764.0658.2282.24.2463.0233.0025.0518-.0056.0693.0051a.89.89,0,0,1,.1015.0821c-.0368.0191-.073.0531-.11.0546C63.427,34.917,63.27,34.9135,63.1135,34.9136Z"/><path id="_Path_30" data-name="&lt;Path&gt;" d="M42.3356,33.05c0,.3133-.0055.6267.0018.94.0047.2017.0261.4029.0435.6041a.1759.1759,0,0,0,.1623.1713c.0864.0122.2316-.0045.2184.0934-.0136.1-.1615.05-.25.0526-.2348.0063-.47.0022-.7048.0019a1.5863,1.5863,0,0,1-.1642-.0046c-.0194-.002-.0534-.0249-.0521-.0341a.25.25,0,0,1,.0352-.0783.0265.0265,0,0,1,.02-.0115c.2428.0028.2224-.1948.2509-.3435a1.6351,1.6351,0,0,0,.005-.3048q0-1.14,0-2.2793c0-.0312.0009-.0627,0-.0939-.0071-.198-.0349-.2295-.2346-.2869-.03-.0088-.0546-.0394-.0817-.06.0249-.0139.05-.0395.0749-.04q.4581-.0042.9162,0c.025,0,.05.0256.0747.0394-.0194.02-.0376.0558-.0581.0569a.2054.2054,0,0,0-.22.2208c-.0055.1-.0343.199-.0356.2988C42.3327,32.3453,42.3356,32.6979,42.3356,33.05Z"/><path id="_Path_31" data-name="&lt;Path&gt;" d="M69.6848,33.075q0,.6108,0,1.2217a.9429.9429,0,0,0,.004.1641.8921.8921,0,0,0,.0648.2459c.0479.0951.1533.05.2344.0645.0151.0027.0351.0027.0438.0122a.9963.9963,0,0,1,.0648.0851c-.0244.0146-.0488.042-.0735.0422q-.5049.0042-1.01,0c-.0258,0-.0513-.0252-.0771-.0387.02-.0294.0376-.0831.0593-.0846.1918-.0137.2021-.1416.2166-.2932.0845-.882.0155-1.7656.0374-2.6482a.59.59,0,0,0-.02-.1376c-.0282-.1311-.08-.2356-.2419-.2354-.0284,0-.0569-.0421-.0855-.0648a.3529.3529,0,0,1,.1-.0325c.29-.0026.5795-.0016.8692-.0014a.2673.2673,0,0,1,.07.0038A.2746.2746,0,0,1,70,31.4113c-.0175.0211-.0312.0542-.0533.0614-.2541.0809-.26.0847-.261.3337C69.6837,32.2293,69.6848,32.6522,69.6848,33.075Z"/><path id="_Path_32" data-name="&lt;Path&gt;" d="M95.6849,30.4406c-.1647,0-.3293.0016-.494-.0017-.0265-.0005-.0525-.0241-.0788-.0368.019-.03.0317-.07.0588-.087.0309-.0188.08-.0072.1115-.0253a.1913.1913,0,0,0,.0912-.0924,1.1628,1.1628,0,0,0,.05-.2975q.0058-1.2938.0017-2.5877c0-.2233-.0151-.2342-.261-.3117-.0225-.0071-.037-.0394-.0553-.06.0185-.0118.037-.0336.0555-.0337q.4822-.0024.9641.0017a.06.06,0,0,1,.043.0414.0676.0676,0,0,1-.0375.0484c-.07.03-.1752.0344-.2055.0852a.6046.6046,0,0,0-.0654.29c-.0068.3841-.0028.7684-.0028,1.1527,0,.3372-.005.6745.0018,1.0116.0042.194.0243.3877.0436.5811.0109.1095.0638.1577.1833.175.08.0117.2112-.0012.1993.0913-.0125.096-.1463.05-.2275.0542-.1251.0061-.2509.0017-.3763.0017Z"/><path id="_Path_33" data-name="&lt;Path&gt;" d="M58.2962,33.2425a2.6475,2.6475,0,0,1-.7207,1.7979c-.0994.1-.1986.2007-.3026.296-.0221.02-.0649.0176-.0982.0257a.48.48,0,0,1,.0218-.1034.3814.3814,0,0,1,.0645-.0965,2.4746,2.4746,0,0,0,.5536-1.1933,3.7269,3.7269,0,0,0-.0114-1.4422,2.3422,2.3422,0,0,0-.5525-1.12.8319.8319,0,0,1-.0954-.1034.2708.2708,0,0,1-.0166-.0985c.0361.0031.0842-.0078.1067.0113a2.7646,2.7646,0,0,1,.694.78,2.1342,2.1342,0,0,1,.312.9693A1.6761,1.6761,0,0,0,58.2962,33.2425Z"/><path id="_Path_34" data-name="&lt;Path&gt;" d="M30.6292,31.1938c.0066.0257.0229.0525.0154.0654a1.5069,1.5069,0,0,1-.1166.1749,2.874,2.874,0,0,0-.5865,1.45,3.5027,3.5027,0,0,0,.1825,1.5785,2.2875,2.2875,0,0,0,.3886.66c.0591.0776.1086.1626.1626.2442-.1323.0463-.2051-.0649-.2757-.1285a2.5707,2.5707,0,0,1-.3333-3.5171,4.8917,4.8917,0,0,1,.4938-.502C30.5743,31.2051,30.6013,31.2036,30.6292,31.1938Z"/></g></svg>