<svg id="Layer_1" data-name="Layer 1" xmlns="http://www.w3.org/2000/svg" viewBox="0 0 20 20"><defs><style>.cls-1{fill:#5d6162;}</style></defs><title>fb-rollover</title><g id="_2ykZEb" data-name="2ykZEb"><path class="cls-1" d="M9.9472,16.2141H5.2834c-.0482-.016-.0958-.0337-.1445-.0478a1.4632,1.4632,0,0,1-1.0046-.8955c-.0408-.1013-.07-.2071-.105-.3108q0-4.6247,0-9.2493c.02-.0609.0414-.1213.06-.1826a1.4529,1.4529,0,0,1,.7956-.9294,3.9587,3.9587,0,0,1,.3986-.1421h9.2493c.0418.0149.0827.0329.1254.0443a1.4623,1.4623,0,0,1,1.0249.8987c.0416.1009.07.2073.1038.3112V14.96c-.02.0609-.041.1215-.0595.1829a1.4514,1.4514,0,0,1-.7959.9292,3.99,3.99,0,0,1-.3987.1421h-2.43c-.0032-.0389-.0092-.0779-.0093-.1168q-.0008-1.9586,0-3.9172c0-.0512.0075-.1024.0139-.1829h1.5185v-1.842H12.1046c0-.3734-.0083-.725.0033-1.076a.2883.2883,0,0,1,.3163-.2824c.2607-.01.522-.0077.783-.01.14-.0011.28,0,.4194,0V6.7162c-.4769,0-.94-.0095-1.4018.0024a2.1784,2.1784,0,0,0-1.4923.6416,2.5916,2.5916,0,0,0-.7809,1.9215c-.0035.2856-.0006.5713-.0006.881H8.5565v1.839H9.9472Z"/></g></svg>