<svg id="Layer_1" data-name="Layer 1" xmlns="http://www.w3.org/2000/svg" xmlns:xlink="http://www.w3.org/1999/xlink" viewBox="0 0 110 40"><defs><style>.cls-1{fill:#010101;}.cls-2{clip-path:url(#clip-path);}.cls-3{clip-path:url(#clip-path-2);}.cls-4{clip-path:url(#clip-path-3);}.cls-5{clip-path:url(#clip-path-4);}.cls-6{clip-path:url(#clip-path-5);}.cls-7{fill:#96979b;}.cls-8{fill:#fff;}.cls-9{fill:#4c4b4c;}.cls-10{fill:#231f20;}</style><clipPath id="clip-path"><path id="_Clipping_Path_" data-name="&lt;Clipping Path&gt;" class="cls-1" d="M4.4184,16.5987a2.9251,2.9251,0,0,0-2.7146,1.61l.0329,9.6635c3.3347.133,4.8991-.6371,5.0126-2.1846l-.0175-2.2089,6.9891.003c1.8153-.2721,3.37-.65,3.5945-2.5135l-10.5546.028-.031-1.98,10.18-.03c1.7864-.141,3.1605-.7089,3.1048-2.4186Z"/></clipPath><clipPath id="clip-path-2"><path id="_Clipping_Path_2" data-name="&lt;Clipping Path&gt;" class="cls-1" d="M25.3413,16.5667a3.996,3.996,0,0,0-3.4074,2.0348l.029,7.3093c.4189,1.2448,1.943,1.7934,4.0468,1.95l11.9178.0006c2.615-.0469,4.0681-.816,4.1239-2.4455l-15.1057-.0049.036-1.9411,10.9105.0026c2.5351-.1318,4.09-.9043,4.1935-2.4668L26.9492,21.004l.036-1.9656,15.0629-.0268c-.0361-1.3029-1.0911-2.1657-3.4575-2.4435Z"/></clipPath><clipPath id="clip-path-3"><path id="_Clipping_Path_3" data-name="&lt;Clipping Path&gt;" class="cls-1" d="M43.9459,16.5275l.0006,11.3519,5.0733.0357-.0158-6.3759,7.6752,5.5516a6.11,6.11,0,0,0,2.5107.798l2.9236-.0186-.0842-11.2789-1.79-.0123c-1.79.0191-2.8742.7031-3.3554,1.8956l.0212,4.3874-7.7474-5.4857a8.787,8.787,0,0,0-2.8787-.8189Z"/></clipPath><clipPath id="clip-path-4"><path id="_Clipping_Path_4" data-name="&lt;Clipping Path&gt;" class="cls-1" d="M63.9359,16.6152l.0461,9.3894a4.2055,4.2055,0,0,0,3.6122,1.8386l1.4461.0177-.0376-9.3938a3.7784,3.7784,0,0,0-3.3869-1.8779Z"/></clipPath><clipPath id="clip-path-5"><path id="_Clipping_Path_5" data-name="&lt;Clipping Path&gt;" class="cls-1" d="M70.4849,16.5418l6.3793,5.57L70.3188,27.84l4.5712.01a5.2776,5.2776,0,0,0,2.3734-.9505l2.77-2.4025,3.808,3.4184,5.7319.0063-6.3971-5.737,6.4769-5.6038-4.5536.0108a3.9191,3.9191,0,0,0-1.9421.6345l-3.0741,2.5815-2.8953-2.51a4.4156,4.4156,0,0,0-2.09-.7367Z"/></clipPath></defs><title>fenix</title><g id="_Group_" data-name="&lt;Group&gt;"><g id="_Group_2" data-name="&lt;Group&gt;"><g id="_Group_3" data-name="&lt;Group&gt;"><g id="_Group_4" data-name="&lt;Group&gt;"><g id="_Clip_Group_" data-name="&lt;Clip Group&gt;"><path id="_Clipping_Path_6" data-name="&lt;Clipping Path&gt;" class="cls-1" d="M4.4184,16.5987a2.9251,2.9251,0,0,0-2.7146,1.61l.0329,9.6635c3.3347.133,4.8991-.6371,5.0126-2.1846l-.0175-2.2089,6.9891.003c1.8153-.2721,3.37-.65,3.5945-2.5135l-10.5546.028-.031-1.98,10.18-.03c1.7864-.141,3.1605-.7089,3.1048-2.4186Z"/><g class="cls-2"><polygon id="_Path_" data-name="&lt;Path&gt;" class="cls-1" points="1.742 28.029 1.683 16.583 20.037 16.565 20.096 27.987 1.742 28.029"/></g></g><g id="_Clip_Group_2" data-name="&lt;Clip Group&gt;"><path id="_Clipping_Path_7" data-name="&lt;Clipping Path&gt;" class="cls-1" d="M25.3413,16.5667a3.996,3.996,0,0,0-3.4074,2.0348l.029,7.3093c.4189,1.2448,1.943,1.7934,4.0468,1.95l11.9178.0006c2.615-.0469,4.0681-.816,4.1239-2.4455l-15.1057-.0049.036-1.9411,10.9105.0026c2.5351-.1318,4.09-.9043,4.1935-2.4668L26.9492,21.004l.036-1.9656,15.0629-.0268c-.0361-1.3029-1.0911-2.1657-3.4575-2.4435Z"/><g class="cls-3"><polygon id="_Path_2" data-name="&lt;Path&gt;" class="cls-1" points="21.958 27.897 21.929 16.575 42.06 16.574 42.06 27.908 21.958 27.897"/></g></g><g id="_Clip_Group_3" data-name="&lt;Clip Group&gt;"><path id="_Clipping_Path_8" data-name="&lt;Clipping Path&gt;" class="cls-1" d="M43.9459,16.5275l.0006,11.3519,5.0733.0357-.0158-6.3759,7.6752,5.5516a6.11,6.11,0,0,0,2.5107.798l2.9236-.0186-.0842-11.2789-1.79-.0123c-1.79.0191-2.8742.7031-3.3554,1.8956l.0212,4.3874-7.7474-5.4857a8.787,8.787,0,0,0-2.8787-.8189Z"/><g class="cls-4"><polygon id="_Path_3" data-name="&lt;Path&gt;" class="cls-1" points="43.946 27.879 43.946 16.527 62.105 16.563 62.114 27.87 43.946 27.879"/></g></g><g id="_Clip_Group_4" data-name="&lt;Clip Group&gt;"><path id="_Clipping_Path_9" data-name="&lt;Clipping Path&gt;" class="cls-1" d="M63.9359,16.6152l.0461,9.3894a4.2055,4.2055,0,0,0,3.6122,1.8386l1.4461.0177-.0376-9.3938a3.7784,3.7784,0,0,0-3.3869-1.8779Z"/><g class="cls-5"><polygon id="_Path_4" data-name="&lt;Path&gt;" class="cls-1" points="63.97 27.85 63.936 16.615 69.007 16.598 69.04 27.861 63.97 27.85"/></g></g><g id="_Clip_Group_5" data-name="&lt;Clip Group&gt;"><path id="_Clipping_Path_10" data-name="&lt;Clipping Path&gt;" class="cls-1" d="M70.4849,16.5418l6.3793,5.57L70.3188,27.84l4.5712.01a5.2776,5.2776,0,0,0,2.3734-.9505l2.77-2.4025,3.808,3.4184,5.7319.0063-6.3971-5.737,6.4769-5.6038-4.5536.0108a3.9191,3.9191,0,0,0-1.9421.6345l-3.0741,2.5815-2.8953-2.51a4.4156,4.4156,0,0,0-2.09-.7367Z"/><g class="cls-6"><polygon id="_Path_5" data-name="&lt;Path&gt;" class="cls-1" points="70.319 27.84 70.327 16.533 89.653 16.581 89.633 27.922 70.319 27.84"/></g></g></g></g><g id="_Group_5" data-name="&lt;Group&gt;"><g id="_Group_6" data-name="&lt;Group&gt;"><g id="_Group_7" data-name="&lt;Group&gt;"><path id="_Path_6" data-name="&lt;Path&gt;" class="cls-1" d="M106.4716,20.1826l1.1671-.3077a8.2516,8.2516,0,0,0-1.8675-3.275l-.8562.8509A7.059,7.059,0,0,1,106.4716,20.1826Z"/></g><g id="_Group_8" data-name="&lt;Group&gt;"><path id="_Path_7" data-name="&lt;Path&gt;" class="cls-7" d="M106.7725,22.2253a7.08,7.08,0,0,1-.1717,1.5514l1.1669.31a8.32,8.32,0,0,0,.0029-3.71l-1.1673.3077A7.07,7.07,0,0,1,106.7725,22.2253Z"/></g><g id="_Group_9" data-name="&lt;Group&gt;"><path id="_Path_8" data-name="&lt;Path&gt;" class="cls-1" d="M99.7471,29.28a7.0555,7.0555,0,1,1,4.8041-12.1983l.8553-.8513a8.2619,8.2619,0,1,0,.01,11.9776l-.8568-.8486A6.9821,6.9821,0,0,1,99.7471,29.28Z"/></g><g id="_Group_10" data-name="&lt;Group&gt;"><path id="_Path_9" data-name="&lt;Path&gt;" class="cls-8" d="M106.4682,24.278a7.0686,7.0686,0,0,1-1.5456,2.7117l.8565.8491a8.2681,8.2681,0,0,0,1.8555-3.2506Z"/><path id="_Compound_Path_" data-name="&lt;Compound Path&gt;" class="cls-9" d="M105.78,27.8746l-.8914-.8848.0161-.0165a7.0849,7.0849,0,0,0,1.54-2.7025l.0073-.0225,1.2137.3225-.0071.0242a8.3511,8.3511,0,0,1-1.8617,3.26Zm-.8229-.8857.8209.814a8.2849,8.2849,0,0,0,1.8258-3.1975l-1.118-.2969A7.1447,7.1447,0,0,1,104.957,26.9889Z"/></g></g><g id="_Group_11" data-name="&lt;Group&gt;"><g id="_Group_12" data-name="&lt;Group&gt;"><g id="_Group_13" data-name="&lt;Group&gt;"><g id="_Group_14" data-name="&lt;Group&gt;"><path id="_Compound_Path_2" data-name="&lt;Compound Path&gt;" class="cls-1" d="M100.5586,18.3119a2.3759,2.3759,0,0,1-1.2224.2347,15.3392,15.3392,0,0,0-3.3848.4419,12.88,12.88,0,0,0-.41,2.0789,44.3361,44.3361,0,0,1,4.7928-.1729,3.7218,3.7218,0,0,1-.17,1.1027,1.88,1.88,0,0,1-1.9185,1.586c-.9142-.0272-1.82-.0864-2.6992-.1679a12.2333,12.2333,0,0,0,.3378,1.792c.2952,1.1306.403,1.8407.187,2.0665-.1327.1145-.428.0545-.9419-.22-.0657-.0336-.1294-.0678-.1932-.1023-1.6045-2.7825-2.0824-4.8655-1.0327-7.3564a5.9964,5.9964,0,0,1,1.5406-2.1634,4.0463,4.0463,0,0,1,1.1687-.74,6.9448,6.9448,0,0,1,4.3063-.518C101.1512,17.2718,101.0322,17.988,100.5586,18.3119Z"/></g></g></g><g id="_Group_15" data-name="&lt;Group&gt;"><g id="_Group_16" data-name="&lt;Group&gt;"><g id="_Group_17" data-name="&lt;Group&gt;"><path id="_Compound_Path_3" data-name="&lt;Compound Path&gt;" class="cls-1" d="M102.81,27.63a7.6149,7.6149,0,0,0-.5-3.0287c-.4851.8593-.9791,1.747-1.4032,2.5991-.4023.796-.7335,1.2007-1.0929,1.2153a6.2784,6.2784,0,0,1-1.1755-.0682,28.0861,28.0861,0,0,1,2.4589-6.2657,27.1326,27.1326,0,0,1-2.3995-5.9863,6.01,6.01,0,0,1,1.1733-.059.3181.3181,0,0,1,.1493.0439,2.8475,2.8475,0,0,1,.9688,1.2542c.4.7778.8613,1.58,1.3125,2.36a8.1453,8.1453,0,0,0,.481-1.9472c.0735-.6364.2258-.8408.6389-.6364.4524.2305.9294.4975,1.4268.8a6.5543,6.5543,0,0,1-1.0239,4.2957,6.5846,6.5846,0,0,1,1.0239,4.3309A19.2906,19.2906,0,0,1,102.81,27.63Z"/></g></g></g></g></g></g><g id="_Group_18" data-name="&lt;Group&gt;"><path id="_Compound_Path_4" data-name="&lt;Compound Path&gt;" class="cls-10" d="M74.035,15.1771l-1.03-.8138-.6841.5541a1.2376,1.2376,0,0,1-.8052.26h-1.03l1.7227-1.3852-1.6708-1.3244h1.03a1.045,1.045,0,0,1,.1294.0085,1.2977,1.2977,0,0,1,.675.2683l.6411.5023.6751-.5107a1.3008,1.3008,0,0,1,.8052-.2683h.9955l-1.688,1.3505,1.688,1.3591Z"/><path id="_Compound_Path_5" data-name="&lt;Compound Path&gt;" class="cls-10" d="M81.0035,13.4368a2.5111,2.5111,0,0,1-.71.1128h-.121v-.5108H77.5146V14.623h2.6669v-.078q0-.2425.5023-.3807a2.6662,2.6662,0,0,1,.6922-.0955h.1128v.5369q0,.5713-1.1948.5715H77.3673a2.1515,2.1515,0,0,1-.7009-.1124q-.467-.156-.4671-.45V13.0216a.3043.3043,0,0,1,.0953-.2252,1.452,1.452,0,0,1,1.082-.3289h2.9174q1.2121,0,1.2118.5712Q81.5058,13.29,81.0035,13.4368Z"/><path id="_Compound_Path_6" data-name="&lt;Compound Path&gt;" class="cls-10" d="M86.0774,14.9a1.9017,1.9017,0,0,1-1.1.277H83.2116a2.4325,2.4325,0,0,1-.7189-.104q-.4752-.1469-.4756-.4415V13.4368q0-.2854.4848-.4241a2.64,2.64,0,0,1,.7185-.0952h1.7747a2.7451,2.7451,0,0,1,.6927.0952q.5019.1386.5016.3807v.45q0,.4592-1.1857.4591H83.2116v.4411h2.9778C86.1894,14.7962,86.152,14.8479,86.0774,14.9Zm-1.1-1.5151H83.2116v.4759h1.7661Z"/><path id="_Compound_Path_7" data-name="&lt;Compound Path&gt;" class="cls-10" d="M87.4449,15.1337a4.04,4.04,0,0,1-.7186.0434V12h1.1949v2.71Q87.9213,15.03,87.4449,15.1337Z"/><path id="_Compound_Path_8" data-name="&lt;Compound Path&gt;" class="cls-10" d="M89.1766,15.1337a4.0406,4.0406,0,0,1-.7187.0434V12h1.1949v2.71C89.6529,14.9231,89.4935,15.0646,89.1766,15.1337Z"/></g></g></svg>