<svg id="Layer_1" data-name="Layer 1" xmlns="http://www.w3.org/2000/svg" viewBox="0 0 310 140"><defs><style>.cls-1,.cls-3{fill:#7d4b1e;}.cls-1,.cls-2,.cls-4,.cls-5,.cls-6,.cls-7{fill-rule:evenodd;}.cls-2{fill:#f58721;}.cls-4{fill:#f38723;}.cls-5{fill:#96785c;}.cls-6{fill:#dbd4c8;}.cls-7{fill:#fff;}</style></defs><title>hooters</title><path class="cls-1" d="M117.604,24.9606c2.8281-4.9542,7.1892-7.77,12.4539-9.29a20.701,20.701,0,0,0,11.6964-8.1039,15.5333,15.5333,0,0,0,1.6488-3.004,3.7943,3.7943,0,0,1,.4054-.7807,1.11,1.11,0,0,1,1.837-.21,5.0059,5.0059,0,0,1,1.4186,2.3165,11.1962,11.1962,0,0,1,.2769,5.0554c-.0787.592-.3263,1.1757.1725,1.7445a1.0066,1.0066,0,0,1,.0077,1.0406,2.747,2.747,0,0,0-.0249,1.7153,23.3543,23.3543,0,0,1,.0651,6.75,52.856,52.856,0,0,1-.89,6.0189,3.3166,3.3166,0,0,0,.0821,1.4541,19.4687,19.4687,0,0,1-.2757,10.6554,17.34,17.34,0,0,1-3.9221,6.503c-.602.6411-.6048.64-.1242,1.3435A56.0394,56.0394,0,0,1,151.09,67.6914a62.858,62.858,0,0,1,1.3333,18.1541,38.8629,38.8629,0,0,1-1.9949,10.4731,22.2,22.2,0,0,1-4.7368,7.6151,1.3755,1.3755,0,0,1-.6084.45c-.2423-.9958.0528-2.08-.5182-3.0653a40.6764,40.6764,0,0,1-1.0027,4.6011,15.534,15.534,0,0,1-3.9634,6.35,2.7017,2.7017,0,0,1-1.699.9593,17.2119,17.2119,0,0,1,.114-1.8647,3.5231,3.5231,0,0,0-.3216-1.7908c-1.535,2.3712-3.0493,4.7085-5.7738,6.1035a34.5678,34.5678,0,0,0-.2525-4.7148,2.7516,2.7516,0,0,0-.78.723,26.31,26.31,0,0,1-10.1779,7.1766,21.1849,21.1849,0,0,1-4.1652,1.0993,1.6329,1.6329,0,0,0-1.1917.7267,11.4541,11.4541,0,0,1-1.9721,2.1838c-.569.4667-.73.3965-.8517-.3225-.0591-.35-.0932-.705-.1463-1.1163-.3946.234-.3987.63-.5214.941a43.5323,43.5323,0,0,1-2.195,5.03,6.7036,6.7036,0,0,1-1.997,2.3931,1.9084,1.9084,0,0,1-.7564.4348c-.82.0791-1.0976.6633-1.4156,1.281-.9428,1.8315-1.9138,3.649-2.8821,5.4672a2.3845,2.3845,0,0,1-.85,1.0866c-1.5222-3.0244-2.4969-6.2407-3.7766-9.3642a.9622.9622,0,0,0-.3.66c-.0534.2408.0455.6028-.29.6513-.2889.0417-.4058-.2944-.5648-.4905a16.4566,16.4566,0,0,1-3.0727-6.83,1.3079,1.3079,0,0,0-.3246-.8279c-.1515.5161-.0055,1.0606-.2921,1.5124-1.3207-.5318-2.5171-2.6649-3.3928-6.042-.3533.357-.2323.9228-.6105,1.3a4.2507,4.2507,0,0,1-1.2937-1.6809,81.1428,81.1428,0,0,1-4.8333-10.7222,67.678,67.678,0,0,1-3.77-14.7,56.2841,56.2841,0,0,1-.0957-13.134,50.7763,50.7763,0,0,1,4.6062-16.6587A57.9734,57.9734,0,0,1,92.1409,49.09c.4012-.4729,1.0628-.9347,1.1057-1.4435.0447-.5284-.747-.897-1.1627-1.3443a15.9093,15.9093,0,0,1-4.2765-10.59,26.03,26.03,0,0,1,1.3069-8.8915,2.5233,2.5233,0,0,0-.0117-1.6,24.2785,24.2785,0,0,1-1.2289-7.1317,8.9028,8.9028,0,0,1,.1332-1.5637,4.3248,4.3248,0,0,0,.0464-2.31,1.0615,1.0615,0,0,1,.22-1.1914c.2806-.2544.1127-.5405.0617-.8217a11.6676,11.6676,0,0,1,.1113-5.4492,5.5543,5.5543,0,0,1,1.3116-2.3852,1.22,1.22,0,0,1,2.1582.2791c.24.4248.3856.9017.61,1.3363a19.5314,19.5314,0,0,0,12.4124,10.1266,23.1989,23.1989,0,0,1,10.384,5.8752A17.51,17.51,0,0,1,117.604,24.9606ZM92.363,21.2274c-.0576.0322-.1932.0272-.0694.1459.0285-.0434.057-.0866.0851-.13a.2271.2271,0,0,0,.1966-.1949.74.74,0,0,0,.5144-.2419,12.2537,12.2537,0,0,1,1.9378-1.3037,13.4347,13.4347,0,0,1,9.3694-1.1057c.9174.181,1.8179.4492,2.7262.6775a.2013.2013,0,0,0,.2068.1578c.0762-.0051.1119-.081.068-.1025a1.14,1.14,0,0,0-.2689-.0619.6782.6782,0,0,0-.409-.3914,14.3827,14.3827,0,0,0-5.7836-1.5469,9.9325,9.9325,0,0,0-6.4757,2.0291c-.696.5171-1.5954.9226-1.9017,1.8732A.24.24,0,0,0,92.363,21.2274Zm1.7762,30.1071c-.1811.0628-.2149.21-.2157.3763-.3467-.0153-.5154.2561-.7177.4595-.7377.7417-1.45,1.5028-2.1323,2.3005a37.5544,37.5544,0,0,0-6.1175,9.9771,48.0593,48.0593,0,0,0-3.3888,17.2449,56.1071,56.1071,0,0,0,.3467,6.6391c.1644,1.8823.4543,3.7406.7615,5.6a72.3588,72.3588,0,0,0,2.248,9.283,23.206,23.206,0,0,0,1.493,4.0189,1.7725,1.7725,0,0,0-.0413-.8117c-.3727-1.6141-.7951-3.2216-1.0623-4.854-.2623-1.6016-.4888-3.212-.69-4.8257A48.1618,48.1618,0,0,1,84.1455,91.6a105.4133,105.4133,0,0,1,.12-10.5969,69.5724,69.5724,0,0,1,.8815-7.0641,60.17,60.17,0,0,1,2.8761-10.428,56.6109,56.6109,0,0,1,4.2046-8.83,28.4568,28.4568,0,0,0,1.73-2.9406.3551.3551,0,0,0,.1859-.4018c.0589-.0244.1868-.0074.0791-.1319Zm48.7881-27.5368c.0359.0457.0185.1972.141.0711-.0438-.027-.0877-.0538-.131-.0808a.9361.9361,0,0,0-.2895-.7092,15.1,15.1,0,0,0-2.5311-2.4526,10.9133,10.9133,0,0,0-8.7643-1.6656,8.7006,8.7006,0,0,0-2.5764.8141,2.3613,2.3613,0,0,0,.3622.0825,1.9523,1.9523,0,0,0,.391-.0276,17.2005,17.2005,0,0,1,5.3335-.2176,12.7308,12.7308,0,0,1,6.1662,2.5005C141.7148,22.6273,142.2089,23.335,142.9273,23.7977Zm-42.1-8.2634c.0647.0581.1212.1442.1966.1659a.348.348,0,0,0,.2349-.0423c.0108-.1864-.15-.1059-.2423-.1308a.7084.7084,0,0,0-.1817-.0017c-.2-.4406-.6686-.4956-1.0281-.6949a16.5674,16.5674,0,0,1-7.7846-8.2141,3.6916,3.6916,0,0,0-.4756-.8513c-.4658-.6045-.833-.6267-1.3869-.1272a2.1137,2.1137,0,0,0-.6415.8555,7.4112,7.4112,0,0,0-.4912,2.2782,17.7214,17.7214,0,0,0,.4235,3.48c.1017.5652.322,1.0415-.3236,1.4467-.2372.1489-.1706.5826-.0829.8387a4.8124,4.8124,0,0,1,.02,2.011,22.9761,22.9761,0,0,0,.69,7.65,3.6915,3.6915,0,0,0,.0349-1.0719,36.919,36.919,0,0,1-.1716-5.577A3.0857,3.0857,0,0,1,90.03,15.768a.62.62,0,0,0-.0042-.7988c-.3795-.69-.2616-.8807.5437-1.004a.5378.5378,0,0,0,.3875-.1567c-.0763-.2525-.1472-.5344-.2463-.8056a12.5435,12.5435,0,0,1-.712-5.0948,2.6384,2.6384,0,0,1,.5495-1.5822c.2918.1.3357.3127.4088.4786a15.3985,15.3985,0,0,0,5.4394,6.534A12.053,12.053,0,0,0,100.827,15.5343ZM140.73,49.7925a.1753.1753,0,0,0-.1708-.2193c-.5092-.4765-.5237-1.212-.87-1.7391-6.2286,2.907-12.2491,3.1888-17.9888-1.11-.3544-.4988-.68-.5322-.9889.0477-.09.17-.2346.3095-.3385.4728-.8151,1.2855-1.8893,2.3878-2.6268,3.7277-.4316.1957-.4829.7679-.9206.9494-.23-.0566-.3069-.2559-.4256-.4057-1.3816-1.7475-2.7766-3.4847-4.1261-5.2567-.3308-.4344-.529-.441-.9066-.0883a5.6108,5.6108,0,0,1-1.1918.86c-.5356.2831-.4841.5469-.1576.9683,1.3241,1.7089,2.6285,3.4332,3.93,5.16A65.2657,65.2657,0,0,1,121.68,65.7752a51.4211,51.4211,0,0,1,4.1841,26.63,61.335,61.335,0,0,1-2.6332,12.42,62.9357,62.9357,0,0,1-4.1861,10.0024c-.5156.9879-1.08,1.951-1.6937,3.0563a21.6894,21.6894,0,0,0,5.7646-2.1867,31.2384,31.2384,0,0,0,4.2473-2.964,32.9913,32.9913,0,0,0,3.1323-3.0844c.7171-.7709,1.3326-1.6362,1.9936-2.4594a15.4209,15.4209,0,0,1,.9368,4.7385,1.8457,1.8457,0,0,0,.7658-.6467,33.2746,33.2746,0,0,0,2.4484-3.888c.4018-.7107.7858-1.4314,1.18-2.1461.0931-.1687.1736-.3833.4112-.3569.2206.0244.3121.2178.36.4131.1085.4431.3244.8464.4561,1.2855a7.0628,7.0628,0,0,0,.6147,1.9155.9826.9826,0,0,0,.5105-.4863,13.6788,13.6788,0,0,0,1.5822-3.3535,39.4984,39.4984,0,0,0,1.7747-7.2794c.033-.2359.0626-.4765.3193-.549.22-.0619.3463.1455.4888.2708a6.6244,6.6244,0,0,1,1.538,2.0127c.1347.2657.1761.6243.5639.7683a24.2211,24.2211,0,0,0,1.9628-4.0835,37.8383,37.8383,0,0,0,2.1765-11.9421,53.3524,53.3524,0,0,0-.7292-11.8864,67.146,67.146,0,0,0-1.9394-8.3427,60.0857,60.0857,0,0,0-2.9106-7.15,24.9372,24.9372,0,0,0-2.4822-4.5528c-.5524-.74-.924-1.6494-1.7879-2.1338ZM101.9373,19.8554c-.315,0-.9083-.04-1.4943.0083a12.0662,12.0662,0,0,0-3.7007.8432,10.3678,10.3678,0,0,0-5.7506,6.3568,23.2281,23.2281,0,0,0-1.2461,5.811,17.5373,17.5373,0,0,0,.3291,6.1243,12.6715,12.6715,0,0,0,15.5124,9.3753c5.9752-1.6447,9.5369-5.7833,10.1664-11.9055a16.9226,16.9226,0,0,0-.5852-6.5066,13.7266,13.7266,0,0,0-5.5217-8.0781A12.42,12.42,0,0,0,101.9373,19.8554ZM118.311,36.4277a17.5737,17.5737,0,0,0,.2238,3.4188,11.0446,11.0446,0,0,0,3.1814,6.0605,13.4068,13.4068,0,0,0,8.4453,3.4509,15.7039,15.7039,0,0,0,5.5247-.5973,12.3036,12.3036,0,0,0,8.4757-6.9867,16.0562,16.0562,0,0,0,1.06-8.6606,13.3717,13.3717,0,0,0-6.3194-9.9054,11.7014,11.7014,0,0,0-9.2774-1.7445,14.3052,14.3052,0,0,0-9.123,6.46A14.9439,14.9439,0,0,0,118.311,36.4277ZM97.6883,52.21a.4631.4631,0,0,0-.3907.2906A58.93,58.93,0,0,0,91.972,66.142a55.8081,55.8081,0,0,0-1.5273,10.0121A55.2189,55.2189,0,0,0,90.634,85.47c.2229,2.0315.515,4.0582.9325,6.0665a71.7931,71.7931,0,0,0,3.3509,11.5186,78.2853,78.2853,0,0,0,5.0546,10.4914,43.4147,43.4147,0,0,0,2.6,3.99c8.5165-11.3765,12.9845-23.86,11.78-38.1063-.3708,1.7681-.6082,3.5688-.9749,5.3426a86.0977,86.0977,0,0,1-4.1157,14.3437,35.6566,35.6566,0,0,1-5.4506,9.809c-.4371.5282-.6024.5365-.9687-.0766-.5524-.9253-1.0957-1.8574-1.6047-2.8072A61.1073,61.1073,0,0,1,95.999,92.78a57.3586,57.3586,0,0,1-1.4828-7.5527c-.1657-1.3254-.2721-2.6564-.4327-3.9789-.2448-2.0166-.0766-4.0414-.2689-6.06a22.8016,22.8016,0,0,1,.1234-2.3324c.0111-.7211.0122-1.4426.0234-2.1635.0036-.224-.02-.4737.3135-.53a62.0237,62.0237,0,0,0,2.5819,15.5515,84.2513,84.2513,0,0,0,5.7887,14.8717,26.2265,26.2265,0,0,0,1.52-3.3,63.1155,63.1155,0,0,0,3.44-11.2914,38.4185,38.4185,0,0,0,.9053-7.4517c.0013-1.2131-.0032-2.4262.0009-3.6394a24.9845,24.9845,0,0,0-.9274-6.2836,75.1,75.1,0,0,1-4.2024,25.1286,20.6138,20.6138,0,0,1-1.194-2.5132,59.667,59.667,0,0,1-3.48-11.682c-.5735-2.8985-.9691-5.8306-1.27-8.78-.2582-2.533-.3723-5.0718-.489-7.6048A37.96,37.96,0,0,1,97.6883,52.21Zm7.0454-2.91c.2178.338.3723.6218.5675.8734a67.283,67.283,0,0,1,4.21,6.01,65.5535,65.5535,0,0,1,6.142,12.7751,64.254,64.254,0,0,1,2.73,10.468c.4035,2.3835.5488,4.78.7343,7.179.0515.666-.2057,1.2867-.1846,1.9438a23.8541,23.8541,0,0,1-.6675,5.7142,44.2918,44.2918,0,0,1-4.4726,12.47,1.0223,1.0223,0,0,0-.1687.5505,17.7963,17.7963,0,0,1-.1985,2.6309c-.19,1.81-.3676,3.6219-.72,5.41a1.3852,1.3852,0,0,0,.0449.9283c.3846-1.3648.6922-2.5935,1.0783-3.7966.6507-2.0282,1.1332-4.0693,2.5513-5.842,2.0413-2.5518,3.007-5.6949,3.9108-8.8059a50.6484,50.6484,0,0,0,1.542-7.3387,25.6033,25.6033,0,0,0,.4442-4.4688c-.0583-1.4346-.0166-2.8659-.1534-4.3063-.2034-2.14-.4288-4.27-.8279-6.3819a51.7574,51.7574,0,0,0-4.1095-12.6977,52.4516,52.4516,0,0,0-3.6751-6.359c-1.6385-2.4786-3.28-4.9556-4.8931-7.45-.3178-.4912-.6445-.6556-1.1714-.3791A19.4526,19.4526,0,0,1,104.7337,49.3Zm-16.9946,53.932c-.0708,2.2586,3.2348,12.4667,4.5033,13.9974a34.9576,34.9576,0,0,1,1.3075-3.4226,89.7775,89.7775,0,0,0,3.4158,9.6684c.5037-.9138.2325-1.9664.7847-2.858.526,1.2039,1.0147,2.34,1.5175,3.4694.7975,1.7915,1.61,3.5762,2.5205,5.3146.2342.4471.3975.5024.7409.0587a41.0054,41.0054,0,0,0,2.29-3.6443,15.3517,15.3517,0,0,1,1.2176-2.03c.4718.3365.1378.9828.6832,1.2061,3.44-4.8725,4.482-10.4572,4.8872-16.2326-.84,3.95-3.4139,10.64-4.5277,11.3678-.3314-.351-.2029-.9172-.5988-1.358-.3974.7717-.7417,1.47-1.1119,2.154a29.403,29.403,0,0,1-2.7147,4.3012c-.3146.3986-.5018.3446-.7034-.0553-.8539-1.6932-1.7445-3.3677-2.5088-5.1056-.6715-1.5273-1.2844-3.078-1.863-4.7176-.4205.6126-.287,1.3329-.7571,1.9936-1.3863-2.9036-2.2407-5.89-3.5917-8.7057-.3918,1.2185-.7839,2.4371-1.2344,3.8382A52.2476,52.2476,0,0,1,87.7391,103.2321Zm29.0835-52.3685c1.2259-1.69,2.3852-3.2973,3.557-4.8949a.4883.4883,0,0,0-.0366-.6922,10.4151,10.4151,0,0,1-.739-1.0368,12.4247,12.4247,0,0,1-1.7015-4.6562c-.0485-.307.024-.712-.3012-.8809a2.1172,2.1172,0,0,0-1.3491-.09c-.4016.07-.37.491-.455.7892a13.8444,13.8444,0,0,1-2.4792,4.8452c-.28.3534-.8421.6377-.7888,1.056.05.3924.5.7372.7815,1.0963C114.4562,47.8592,115.6046,49.316,116.8227,50.8636Zm12.0862-33.6086a20.2783,20.2783,0,0,0,6.5094-1.4754,18.25,18.25,0,0,0,5.7042-3.723,22.4727,22.4727,0,0,0,3.9561-5.3777c1.3539,2.5233.0253,4.7249-.7365,6.9948.3716.0357.6314-.0934.94.0321.368.15.5311.3474.2948.6347a1.1649,1.1649,0,0,0,.0168,1.62.8471.8471,0,0,1,.0913.3752,32.0666,32.0666,0,0,1,.3952,4.4715c-.0045,1.733-.0009,3.4662-.0009,5.1992a7.9816,7.9816,0,0,0,.4057-1.586c.1876-1.52.3159-3.0417.4316-4.5689a17.7465,17.7465,0,0,0-.2791-4.2491,3.0575,3.0575,0,0,1-.0306-1.23c.1119-.5091.3752-1.1731-.4139-1.51-.1946-.083-.1513-.3768-.0655-.538a4.41,4.41,0,0,0,.24-1.1461,11.2132,11.2132,0,0,0,.2825-3.5958,3.8359,3.8359,0,0,0-.84-2.255c-.626-.72-1.0438-.7171-1.6454.014a17.7974,17.7974,0,0,0-1.4631,2.4294,18.61,18.61,0,0,1-7.518,7.1111A32.4682,32.4682,0,0,1,128.9088,17.2549Zm-.4933,2.7666.0708-.06a.9029.9029,0,0,0-.1548-.0679c-.0177-.0044-.0464.0362-.07.0564C128.313,19.9737,128.364,19.9977,128.4155,20.0215ZM86.57,107.492c-.0223.02-.0655.0436-.0627.06a.9164.9164,0,0,0,.0538.1583c.0223-.02.0657-.0436.063-.06A.9058.9058,0,0,0,86.57,107.492Zm21.2449-88.158-.0311.04.05.007Z"/><path class="cls-2" d="M86.2989,43.3555c0,1.2669.006,3.037-.0019,4.807A2.1756,2.1756,0,0,1,84.535,50.64a12.18,12.18,0,0,1-6.2932.405c-1.803-.331-2.3839-1.0566-2.4252-2.8759q-.0938-4.124-.1974-8.2481c-.0206-.8236-.0272-.8281-.8241-.7541-1.27.1178-2.5379.274-3.81.35-.5471.0328-.6324.275-.6284.7392a52.5975,52.5975,0,0,1-.2127,6.085c-.0872.813-.1181,1.6331-.2268,2.443a2.4058,2.4058,0,0,1-2.4822,2.3169c-1.7666.0757-3.539.0232-5.3085.013a3.0245,3.0245,0,0,1-.6726-.1291,1.9722,1.9722,0,0,1-1.7706-2.212c-.1342-4.3231-.1468-8.6476-.1393-12.9721q.0118-6.7855.0436-13.57c.0017-.391.0859-.7813.09-1.1723a2.962,2.962,0,0,1,3.1659-2.9321c1.506-.0528,3.0157-.0166,4.5234-.0064a4.626,4.626,0,0,1,1.44.2782,2.1425,2.1425,0,0,1,1.558,2.0393c.1408,1.83.1283,3.6639.1706,5.4964.0287,1.2431.1032,2.4854.1168,3.7285.0051.4856.1944.6639.6471.5862a18.0476,18.0476,0,0,1,3.037-.16c.6086-.0008.7813-.2046.7562-.8013-.0983-2.3552-.15-4.7121-.223-7.0682-.0712-2.3158,1.12-3.5545,3.44-3.7546a19.5042,19.5042,0,0,1,5.1769.2208c1.84.332,2.3705.9862,2.395,2.8487.0642,4.8808.0964,9.7628.2431,14.6413C86.1916,38.4,86.1908,40.6272,86.2989,43.3555Z"/><path class="cls-3" d="M245.9856,20.8794h-.6749v2.0433h-.5346V20.8794h-.6715V20.42h1.8811Z"/><path class="cls-3" d="M249,22.9227h-.5263V21.4257q0-.2428.02-.5358H248.48a2.79,2.79,0,0,1-.0742.3317l-.5544,1.7013h-.4356l-.5643-1.6838a3.3929,3.3929,0,0,1-.0742-.3491h-.0149q.0214.37.0215.649v1.3839h-.48V20.42h.78l.4835,1.4833a2.197,2.197,0,0,1,.0843.3576h.01q.0443-.2074.094-.3612l.4833-1.48H249Z"/><path class="cls-2" d="M203.526,41.95c0,.7811.0045,1.5828-.001,2.3841-.0089,1.3095-.04,2.617-.1753,3.9227-.1859,1.7959-.816,2.3822-2.6092,2.5217a16.6287,16.6287,0,0,1-4.6808-.2393c-1.5818-.3263-2.043-.8887-2.2129-2.5173-.2117-2.0257-.0829-4.0584-.114-6.0869-.0713-4.62-.0128-9.2423-.09-13.8621-.034-2.0621-.0834-4.1239-.0815-6.1865.0019-1.9225.7417-2.8423,2.6032-3.222a28.307,28.307,0,0,1,7.6323-.2755,20.3134,20.3134,0,0,1,4.7446.6864,10.316,10.316,0,0,1,7.1511,10.646,10.8433,10.8433,0,0,1-2.7936,6.0533,9.6184,9.6184,0,0,1-1.4361,1.4746c-.3952.3-.341.5379-.01.8587a28.9833,28.9833,0,0,1,2.4648,2.67,15.0668,15.0668,0,0,1,3.0714,6.3959,2.5469,2.5469,0,0,1-2.0257,3.35,12.0591,12.0591,0,0,1-4.9461.4435,4.2491,4.2491,0,0,1-3.316-2.4724,20.1164,20.1164,0,0,1-1.0059-2.967,11.6871,11.6871,0,0,0-1.5879-3.2486C204.0068,42.1313,203.956,41.9048,203.526,41.95Zm2.3875-11.0089v-.2078c-.0058-1.8153-.8976-2.3261-2.5379-2.3471-.3335-.0041-.47.1384-.4684.4675.0066,1.2446.0015,2.4892.0047,3.7336.0006.191-.0106.3791.2437.4643a2.5748,2.5748,0,0,0,2.3442-.6352A2.3605,2.3605,0,0,0,205.9136,30.9409Z"/><path class="cls-2" d="M228.8275,50.9669a12.7775,12.7775,0,0,1-6.4636-1.328,6.7684,6.7684,0,0,1-3.81-5.6955,4.2224,4.2224,0,0,1,3.894-4.5945,4.1225,4.1225,0,0,1,2.9091.6245c1.2033.79,2.4633,1.4933,3.6143,2.3639a2.3183,2.3183,0,0,0,.4058.274.7162.7162,0,0,0,.75-.003.6718.6718,0,0,0,.1576-.7287,2.4067,2.4067,0,0,0-1.248-1.56c-1.7294-1.0634-3.4452-2.1495-5.0716-3.3656a18.0142,18.0142,0,0,1-4.4558-4.7925c-2.4428-3.84-.8277-8.323,1.0889-10.6041a10.6826,10.6826,0,0,1,7.1883-3.6168,16.6475,16.6475,0,0,1,6.2435.1517c3.5664.9074,5.8974,3.0278,6.5625,6.729.5677,3.16-1.394,5.219-4.7062,4.9942a9.2272,9.2272,0,0,1-4.4732-1.6181,3.6463,3.6463,0,0,0-.9493-.4995,1.1583,1.1583,0,0,0-1.4076.3427,1.444,1.444,0,0,0,.0506,1.57,2.4239,2.4239,0,0,0,.987.7875c1.2229.6258,2.4467,1.25,3.6826,1.85a11.0626,11.0626,0,0,1,6.1113,12.31,7.1206,7.1206,0,0,1-4.3552,5.2137A15.4087,15.4087,0,0,1,228.8275,50.9669Z"/><path class="cls-2" d="M181.79,18.1149c2.0978,0,4.1956-.0036,6.2934.001a2.549,2.549,0,0,1,2.8583,2.4579,21.7928,21.7928,0,0,1,.1859,4.41c-.1032,2.05-.9549,2.8827-3.0225,2.9321-1.1789.0281-2.3594-.0139-3.539-.0164-.4261-.0011-.8538-.0026-1.2774.0362a1.3381,1.3381,0,0,0-1.0576,2.1252c.1561.2695.3735.2125.5886.2225,1.4378.0694,2.8757.1462,4.3144.1944a1.6153,1.6153,0,0,1,1.8027,1.7322,29.3243,29.3243,0,0,1-.1944,4.2141,1.9311,1.9311,0,0,1-1.712,1.876,13.6719,13.6719,0,0,1-2.8317.2559c-.6763.0159-1.5448-.3-1.9777.1621-.4254.4546-.1,1.3139-.137,1.9944-.0245.4578.0036.9192-.0364,1.3752-.0428.4927.1714.6218.6277.5956,1.8291-.1051,3.67-.0981,5.4855-.3074a1.9916,1.9916,0,0,1,2.4269,2.1731c-.0961,1.1391-.0106,2.2931-.0217,3.44a2.4751,2.4751,0,0,1-2.4192,2.7876,53.1823,53.1823,0,0,1-6.466.36,28.8528,28.8528,0,0,1-5.5874-.1893,4.1985,4.1985,0,0,1-3.3-2.6353,7.36,7.36,0,0,1-.3036-2.2265c-.3954-4.7317-.6737-9.4693-.6454-14.2223a100.3016,100.3016,0,0,1,.6158-10.68,6.2173,6.2173,0,0,1,.3891-1.5156,2.1744,2.1744,0,0,1,2.2535-1.549C177.3325,18.1069,179.5616,18.1149,181.79,18.1149Z"/><path class="cls-2" d="M159.0486,50.9635a9.91,9.91,0,0,1-2.9227-.2576,1.8346,1.8346,0,0,1-1.6365-2.075c-.077-3.0761-.0768-6.1548-.1987-9.2279-.1011-2.552-.1047-5.1037-.1753-7.655-.0225-.8168-.0812-1.6328-.0974-2.4495-.0089-.4461-.1676-.6414-.6426-.6222-.7852.0315-1.5726.0213-2.3586.0049-1.0374-.0215-1.4429-.358-1.5424-1.38a52.312,52.312,0,0,1-.4716-6.6542,3.8927,3.8927,0,0,1,.1348-1.1644,1.69,1.69,0,0,1,1.9819-1.3457c4.9748.307,9.9539.0874,14.9308.12a8.1123,8.1123,0,0,1,1.361-.0234,2.7106,2.7106,0,0,1,2.4809,2.6017,21.0635,21.0635,0,0,1-.0753,3.9121c-.1527,2.6135-1.2914,3.0193-3.3143,3.3292a11.479,11.479,0,0,1-1.3739.0455c-.8221.0264-.8266.0345-.8194.8339.0232,2.4894.0562,4.9788.0636,7.468q.0159,5.4058,0,10.8109a8.5506,8.5506,0,0,1-.1361,1.6588,1.9746,1.9746,0,0,1-1.592,1.6573A12.4843,12.4843,0,0,1,159.0486,50.9635Z"/><path class="cls-4" d="M185.484,79.0815c-.3933.3346-.7509.67-1.141.9623a2.866,2.866,0,0,1-1.6145.6407c-.7945.0357-1.4373-.1453-1.7072-.9857-.1687-.5252-.4076-.4858-.7579-.1466-.47.4546-.9617.8883-1.4626,1.3092a3.7118,3.7118,0,0,1-.74.4748,2.2621,2.2621,0,0,1-3.4441-1.873,6.2748,6.2748,0,0,1,.1727-2.4348,15.5645,15.5645,0,0,1,4.9189-7.8656,4.4748,4.4748,0,0,1,1.7011-.9489,1.42,1.42,0,0,1,1.72.5833,2.2956,2.2956,0,0,0,1.8222,1.3016c.6133.0421.8853.6666.7589,1.375a8.2752,8.2752,0,0,1-.7524,2.0155,12.3764,12.3764,0,0,0-.9859,2.4513c-.0617.27-.1412.5271.1387.6982.29.177.5156-.0358.6871-.2163a6.6641,6.6641,0,0,0,1.615-2.3141c.75-2.1266,1.6955-4.181,2.3552-6.3409a1.0387,1.0387,0,0,1,.4816-.59,2.4863,2.4863,0,0,1,2.7653.2366c.3957.3427.0068.7422.1614,1.11.4172-.0751.5748-.428.7964-.6849a7.4492,7.4492,0,0,1,1.4131-1.3552A1.6231,1.6231,0,0,1,196.39,66.35a2.0428,2.0428,0,0,1,.9753,2.1019,6.9309,6.9309,0,0,1-.461,1.3941q-.8717,1.9738-1.6911,3.9708c-.1516.3684-.4705.8715.006,1.1221.4078.2142.6885-.2986.9-.5981a14.5377,14.5377,0,0,0,1.8564-3.1031,14.119,14.119,0,0,1,4.6147-6.2349,3.81,3.81,0,0,1,1.8515-.8479,1.6641,1.6641,0,0,1,1.8281.8681,2.8081,2.8081,0,0,0,1.6817,1.5281c.6277.2065.7035.5595.3612,1.3667-.7164,1.6877-1.265,3.4337-1.8634,5.1629q-1.1547,3.3359-2.3454,6.6591a7.1,7.1,0,0,1-1.4233,2.4458,4.1593,4.1593,0,0,1-7.0577-1.2948,2.1058,2.1058,0,0,1,.7886-2.7572,1.29,1.29,0,0,1,1.5522-.0434c.4633.287.8353.5652.6745,1.2444a1.122,1.122,0,0,0,.69,1.2844c.4431.2142.9632-.0017,1.315-.5826a13.4761,13.4761,0,0,0,1.41-3.5685c-.8955.4471-1.4941,1.1908-2.4492,1.1191a2.598,2.598,0,0,1-2.1719-1.4171,12.6778,12.6778,0,0,1-1.8664,1.9715,9.379,9.379,0,0,1-.806.5563,2.2272,2.2272,0,0,1-2.5834.0521,2.5952,2.5952,0,0,1-.9711-2.6283,9.2787,9.2787,0,0,1,.6228-2.0608c.2184-.5109.4484-1.0174.65-1.5347.11-.2819.46-.632.0927-.87-.3931-.2552-.7728.0481-1.0023.3757a14.524,14.524,0,0,0-2.9347,6.45A1.6021,1.6021,0,0,1,187.608,79.87a1.3657,1.3657,0,0,1-1.5462-.268C185.8631,79.4436,185.6831,79.2621,185.484,79.0815Zm15.1146-5.9371c-.03.75.4407,1.0682,1.0119.7337a2.9818,2.9818,0,0,0,.7354-.6424A14.3952,14.3952,0,0,0,204.857,68.83a3.0473,3.0473,0,0,0,.1934-.8591c.0381-.6437-.37-.8985-.9438-.605a2.6251,2.6251,0,0,0-.8245.6854,14.0129,14.0129,0,0,0-2.4954,4.4137C200.7022,72.7119,200.6467,72.9682,200.5986,73.1444Zm-18.3262-1.2476a.6649.6649,0,0,0-.3044-.6766.5862.5862,0,0,0-.6328.1544,4.2607,4.2607,0,0,0-.5888.5152,13.1,13.1,0,0,0-2.7064,5.0658c-.1083.3765-.2389.8083.1874,1.0647.3867.2329.7071-.0613.9472-.311a12.8956,12.8956,0,0,0,3.0727-5.6176A1.2884,1.2884,0,0,0,182.2724,71.8968Zm9.7748-3.0886.0677-.0664a.5906.5906,0,0,0-.1262-.0576c-.0153-.0034-.0406.0379-.0613.0589Z"/><path class="cls-4" d="M175.467,59.0228a3.23,3.23,0,0,1,3.1884,1.6783,3.5471,3.5471,0,0,1,.12,2.677,8.766,8.766,0,0,1-3.1035,4.195,14.6123,14.6123,0,0,1-1.4348,1.03c-.3036.1944-.3174.3767-.1057.6282.0421.05.0834.1012.12.155,1.6168,2.3512,1.5945,4.1284-.1412,6.3637a23.5476,23.5476,0,0,1-6.3872,5.4536,50.1764,50.1764,0,0,1-4.8374,2.5928,5.7105,5.7105,0,0,1-1.3871.4779,2.0857,2.0857,0,0,1-2.52-2.5609,28.5522,28.5522,0,0,1,1.9749-5.3209,92.8768,92.8768,0,0,1,5.3732-10.2392c.6169-1.0249.5744-1.2184-.42-2.0176a.9744.9744,0,0,1-.3222-1.4467,2.1285,2.1285,0,0,1,.9285-.9866A22.5336,22.5336,0,0,1,175.467,59.0228ZM162.6814,80.38a31.3779,31.3779,0,0,0,6.52-3.8338,10.0057,10.0057,0,0,0,2.5769-2.8019,1.6186,1.6186,0,0,0-1.0289-2.4756c-1.9391-.4637-4.6759.6611-5.31,2.4286-.2861.7977-.6843,1.5546-1.0072,2.34C163.8639,77.417,163.3151,78.8043,162.6814,80.38Zm5.1616-11.5356a15.4813,15.4813,0,0,0,7.1732-4.5,3.3034,3.3034,0,0,0,.3282-.4854,1.079,1.079,0,0,0-.7619-1.7094,3.1152,3.1152,0,0,0-3.2926,1.1819C170.1469,65.1128,169.0438,66.9192,167.843,68.8447Z"/><path class="cls-4" d="M227.7309,68.0511c-.3882.1032-.37.4888-.4992.756a10.9189,10.9189,0,0,1-3.3024,4.3277,4.3306,4.3306,0,0,1-3.4117.8741,2.7518,2.7518,0,0,1-2.0757-1.709,21.57,21.57,0,0,1-1.5992,1.8149,5.378,5.378,0,0,1-1.29.8841c-1.4569.6692-2.3994.3138-3.01-1.3888a6.1407,6.1407,0,0,1-.0713-2.6294c.0315-.3774.2876-.9122-.0876-1.0753-.4867-.2121-.83.3293-1.0453.6879a10.2745,10.2745,0,0,0-1.1416,3.5213c-.0591.3216-.0874.6488-.1418.9715a1.5774,1.5774,0,0,1-2.4107,1.0272,1.7441,1.7441,0,0,1-.8362-2.1905c.4908-1.9347,1.1976-3.801,1.86-5.6806a64.3961,64.3961,0,0,1,3.5866-8.17,7.914,7.914,0,0,0,.7609-1.9053,1.6926,1.6926,0,0,1,2.07-.9866,1.4,1.4,0,0,1,.8847,1.967c-.4622,1.0459-1.0215,2.0484-1.5133,3.0816-.3935.8266-.7521,1.67-1.12,2.509-.1142.2606-.3031.5165-.1006.8911a7.5269,7.5269,0,0,0,1.69-1.43,11.69,11.69,0,0,1,2.322-1.803,2.0359,2.0359,0,0,1,1.6911-.251,1.2609,1.2609,0,0,1,.9145,1.3414,2.0244,2.0244,0,0,1-1.4361,1.8656,11.0181,11.0181,0,0,0-1.2652.5318,1.7144,1.7144,0,0,0-.9968,1.2692,23.5213,23.5213,0,0,0-.2982,3.5209c-.0015.19-.0225.4092.1927.5124.2549.1219.44-.044.6094-.1974a7.3124,7.3124,0,0,0,1.4558-1.8423c.3867-.6813.7647-1.3714,1.0889-2.0838a13.2074,13.2074,0,0,1,3.8442-5.0216,5.4934,5.4934,0,0,1,2.25-1.1565c1.295-.2753,2.0816.2268,2.1987,1.5177a7.0915,7.0915,0,0,0,.4605,1.9957,3.6014,3.6014,0,0,1,.0523,2.0332c-.064.345-.248.68-.0989,1.0457l.0134-.0172c-.3116.12-.3.35-.2054.6073Zm-2.3769-2.542c-.0762-.2708-.0842-.6045-.3757-.7507a.7927.7927,0,0,0-.9626.301,11.0194,11.0194,0,0,0-2.5188,4.925.6474.6474,0,0,0,.2706.6862.575.575,0,0,0,.7264-.0294,1.8173,1.8173,0,0,0,.3256-.2157A9.5548,9.5548,0,0,0,225.354,65.5091Zm-12.2093.2523c-.0215-.0221-.0427-.061-.0646-.0615s-.0451.0376-.0674.0589l.0992.0655Z"/><path class="cls-4" d="M227.9126,67.4774c.3861-.3.4258-.78.5632-1.1874a67.0286,67.0286,0,0,1,4.0642-9.562,9.8008,9.8008,0,0,0,.8232-1.99,1.6894,1.6894,0,0,1,2.1529-.981,1.431,1.431,0,0,1,.7662,2.0208c-.7871,1.6533-1.6781,3.2565-2.3735,4.954-.2087.5093-.4169,1.0185-.6307,1.5407.3237.197.441-.07.5854-.2057a30.92,30.92,0,0,1,3.0882-2.7313,3.055,3.055,0,0,1,1.79-.7217,1.3347,1.3347,0,0,1,1.3786,1.8315,1.9011,1.9011,0,0,1-1.4831,1.5192,4.89,4.89,0,0,0-1.1691.4937,1.8408,1.8408,0,0,0-1.0338,1.47c-.1244,1.0389-.1785,2.0863-.2423,3.1314-.0147.2423-.1032.5663.2344.6737.2833.09.492-.1087.6854-.2916a8.1779,8.1779,0,0,0,1.2216-1.5343c.23-.3567.4127-.7436.6218-1.114.2019-.3572.3314-.9107.8747-.73a1.1037,1.1037,0,0,1,.6541,1.21,2.256,2.256,0,0,1-.1938.7562,14.3534,14.3534,0,0,1-3.0885,4.6266,4.2061,4.2061,0,0,1-1.6585,1.02,1.83,1.83,0,0,1-2.4962-1.0613,4.0689,4.0689,0,0,1-.2931-2.3037,5.1936,5.1936,0,0,0,.0159-1.9962,2.113,2.113,0,0,0-1.3805,1.33,12.46,12.46,0,0,0-.9413,3.7919,1.6389,1.6389,0,0,1-1.9025,1.4809,2.0311,2.0311,0,0,1-1.4656-2.0266,8.325,8.325,0,0,1,.4533-1.804,1.6909,1.6909,0,0,0,.198-1.0361l-.01.0164c.2929-.1264.2635-.3618.2054-.6073Z"/><path class="cls-5" d="M117.5514,23.1108a20.436,20.436,0,0,0-8.945-6.86c6.4051-2.9223,12.777-2.9142,19.3294-1.2889-.2561.435-.6448.4576-.96.596a20.5571,20.5571,0,0,0-7.3894,4.8991C118.87,21.2608,118.297,22.174,117.5514,23.1108Z"/><path class="cls-6" d="M121.7,46.7241c5.74,4.2988,11.76,4.0169,17.9888,1.11.3461.5271.3605,1.2627.87,1.7391.02.1021.0558.1915.1708.2193l-.001.0042a3.7911,3.7911,0,0,0,.1021.6746,47.4713,47.4713,0,0,1,1.439,5.28,54.8536,54.8536,0,0,1,1.3038,7.01c.0974,1.1761.0353,2.359.198,3.5215a24.1373,24.1373,0,0,1,.0863,4.8027c-.1659,2.764-.2974,5.5345-.7152,8.2819a62.3949,62.3949,0,0,1-1.1453,6.2413,88.2315,88.2315,0,0,1-2.9917,9.1051,55.02,55.02,0,0,1-6.517,12.475c-.6609.8232-1.2765,1.6886-1.9936,2.4594a32.9913,32.9913,0,0,1-3.1323,3.0844,31.2384,31.2384,0,0,1-4.2473,2.964,21.6894,21.6894,0,0,1-5.7646,2.1867c.6141-1.1053,1.178-2.0684,1.6937-3.0563a62.9357,62.9357,0,0,0,4.1861-10.0024,61.335,61.335,0,0,0,2.6332-12.42,51.4211,51.4211,0,0,0-4.1841-26.63,65.2657,65.2657,0,0,0-7.7322-12.6167c-1.3014-1.7264-2.6058-3.4507-3.93-5.16-.3265-.4214-.378-.6852.1576-.9683a5.6108,5.6108,0,0,0,1.1918-.86c.3776-.3527.5758-.3461.9066.0883,1.3495,1.7719,2.7445,3.5092,4.1261,5.2567.1187.15.1953.3491.4256.4057.4378-.1815.4891-.7537.9206-.9494a9.0216,9.0216,0,0,0,1.2395,1.5371c.3927-.86.7441-1.66,1.1213-2.4488A21.1381,21.1381,0,0,1,121.7,46.7241Z"/><path class="cls-2" d="M101.9373,19.8554a12.42,12.42,0,0,1,7.7093,2.0287,13.7266,13.7266,0,0,1,5.5217,8.0781,16.9226,16.9226,0,0,1,.5852,6.5066c-.6294,6.1222-4.1912,10.2608-10.1664,11.9055a12.6715,12.6715,0,0,1-15.5124-9.3753,17.5373,17.5373,0,0,1-.3291-6.1243,23.2281,23.2281,0,0,1,1.2461-5.811,10.3678,10.3678,0,0,1,5.7506-6.3568,12.0662,12.0662,0,0,1,3.7007-.8432C101.0291,19.8154,101.6223,19.8554,101.9373,19.8554Zm6.5657,13.5813a4.8773,4.8773,0,0,0-9.7543-.0072,4.8277,4.8277,0,0,0,4.8817,4.9474A4.92,4.92,0,0,0,108.5031,33.4367Z"/><path class="cls-2" d="M118.311,36.4277a14.9439,14.9439,0,0,1,2.1914-8.5042,14.3052,14.3052,0,0,1,9.123-6.46,11.7014,11.7014,0,0,1,9.2774,1.7445,13.3717,13.3717,0,0,1,6.3194,9.9054,16.0562,16.0562,0,0,1-1.06,8.6606,12.3036,12.3036,0,0,1-8.4757,6.9867,15.7039,15.7039,0,0,1-5.5247.5973,13.4068,13.4068,0,0,1-8.4453-3.4509,11.0446,11.0446,0,0,1-3.1814-6.0605A17.5737,17.5737,0,0,1,118.311,36.4277ZM131.18,39.139a4.9272,4.9272,0,0,0,4.8878-4.8342,4.9034,4.9034,0,0,0-9.8067-.0612A4.79,4.79,0,0,0,131.18,39.139Z"/><path class="cls-5" d="M97.6883,52.21a37.96,37.96,0,0,0-.7394,10.9585c.1168,2.533.2308,5.0718.489,7.6048.3,2.95.696,5.8816,1.27,8.78a59.667,59.667,0,0,0,3.48,11.682,20.6138,20.6138,0,0,0,1.194,2.5132A75.1,75.1,0,0,0,107.5837,68.62a24.9845,24.9845,0,0,1,.9274,6.2836c-.0041,1.2131,0,2.4262-.0009,3.6394a38.4185,38.4185,0,0,1-.9053,7.4517,63.1155,63.1155,0,0,1-3.44,11.2914,26.2265,26.2265,0,0,1-1.52,3.3,84.2513,84.2513,0,0,1-5.7887-14.8717,62.0237,62.0237,0,0,1-2.5819-15.5515c-.3334.0559-.31.3056-.3135.53-.0113.7209-.0124,1.4424-.0234,2.1635a22.8016,22.8016,0,0,0-.1234,2.3324c.1923,2.0182.024,4.0431.2689,6.06.1606,1.3224.267,2.6534.4327,3.9789A57.3586,57.3586,0,0,0,95.999,92.78a61.1073,61.1073,0,0,0,5.2386,13.2614c.5091.95,1.0523,1.8819,1.6047,2.8072.3663.6131.5316.6048.9687.0766a35.6566,35.6566,0,0,0,5.4506-9.809,86.0977,86.0977,0,0,0,4.1157-14.3437c.3667-1.7739.6041-3.5745.9749-5.3426,1.2042,14.2465-3.2637,26.73-11.78,38.1063a43.4147,43.4147,0,0,1-2.6-3.99,78.2853,78.2853,0,0,1-5.0546-10.4914,71.7931,71.7931,0,0,1-3.3509-11.5186c-.4176-2.0083-.71-4.035-.9325-6.0665a55.2189,55.2189,0,0,1-.1893-9.3155A55.8081,55.8081,0,0,1,91.972,66.142,58.93,58.93,0,0,1,97.2976,52.5.4631.4631,0,0,1,97.6883,52.21Z"/><path class="cls-5" d="M132.489,107.19a55.02,55.02,0,0,0,6.517-12.475,88.2315,88.2315,0,0,0,2.9917-9.1051,62.3949,62.3949,0,0,0,1.1453-6.2413c.4178-2.7474.5492-5.5179.7152-8.2819a24.1373,24.1373,0,0,0-.0863-4.8027c-.1628-1.1625-.1006-2.3454-.198-3.5215a54.8536,54.8536,0,0,0-1.3038-7.01,47.4713,47.4713,0,0,0-1.439-5.28,3.7911,3.7911,0,0,1-.1021-.6746c.8638.4844,1.2354,1.3935,1.7879,2.1338a24.9372,24.9372,0,0,1,2.4822,4.5528,60.0857,60.0857,0,0,1,2.9106,7.15,67.146,67.146,0,0,1,1.9394,8.3427,53.3524,53.3524,0,0,1,.7292,11.8864,37.8383,37.8383,0,0,1-2.1765,11.9421,24.2211,24.2211,0,0,1-1.9628,4.0835c-.3878-.144-.4292-.5026-.5639-.7683a6.6244,6.6244,0,0,0-1.538-2.0127c-.1425-.1253-.2689-.3327-.4888-.2708-.2567.0725-.2863.3131-.3193.549a39.4984,39.4984,0,0,1-1.7747,7.2794,13.6788,13.6788,0,0,1-1.5822,3.3535.9826.9826,0,0,1-.5105.4863,7.0628,7.0628,0,0,1-.6147-1.9155c-.1317-.439-.3476-.8424-.4561-1.2855-.0477-.1953-.1391-.3886-.36-.4131-.2376-.0264-.318.1882-.4112.3569-.394.7147-.7779,1.4354-1.18,2.1461a33.2746,33.2746,0,0,1-2.4484,3.888,1.8457,1.8457,0,0,1-.7658.6467A15.4209,15.4209,0,0,0,132.489,107.19Z"/><path class="cls-5" d="M104.7337,49.3a19.4526,19.4526,0,0,0,2.7136-.8726c.5269-.2765.8536-.1121,1.1714.3791,1.6135,2.4945,3.2546,4.9716,4.8931,7.45a52.4516,52.4516,0,0,1,3.6751,6.359,51.7574,51.7574,0,0,1,4.1095,12.6977c.3991,2.112.6245,4.2422.8279,6.3819.1368,1.44.0951,2.8717.1534,4.3063a25.6033,25.6033,0,0,1-.4442,4.4688,50.6484,50.6484,0,0,1-1.542,7.3387c-.9038,3.111-1.87,6.2541-3.9108,8.8059-1.4182,1.7728-1.9006,3.8138-2.5513,5.842-.3861,1.2031-.6937,2.4318-1.0783,3.7966a1.3852,1.3852,0,0,1-.0449-.9283c.3523-1.7881.53-3.6.72-5.41a17.7963,17.7963,0,0,0,.1985-2.6309,1.0223,1.0223,0,0,1,.1687-.5505,44.2918,44.2918,0,0,0,4.4726-12.47,23.8541,23.8541,0,0,0,.6675-5.7142c-.021-.6571.2361-1.2778.1846-1.9438-.1855-2.3992-.3307-4.7955-.7343-7.179a64.254,64.254,0,0,0-2.73-10.468,65.5535,65.5535,0,0,0-6.142-12.7751,67.283,67.283,0,0,0-4.21-6.01C105.106,49.9218,104.9516,49.6381,104.7337,49.3Z"/><path class="cls-5" d="M93.9569,51.74a28.4568,28.4568,0,0,1-1.73,2.9406,56.6109,56.6109,0,0,0-4.2046,8.83,60.17,60.17,0,0,0-2.8761,10.428,69.5724,69.5724,0,0,0-.8815,7.0641,105.4133,105.4133,0,0,0-.12,10.5969,48.1618,48.1618,0,0,0,.4771,5.1428c.2014,1.6137.428,3.2242.69,4.8257.2672,1.6324.69,3.24,1.0623,4.854a1.7725,1.7725,0,0,1,.0413.8117,23.206,23.206,0,0,1-1.493-4.0189,72.3588,72.3588,0,0,1-2.248-9.283c-.3072-1.86-.5971-3.7179-.7615-5.6a56.1071,56.1071,0,0,1-.3467-6.6391A48.0593,48.0593,0,0,1,84.956,64.4479a37.5544,37.5544,0,0,1,6.1175-9.9771c.682-.7977,1.3946-1.5588,2.1323-2.3005.2023-.2034.371-.4748.7177-.4595Z"/><path class="cls-5" d="M87.7391,103.2321a52.2476,52.2476,0,0,0,4.2571,9.2394c.4505-1.4012.8426-2.62,1.2344-3.8382,1.351,2.8155,2.2054,5.802,3.5917,8.7057.47-.6607.3365-1.3809.7571-1.9936.5786,1.64,1.1914,3.19,1.863,4.7176.7643,1.7379,1.6549,3.4124,2.5088,5.1056.2017.4.3889.4539.7034.0553a29.403,29.403,0,0,0,2.7147-4.3012c.37-.6841.7145-1.3822,1.1119-2.154.3959.4407.2674,1.007.5988,1.358,1.1138-.7279,3.6881-7.4183,4.5277-11.3678-.4052,5.7755-1.4473,11.36-4.8872,16.2326-.5454-.2234-.2114-.87-.6832-1.2061a15.3517,15.3517,0,0,0-1.2176,2.03,41.0054,41.0054,0,0,1-2.29,3.6443c-.3433.4437-.5067.3884-.7409-.0587-.91-1.7384-1.723-3.5231-2.5205-5.3146-.5029-1.1295-.9915-2.2654-1.5175-3.4694-.5522.8917-.281,1.9442-.7847,2.858a89.7775,89.7775,0,0,1-3.4158-9.6684,34.9576,34.9576,0,0,0-1.3075,3.4226C90.9739,115.6988,87.6683,105.4907,87.7391,103.2321Z"/><path class="cls-7" d="M116.8227,50.8636c-1.218-1.5475-2.3665-3.0044-3.5117-4.4637-.2819-.3591-.7313-.7039-.7815-1.0963-.0534-.4182.5093-.7026.7888-1.056a13.8444,13.8444,0,0,0,2.4792-4.8452c.0849-.2982.0534-.7192.455-.7892a2.1172,2.1172,0,0,1,1.3491.09c.3253.1689.2527.5739.3012.8809a12.4247,12.4247,0,0,0,1.7015,4.6562,10.4151,10.4151,0,0,0,.739,1.0368.4883.4883,0,0,1,.0366.6922C119.2079,47.5662,118.0486,49.1733,116.8227,50.8636Zm.7777-2.4707a22.2507,22.2507,0,0,1,1.5345-1.8566.8273.8273,0,0,0,.0862-1.2736,6.9032,6.9032,0,0,1-1.0736-2.5881c-.0666-.2465-.0774-.5065-.4173-.6658C117.9247,44.1206,117.3776,46.1732,117.6,48.3929Z"/><path class="cls-5" d="M128.9088,17.2549a32.4682,32.4682,0,0,0,6.2747-2.3724,18.61,18.61,0,0,0,7.518-7.1111,17.7974,17.7974,0,0,1,1.4631-2.4294c.6016-.7311,1.0194-.7341,1.6454-.014a3.8359,3.8359,0,0,1,.84,2.255,11.2132,11.2132,0,0,1-.2825,3.5958,4.41,4.41,0,0,1-.24,1.1461c-.0857.1612-.1291.455.0655.538.7892.3365.5258,1.0006.4139,1.51a3.0575,3.0575,0,0,0,.0306,1.23,17.7465,17.7465,0,0,1,.2791,4.2491c-.1157,1.5273-.244,3.0491-.4316,4.5689a7.9816,7.9816,0,0,1-.4057,1.586c0-1.733-.0036-3.4662.0009-5.1992a32.0666,32.0666,0,0,0-.3952-4.4715.8471.8471,0,0,0-.0913-.3752,1.1649,1.1649,0,0,1-.0168-1.62c.2363-.2874.0732-.4852-.2948-.6347-.3084-.1255-.5682.0036-.94-.0321.7618-2.27,2.09-4.4715.7365-6.9948a22.4727,22.4727,0,0,1-3.9561,5.3777,18.25,18.25,0,0,1-5.7042,3.723A20.2783,20.2783,0,0,1,128.9088,17.2549Z"/><path class="cls-5" d="M100.827,15.5343a12.053,12.053,0,0,1-4.43-2.1957,15.3985,15.3985,0,0,1-5.4394-6.534c-.0731-.1659-.117-.3788-.4088-.4786a2.6384,2.6384,0,0,0-.5495,1.5822,12.5435,12.5435,0,0,0,.712,5.0948c.0992.2712.17.5531.2463.8056a.5378.5378,0,0,1-.3875.1567c-.8053.1234-.9232.314-.5437,1.004a.62.62,0,0,1,.0042.7988,3.0857,3.0857,0,0,0-.4131,1.7815,36.919,36.919,0,0,0,.1716,5.577,3.6915,3.6915,0,0,1-.0349,1.0719,22.9761,22.9761,0,0,1-.69-7.65,4.8124,4.8124,0,0,0-.02-2.011c-.0877-.2561-.1542-.69.0829-.8387.6456-.4052.4252-.8815.3236-1.4467a17.7214,17.7214,0,0,1-.4235-3.48,7.4112,7.4112,0,0,1,.4912-2.2782,2.1137,2.1137,0,0,1,.6415-.8555c.5539-.4995.9211-.4773,1.3869.1272a3.6916,3.6916,0,0,1,.4756.8513A16.5674,16.5674,0,0,0,99.8064,14.83c.3595.1993.8281.2544,1.0281.6949Z"/><path class="cls-5" d="M92.5585,21.0315c.3067-.95,1.2061-1.3556,1.9022-1.8727a9.9325,9.9325,0,0,1,6.4757-2.0291,14.3827,14.3827,0,0,1,5.7836,1.5469.6782.6782,0,0,1,.409.3914l-.0059.0066c-.9083-.2282-1.8088-.4965-2.7262-.6775a13.4347,13.4347,0,0,0-9.3694,1.1057A12.2537,12.2537,0,0,0,93.09,20.8064a.7391.7391,0,0,1-.5146.2417Z"/><path class="cls-5" d="M142.9273,23.7977c-.7183-.4627-1.2125-1.17-1.8985-1.6853a12.7308,12.7308,0,0,0-6.1662-2.5005,17.2005,17.2005,0,0,0-5.3335.2176,1.9523,1.9523,0,0,1-.391.0276,2.3613,2.3613,0,0,1-.3622-.0825,8.7006,8.7006,0,0,1,2.5764-.8141,10.9133,10.9133,0,0,1,8.7643,1.6656,15.1,15.1,0,0,1,2.5311,2.4526.9361.9361,0,0,1,.2895.7092Z"/><path class="cls-5" d="M121.7,46.7241a21.1381,21.1381,0,0,0-1.5935,3.3365c-.3772.7883-.7286,1.5888-1.1213,2.4488a9.0216,9.0216,0,0,1-1.2395-1.5371c.7375-1.34,1.8117-2.4422,2.6268-3.7277.1038-.1634.248-.3033.3385-.4728C121.0208,46.1919,121.3461,46.2253,121.7,46.7241Z"/><path class="cls-5" d="M100.8344,15.5253a.7084.7084,0,0,1,.1817.0017c.0919.0249.2532-.0556.2423.1308a.348.348,0,0,1-.2349.0423c-.0753-.0217-.1319-.1078-.1966-.1659Z"/><path class="cls-5" d="M94.1428,51.3379a.3551.3551,0,0,1-.1859.4018l-.0334-.0289c.0009-.1662.0347-.3135.2157-.3763Z"/><path class="cls-5" d="M128.4155,20.0218l-.1538-.0721c.0234-.02.0521-.0608.07-.0564a.9029.9029,0,0,1,.1548.0679Z"/><path class="cls-5" d="M107.1289,19.0679a1.14,1.14,0,0,1,.2689.0619c.0438.0215.0081.0974-.068.1025a.2013.2013,0,0,1-.2068-.1578Z"/><path class="cls-5" d="M86.5707,107.4918a.932.932,0,0,1,.0538.1584c.0028.016-.0406.04-.063.06a.9164.9164,0,0,1-.0538-.1583C86.505,107.5356,86.5482,107.5118,86.5707,107.4918Z"/><path class="cls-5" d="M140.73,49.7925c-.1151-.0279-.151-.1172-.1708-.2193A.1753.1753,0,0,1,140.73,49.7925Z"/><path class="cls-5" d="M94.1392,51.3345l.0827-.1285c.1076.1244-.02.1074-.0791.1319Z"/><path class="cls-5" d="M92.3791,21.2434l-.0855.13c-.1238-.1187.0117-.1138.0694-.1459Z"/><path class="cls-5" d="M92.363,21.2274a.2409.2409,0,0,1,.1957-.1957l.0164.0164a.2266.2266,0,0,1-.1961.1951Z"/><path class="cls-5" d="M142.9373,23.7879c.0434.027.0872.0538.131.0808-.1225.1262-.1051-.0253-.141-.0711Z"/><polygon class="cls-5" points="107.815 19.334 107.834 19.381 107.784 19.374 107.815 19.334"/><path class="cls-7" d="M192.0472,68.8081l-.12-.0651c.0206-.0211.046-.0623.0613-.0589a.5906.5906,0,0,1,.1262.0576Z"/><path class="cls-7" d="M213.1453,65.7609l-.0336.0634-.0992-.0655c.0223-.0213.0453-.0594.0674-.0589S213.1232,65.7392,213.1453,65.7609Z"/><path class="cls-1" d="M108.5031,33.4367a4.92,4.92,0,0,1-4.8727,4.94,4.8277,4.8277,0,0,1-4.8817-4.9474,4.8773,4.8773,0,0,1,9.7543.0072Zm-4.8776,4.3688a4.3439,4.3439,0,0,0,4.3665-4.3507,4.352,4.352,0,0,0-8.7037.064A4.341,4.341,0,0,0,103.6255,37.8055Z"/><path class="cls-1" d="M131.18,39.139a4.8821,4.8821,0,1,1,.08-9.7627,4.84,4.84,0,0,1,4.8083,4.9284A4.9272,4.9272,0,0,1,131.18,39.139Zm4.3058-4.8749a4.3249,4.3249,0,0,0-4.3673-4.34,4.4,4.4,0,0,0-4.288,4.3535,4.3031,4.3031,0,0,0,4.2971,4.3015A4.2558,4.2558,0,0,0,135.4862,34.2642Z"/><path class="cls-6" d="M117.6,48.3929c-.2227-2.22.3244-4.2722.13-6.3841.34.1593.3508.4193.4173.6658a6.9032,6.9032,0,0,0,1.0736,2.5881.8273.8273,0,0,1-.0862,1.2736A22.2507,22.2507,0,0,0,117.6,48.3929Z"/><path class="cls-7" d="M103.6255,37.8055a4.341,4.341,0,0,1-4.3373-4.2867,4.352,4.352,0,0,1,8.7037-.064A4.3439,4.3439,0,0,1,103.6255,37.8055Zm.1276-5.5847a1.7153,1.7153,0,0,0-1.6975,1.659,1.7415,1.7415,0,0,0,1.763,1.7166,1.7664,1.7664,0,0,0,1.6973-1.6892A1.6854,1.6854,0,0,0,103.7531,32.2208Z"/><path class="cls-7" d="M135.4862,34.2642a4.2558,4.2558,0,0,1-4.3581,4.315,4.3031,4.3031,0,0,1-4.2971-4.3015,4.4,4.4,0,0,1,4.288-4.3535A4.3249,4.3249,0,0,1,135.4862,34.2642Zm-4.2722-1.5864a1.6559,1.6559,0,0,0-1.6613,1.6964,1.6306,1.6306,0,0,0,1.6539,1.6964,1.6966,1.6966,0,1,0,.0074-3.3928Z"/><path class="cls-1" d="M103.7531,32.2208a1.6854,1.6854,0,0,1,1.7628,1.6864,1.7664,1.7664,0,0,1-1.6973,1.6892,1.7415,1.7415,0,0,1-1.763-1.7166A1.7153,1.7153,0,0,1,103.7531,32.2208Z"/><path class="cls-1" d="M131.214,32.6777a1.6966,1.6966,0,1,1-.0074,3.3928,1.6306,1.6306,0,0,1-1.6539-1.6964A1.6559,1.6559,0,0,1,131.214,32.6777Z"/></svg>