<svg id="Layer_1" data-name="Layer 1" xmlns="http://www.w3.org/2000/svg" viewBox="0 0 20 20"><defs><style>.cls-1{fill:#adafaf;}</style></defs><title>ig</title><g id="ipn2ey"><path class="cls-1" d="M16.0708,9.9748c0,.8676.0052,1.7352-.0015,2.6027a3.3134,3.3134,0,0,1-3.18,3.2392c-1.782.0289-3.5652.0318-5.347-.0022a3.3865,3.3865,0,0,1-3.2082-3.2859q-.0126-2.5553,0-5.1108A3.2873,3.2873,0,0,1,7.08,4.2011a29.9407,29.9407,0,0,1,6.1781-.0095A3.2756,3.2756,0,0,1,16.08,7.5147C16.0272,8.3315,16.0711,9.1546,16.0708,9.9748ZM5.26,10H5.2583c-.0007.7884.0526,1.5813-.0121,2.3644A2.495,2.495,0,0,0,7.78,14.96c1.6079.0293,3.217.0269,4.825.0025a2.5185,2.5185,0,0,0,2.606-2.6863c0-1.6084.0047-3.2168-.0015-4.8252a2.4488,2.4488,0,0,0-2.3113-2.4177c-1.781-.0369-3.5638-.0339-5.345-.0024A2.3683,2.3683,0,0,0,5.2613,7.3982C5.2532,8.2654,5.26,9.1327,5.26,10Z"/><path class="cls-1" d="M7.457,9.7239a2.788,2.788,0,0,1,2.7855-2.6983,2.8184,2.8184,0,0,1,2.774,2.7259,2.78,2.78,0,0,1-5.56-.0276Zm2.74,1.85A1.7944,1.7944,0,0,0,12.092,9.7812,1.7752,1.7752,0,0,0,10.24,7.9518,1.7581,1.7581,0,0,0,8.3835,9.7189,1.7585,1.7585,0,0,0,10.1972,11.574Z"/><path class="cls-1" d="M13.8854,6.8209a.56.56,0,0,1-.5942.58.5161.5161,0,0,1-.5462-.5692.5558.5558,0,0,1,.555-.6245A.6267.6267,0,0,1,13.8854,6.8209Z"/></g></svg>