<svg id="Layer_1" data-name="Layer 1" xmlns="http://www.w3.org/2000/svg" viewBox="0 0 110 40"><defs><style>.cls-1{fill:#231f20;}.cls-2{fill:#c3002f;}</style></defs><title>leadetter</title><g id="_Group_" data-name="&lt;Group&gt;"><g id="_Group_2" data-name="&lt;Group&gt;"><g id="_Group_3" data-name="&lt;Group&gt;"><g id="_Group_4" data-name="&lt;Group&gt;"><path id="_Compound_Path_" data-name="&lt;Compound Path&gt;" class="cls-1" d="M49.4718,34.4v-.3019l1.58-.0018v.9552a3.2551,3.2551,0,0,1-.7509.3011,3.13,3.13,0,0,1-.794.1011,2.92,2.92,0,0,1-.999-.1625,1.4193,1.4193,0,0,1-.6783-.47,1.1212,1.1212,0,0,1-.229-.6865,1.2008,1.2008,0,0,1,.2277-.7015,1.3391,1.3391,0,0,1,.6554-.4837,2.8325,2.8325,0,0,1,.985-.158,2.7472,2.7472,0,0,1,.7318.09,1.3024,1.3024,0,0,1,.5128.2519,1.0173,1.0173,0,0,1,.2825.4215l-.4455.0843a.866.866,0,0,0-.2086-.309.908.908,0,0,0-.3564-.18,1.829,1.829,0,0,0-.514-.0677,2.1288,2.1288,0,0,0-.5854.0711,1.2,1.2,0,0,0-.3984.187.9331.9331,0,0,0-.2354.2547.9925.9925,0,0,0-.1424.5179.9407.9407,0,0,0,.1717.5759,1.0063,1.0063,0,0,0,.5.3442,2.139,2.139,0,0,0,.6974.1123,2.319,2.319,0,0,0,.6261-.0851,1.8935,1.8935,0,0,0,.4633-.1818V34.4Z"/><path id="_Compound_Path_2" data-name="&lt;Compound Path&gt;" class="cls-1" d="M51.63,34.1561a1.1721,1.1721,0,0,1,.4988-1.0036,2.1377,2.1377,0,0,1,1.2879-.3625,2.4316,2.4316,0,0,1,.9315.17,1.41,1.41,0,0,1,.6325.475,1.16,1.16,0,0,1,.2176.691,1.1461,1.1461,0,0,1-.2292.7005,1.3977,1.3977,0,0,1-.649.4679,2.5377,2.5377,0,0,1-.9061.159,2.3962,2.3962,0,0,1-.9417-.1757,1.4193,1.4193,0,0,1-.6286-.4794A1.0977,1.0977,0,0,1,51.63,34.1561Zm.509.0053a.8621.8621,0,0,0,.3627.7331,1.6863,1.6863,0,0,0,1.8274-.0026.9032.9032,0,0,0,.36-.7674.9758.9758,0,0,0-.1541-.5487.9985.9985,0,0,0-.45-.3635,1.65,1.65,0,0,0-.6656-.1291,1.6051,1.6051,0,0,0-.9022.2484A.9179.9179,0,0,0,52.139,34.1613Z"/><path id="_Compound_Path_3" data-name="&lt;Compound Path&gt;" class="cls-1" d="M55.8143,35.41V32.8355h.4937v2.27h1.8376V35.41Z"/><path id="_Compound_Path_4" data-name="&lt;Compound Path&gt;" class="cls-1" d="M58.7589,35.41V32.8355h2.5172v.3037H59.2527v.7973h1.7512V34.24H59.2527V35.41Z"/><path id="_Compound_Path_5" data-name="&lt;Compound Path&gt;" class="cls-1" d="M62.6685,35.41l1.4328-2.5742h.5319L66.16,35.41H65.598l-.4353-.78h-1.56l-.41.78Zm1.0765-1.0571H65.01l-.3894-.7129a5.7577,5.7577,0,0,1-.2647-.5337,2.5378,2.5378,0,0,1-.201.4916Z"/><path id="_Compound_Path_6" data-name="&lt;Compound Path&gt;" class="cls-1" d="M69.217,34.5072l.4937.0861a1.1741,1.1741,0,0,1-.5586.64,2.0316,2.0316,0,0,1-.9862.22,2.4151,2.4151,0,0,1-.9812-.17,1.255,1.255,0,0,1-.5752-.4908,1.2953,1.2953,0,0,1-.1972-.69,1.1428,1.1428,0,0,1,.2227-.7015,1.3659,1.3659,0,0,1,.6337-.4547,2.5365,2.5365,0,0,1,.9048-.1554,2.0414,2.0414,0,0,1,.9417.1966,1.0948,1.0948,0,0,1,.5319.5532l-.4862.079a.8376.8376,0,0,0-.3767-.4091,1.34,1.34,0,0,0-.621-.1282,1.62,1.62,0,0,0-.719.1422.8442.8442,0,0,0-.406.3819,1.1134,1.1134,0,0,0-.1171.4942,1.1426,1.1426,0,0,0,.1386.5733.8479.8479,0,0,0,.4315.3661,1.639,1.639,0,0,0,.6337.1212,1.3917,1.3917,0,0,0,.7025-.165A.83.83,0,0,0,69.217,34.5072Z"/><path id="_Compound_Path_7" data-name="&lt;Compound Path&gt;" class="cls-1" d="M69.9094,35.41l1.4328-2.5742h.5319L73.4013,35.41h-.5624l-.4353-.78h-1.56l-.41.78Zm1.0765-1.0571h1.2649l-.3894-.7129a5.7577,5.7577,0,0,1-.2647-.5337,2.5378,2.5378,0,0,1-.201.4916Z"/><path id="_Compound_Path_8" data-name="&lt;Compound Path&gt;" class="cls-1" d="M73.7959,35.41V32.8355h1.2853a4.4948,4.4948,0,0,1,.6643.0369,1.5523,1.5523,0,0,1,.5471.1844,1.1451,1.1451,0,0,1,.4417.44,1.256,1.256,0,0,1,.1464.6119,1.2838,1.2838,0,0,1-.0993.52,1.15,1.15,0,0,1-.2545.3749,1.2434,1.2434,0,0,1-.34.2335,1.7608,1.7608,0,0,1-.4455.1291,3.6385,3.6385,0,0,1-.5993.044Zm.4937-.3037h.7967a2.7608,2.7608,0,0,0,.579-.0474A.9629.9629,0,0,0,76,34.9251a.8123.8123,0,0,0,.2735-.3256,1.14,1.14,0,0,0,.0981-.496.9056.9056,0,0,0-.1923-.6207.9368.9368,0,0,0-.4669-.2907,2.7558,2.7558,0,0,0-.6389-.0527H74.29Z"/><path id="_Compound_Path_9" data-name="&lt;Compound Path&gt;" class="cls-1" d="M77.57,35.41V32.8355h2.698v.3037H78.064v.7884h2.064V34.23H78.064v.8762h2.2905V35.41Z"/><path id="_Compound_Path_10" data-name="&lt;Compound Path&gt;" class="cls-1" d="M81.0215,35.41V32.8355h.7432l.8833,1.8227q.122.2546.1781.3811.0635-.1405.1985-.4127l.8933-1.791h.6643V35.41h-.476V33.2552L83.022,35.41h-.4453l-1.0792-2.1914V35.41Z"/><path id="_Compound_Path_11" data-name="&lt;Compound Path&gt;" class="cls-1" d="M86.43,35.41v-1.09L84.992,32.8355h.6006l.7356.7762q.2035.2176.3792.4355.1682-.202.4073-.4549l.7229-.7568h.5751l-1.4888,1.4838v1.09Z"/></g><g id="_Group_5" data-name="&lt;Group&gt;"><polyline id="_Path_" data-name="&lt;Path&gt;" class="cls-1" points="89.234 32.79 90.293 32.79 90.293 32.887 89.851 32.887 89.851 33.611 89.675 33.611 89.675 32.887 89.234 32.887"/><path id="_Compound_Path_12" data-name="&lt;Compound Path&gt;" class="cls-1" d="M90.5291,33.6115V32.79h.266l.3175.5819c.0293.0542.0508.0947.0641.1218q.0232-.045.0725-.1319l.326-.5718H91.81v.8216h-.1722v-.6889l-.3943.6889H91.087l-.3857-.6961v.6961Z"/></g><g id="_Group_6" data-name="&lt;Group&gt;"><path id="_Compound_Path_13" data-name="&lt;Compound Path&gt;" class="cls-1" d="M47.6011,27.5329H49.674v4.1119H47.6011Z"/><path id="_Compound_Path_14" data-name="&lt;Compound Path&gt;" class="cls-1" d="M51.1717,27.5329h1.9315l2.52,2.2749V27.5329h1.95v4.1119h-1.95l-2.5067-2.2577v2.2577H51.1717Z"/><path id="_Compound_Path_15" data-name="&lt;Compound Path&gt;" class="cls-1" d="M58.9751,27.5329h3.073a5.7829,5.7829,0,0,1,1.468.1516,2.6022,2.6022,0,0,1,.9246.4347,1.6912,1.6912,0,0,1,.53.6592,1.9653,1.9653,0,0,1,.1644.7964,1.8212,1.8212,0,0,1-.2443,1.0224,1.9618,1.9618,0,0,1-.678.6086,2.7866,2.7866,0,0,1-.9315.3268,7.6244,7.6244,0,0,1-1.2328.1123h-3.073Zm2.0684.9312v2.2467H61.55a3.3512,3.3512,0,0,0,.9223-.0884.8137.8137,0,0,0,.4292-.3084,1.2671,1.2671,0,0,0,.1552-.7138,1.0175,1.0175,0,0,0-.347-.8947,2.0785,2.0785,0,0,0-1.1506-.2413Z"/><path id="_Compound_Path_16" data-name="&lt;Compound Path&gt;" class="cls-1" d="M65.9611,29.5916a1.75,1.75,0,0,1,.9133-1.5679,4.86,4.86,0,0,1,2.5433-.5609,4.976,4.976,0,0,1,2.5752.5511,1.72,1.72,0,0,1,.9041,1.5441,1.7544,1.7544,0,0,1-.395,1.1823,2.5547,2.5547,0,0,1-1.1415.718,5.79,5.79,0,0,1-1.8607.2566,6.6706,6.6706,0,0,1-1.8743-.2215,2.7026,2.7026,0,0,1-1.2032-.7013A1.6631,1.6631,0,0,1,65.9611,29.5916Zm2.0684.0057a1.0282,1.0282,0,0,0,.3767.8947,2.0984,2.0984,0,0,0,2.0569.0057,1.11,1.11,0,0,0,.3653-.9565.9647.9647,0,0,0-.3812-.8484,1.77,1.77,0,0,0-1.0343-.2678,1.6866,1.6866,0,0,0-1.0045.272A1.0322,1.0322,0,0,0,68.03,29.5973Z"/><path id="_Compound_Path_17" data-name="&lt;Compound Path&gt;" class="cls-1" d="M73.7508,29.5916a1.75,1.75,0,0,1,.9133-1.5679,4.86,4.86,0,0,1,2.5433-.5609,4.976,4.976,0,0,1,2.5752.5511,1.72,1.72,0,0,1,.9041,1.5441,1.7544,1.7544,0,0,1-.395,1.1823,2.5547,2.5547,0,0,1-1.1415.718,5.79,5.79,0,0,1-1.8607.2566,6.6706,6.6706,0,0,1-1.8743-.2215,2.7026,2.7026,0,0,1-1.2032-.7013A1.6631,1.6631,0,0,1,73.7508,29.5916Zm2.0684.0057a1.0282,1.0282,0,0,0,.3767.8947,2.0984,2.0984,0,0,0,2.0569.0057,1.11,1.11,0,0,0,.3653-.9565.9647.9647,0,0,0-.3812-.8484,1.77,1.77,0,0,0-1.0343-.2678,1.6866,1.6866,0,0,0-1.0045.272A1.0322,1.0322,0,0,0,75.8192,29.5973Z"/><path id="_Compound_Path_18" data-name="&lt;Compound Path&gt;" class="cls-1" d="M81.8283,31.6448V27.5329h3.4472a8.02,8.02,0,0,1,1.4656.1009,1.7174,1.7174,0,0,1,.8174.3746.8545.8545,0,0,1,.31.666.8236.8236,0,0,1-.2375.59,1.7084,1.7084,0,0,1-.6532.4025,3.614,3.614,0,0,1-.7265.1627,2.8134,2.8134,0,0,1,.5383.1516,2.7026,2.7026,0,0,1,.6206.4717l1.002,1.1915H86.0752L84.97,30.3882a1.1791,1.1791,0,0,0-.3744-.3169,1.284,1.284,0,0,0-.507-.0953h-.1825v1.6688Zm2.0775-2.4458h.872a4.9415,4.9415,0,0,0,.5479-.0561.6552.6552,0,0,0,.3358-.1291.3009.3009,0,0,0,.13-.2383.3323.3323,0,0,0-.2055-.3058,1.8825,1.8825,0,0,0-.7714-.1066h-.9087Z"/></g><path id="_Path_2" data-name="&lt;Path&gt;" class="cls-1" d="M41.042,16.9946v.1376c.0078-.0086.0208-.014.028-.0213A.5535.5535,0,0,0,41.042,16.9946Z"/><path id="_Path_3" data-name="&lt;Path&gt;" class="cls-1" d="M41.042,16.3552v-.282a.3361.3361,0,0,0-.0063.282Z"/><g id="_Group_7" data-name="&lt;Group&gt;"><path id="_Path_4" data-name="&lt;Path&gt;" class="cls-2" d="M57.5983,6.3634a6.9469,6.9469,0,0,1-.0693-.7558c.0208-.2461.0479-.4876.0693-.7265a.4359.4359,0,0,0-.1721-.2753,4.5907,4.5907,0,0,0-.5834-.1378c-.0962-.0205-.1852-.0411-.268-.0538-.2814-.0549-.4874-.0971-.7966-.1594-.6931-.0884-1.2628-.1916-2.0874-.2733-.0628-.0064-.1236-.0064-.1845-.0131-.7911-.0559-1.319-.0838-2.1784-.1246-.4937,0-.8716-.02-1.4754,0-.55.0279-1.0718.0482-1.6406.0818-.1112.0076-.2267.014-.35.0213-.9685.1163-1.8749.2476-2.809.3779a.46.46,0,0,0-.0754.281.4116.4116,0,0,0,.1443.24c.3363.0278.638.0216.961.0355l.8584.069c.5978.04.844.0818,1.271.1291.0208,0,.0412.0077.0606.0077.6943.0957,1.1948.1776,1.8543.3088l1.6135.3855,1.7661.4937.8021.2274c.7282.2121,1.3531.4247,2.0533.6572.069.0218.1441.0435.2131.07.3222.0957.6317.1979.9542.2753.11-.015.151-.0287.1715-.1385C57.6673,7.0369,57.6322,6.7,57.5983,6.3634Z"/><g id="_Group_8" data-name="&lt;Group&gt;"><path id="_Path_5" data-name="&lt;Path&gt;" class="cls-1" d="M60.2077,9.6115a2.815,2.815,0,0,1-.5844-.0346,1.1528,1.1528,0,0,1-.2266-.02,3.9271,3.9271,0,0,1-.4944-.0819,5.3555,5.3555,0,0,1-.8241-.2056c-.3282-.1175-.6583-.2338-.995-.3437-.1725-.0623-.3437-.1236-.5084-.186-.5286-.1915-1.0568-.3854-1.579-.5758-.5563-.2131-1.0029-.3724-1.4895-.5509-.11-.0335-.2139-.0679-.3238-.1079-1.25-.42-1.5867-.53-2.4032-.7844-1.0367-.3015-1.4-.3986-2.1973-.5974-.1447-.0269-.261-.0527-.37-.0818-.3848-.0753-.6183-.1226-1.2018-.2258-.53-.1034-.8176-.1316-1.3056-.2006-.5429-.0408-.8447-.0537-1.27-.0752h-.1725c-.3363,0-.5972-.0137-.9189-.0137-.1724-.0141-.2824.0137-.4545,0a5.9641,5.9641,0,0,0-.94.1324,1.9813,1.9813,0,0,0-.57.1418,2.3054,2.3054,0,0,0-.3363.1853c-.0342.0214-.0687.0421-.11.07a2.5327,2.5327,0,0,0-.4254.3293,1.8168,1.8168,0,0,0-.2953.3983,2.8773,2.8773,0,0,0-.1721.4123,2.2283,2.2283,0,0,0-.0274.4119,2.1067,2.1067,0,0,0,.1309.59,2.0292,2.0292,0,0,0,.2191.3356,1.2853,1.2853,0,0,0,.3638.2887c.0759-.014.0552-.0882.0344-.1431a2.5643,2.5643,0,0,1-.1991-.3918.9551.9551,0,0,1,.0417-.5,1.3939,1.3939,0,0,1,.4391-.4941c.0078-.0073.0208-.0226.028-.0279a5.3431,5.3431,0,0,1,.8236-.5156,4.5,4.5,0,0,1,1.1328-.3152c.3918-.0282.7076-.0562,1.1677-.07h.0683c.3092-.0132.5912-.0132.9278,0,.59.0417,1.16.09,1.7848.1721.4258.069.831.138,1.2369.22.4456.0827.8846.1787,1.3656.2744.6927.1785,1.1747.2883,1.9153.53.6535.2066,1.2162.384,1.9647.638l.0489.0131,1.4545.5028c.5284.1922.9751.3289,1.5385.52.0268.0141.048.0218.0754.0358a1.1417,1.1417,0,0,1,.3023.1712,1.9324,1.9324,0,0,1,.1718.5563c.0268.1507.0548.3025.0823.4529a.3517.3517,0,0,0,.123.0626,1.7228,1.7228,0,0,0,.172-.481c.0277-.097.0482-.1851.0687-.282a.4577.4577,0,0,1,.24-.068c.1519.0269.2961.0467.4469.068a6.0728,6.0728,0,0,0,.6869.1108c.22.0269.3021.0464.5281.0613a.0287.0287,0,0,0,.0205.0064,7.4154,7.4154,0,0,0,.893,0,2.32,2.32,0,0,0,.4878-.0894.3319.3319,0,0,0,.0613-.1572.9588.9588,0,0,0-.2811-.0428C60.4892,9.6253,60.3933,9.6253,60.2077,9.6115Z"/><path id="_Path_6" data-name="&lt;Path&gt;" class="cls-1" d="M62.5077,8.025a2.2488,2.2488,0,0,0-.3436-.5272,2.93,2.93,0,0,0-.5493-.406,2.4913,2.4913,0,0,0-.5489-.24,4.2563,4.2563,0,0,0-.4807-.1375,3.6242,3.6242,0,0,0-.6869-.069c-.179-.0131-.3424-.0268-.5018-.0409a6.9446,6.9446,0,0,0-1.1667.0409.5248.5248,0,0,0-.2539.1721,1.4424,1.4424,0,0,0,0,.6532.463.463,0,0,0,.2406.3486,1.6318,1.6318,0,0,0,.5826-.0332,1.7512,1.7512,0,0,1,.4466-.07,1.2823,1.2823,0,0,1,.1507-.0068c.1176.0068.1915.02.3643.0422a3.8846,3.8846,0,0,1,.6183.1022,3.0769,3.0769,0,0,1,.6174.2057,1.0044,1.0044,0,0,1,.5153.412,1.3771,1.3771,0,0,1,.1728.4886.8215.8215,0,0,0,.0678.2389c.0268.0767.0753.0906.172.07a1.5906,1.5906,0,0,0,.3433-.3778c.0752-.1376.1576-.2615.24-.42A.8187.8187,0,0,0,62.5077,8.025Z"/><path id="_Path_7" data-name="&lt;Path&gt;" class="cls-1" d="M58.2774,13.1007c-.0881-.0623-.171.014-.2526.0753-.138.2066-.2693.4187-.4124.6177a6.293,6.293,0,0,1-.9613,1.14l-.0762.0766c-.1857.1573-.3433.2667-.5219.4044-.09.0894-.1585.2543-.1232.3166a.2113.2113,0,0,0,.24.0344c.1373-.0966.2679-.1926.4053-.2947.1854-.1443.3778-.2971.5629-.4542a5.6209,5.6209,0,0,0,.6733-.7709l.35-.6239.1723-.308A.1594.1594,0,0,0,58.2774,13.1007Z"/><path id="_Path_8" data-name="&lt;Path&gt;" class="cls-1" d="M55.881,1.6332a3.0843,3.0843,0,0,1,.653.1022.1078.1078,0,0,0,.0408.014,2.2542,2.2542,0,0,1,.3023.1572.63.63,0,0,1,.2884.2613,1.2217,1.2217,0,0,1,.1585.6393c.0269-.0141.0474.069.067.0549.021.0141.0415-.069.0555-.0614a.86.86,0,0,0,.0559-.3033,1.1632,1.1632,0,0,0-.0415-.5222.9665.9665,0,0,0-.2342-.3561,1.3651,1.3651,0,0,0-.3905-.1929c-.11-.0277-.1852-.0481-.2615-.06a2.0863,2.0863,0,0,0-.5219-.0283c-.2954.04-.59.0818-.8932.1227a.2989.2989,0,0,0,.0694.1724Z"/><path id="_Compound_Path_19" data-name="&lt;Compound Path&gt;" class="cls-1" d="M56.5748,14.3415c.0828-.1023.1376-.1636.1376-.1636a4.5226,4.5226,0,0,0,.5087-.9677c.02-.2345-.1723-.2345-.1723-.2345l-.4741-.0408-.4187-.0408c-.1441-.0127-1.4982-.3992-1.8815-.549a2.5284,2.5284,0,0,0-.7683-.15c-.1516,0-.2964,0-.426.0128a2.1589,2.1589,0,0,0-.893.4465c-.09.0485-.1933-.0613-.275-.1022l-1.7511-1.2312A.4033.4033,0,0,1,50.23,11a4.2131,4.2131,0,0,0,.7563-1.0718,2.0329,2.0329,0,0,0,.3152-1.0771,1.1057,1.1057,0,0,0-.2476-.619c-.1852-.2462-.8447-.3433-1.6208-.4532-.3832-.0549-.8028-.1108-1.2209-.1449a9.13,9.13,0,0,0-.9348-.0467,12.8813,12.8813,0,0,0-1.51.0745,2.16,2.16,0,0,0-.4884.0764c-.3018.0817-.7613.24-.899.549a1.5634,1.5634,0,0,0-.1175.2121,5.4888,5.4888,0,0,0-.384,1.924c0,.13-.048.6375-.027,1.0635a2.5074,2.5074,0,0,0,.2057.8247,2.3176,2.3176,0,0,1,.2054.3915.9149.9149,0,0,1,.07.68c-.1795.4045.3359.0537.274.1022a5.1328,5.1328,0,0,0,.9607-.8641c.1029-.2412-.0345-.4811-.1712-.7634a3.3844,3.3844,0,0,1-.0689-1.2774c.021-.24.0343-.5217.6182-.7555.5765-.24,1.27.3781,1.4083.6189a4.33,4.33,0,0,1,.2058,1.07,9.143,9.143,0,0,1,.0613,1.044c-.007.44-.0486.9483-.0818,1.34a6.3831,6.3831,0,0,1-.494,1.6264c.014.1186.1092.07.205.0355a2.4216,2.4216,0,0,0,.3638-.564,3.5766,3.5766,0,0,0,.3165-.8922,12.1178,12.1178,0,0,0,.0757-2.0318c-.0141-.5628.0613-.5373.2063-.5219a.2854.2854,0,0,0,.13,0c.1022-.02.6173.3774.8916.2743s.5091-.1443.619-.069l1.9228,1.3874c.1093.0753-.0619.1991-.1028.3011,0,0-.0767.2069-.1718.5222a1.2151,1.2151,0,0,0-.0553.7351c.0614.3574.5349.6523,1.4627.79a1.9335,1.9335,0,0,0,.5982-.0141,4.8183,4.8183,0,0,0,1.62-.6446.3575.3575,0,0,1,.24-.0689.93.93,0,0,1,.171.31s.0357.0808.186.0882C55.833,15.1673,56.3282,14.6255,56.5748,14.3415Zm-3.0685.5716h-.015a.4356.4356,0,0,1-.411-.467.4558.4558,0,0,1,.426-.4671h.0055a.4375.4375,0,0,1,.406.4671A.4541.4541,0,0,1,53.5063,14.913Z"/><path id="_Path_9" data-name="&lt;Path&gt;" class="cls-1" d="M45.2246,4.05a2.708,2.708,0,0,0,.5209-.1032.4021.4021,0,0,0,.2-.1367c.0071-.3432.02-.693.0345-1.0363.0134-.2066.0485-.426.0817-.6329a.566.566,0,0,1,.316-.2958,5.3427,5.3427,0,0,1,.9418-.3845c.3015-.0882.5822-.1645.8929-.2326.0747-.014.1575-.0286.2322-.0491.55-.0336.6665-.0262,1.0651-.0336H49.99c.5148.0336.7958.0764,1.304.1454a.1871.1871,0,0,0,.0341-.18A8.7009,8.7009,0,0,0,49.887.8367,13.9581,13.9581,0,0,0,48.3419.8023c-.0412.0063-.0821.0063-.13.0127-.2063.0218-.4129.0358-.6259.0562L47.01.9744c-.1856.0464-.3714.0949-.55.1368-.3018.0966-.5221.1711-.8029.2873a.8912.8912,0,0,0-.3644.2755,2.8357,2.8357,0,0,0-.1028.4734c-.055.5781-.1031,1.1539-.1031,1.7309A.2626.2626,0,0,0,45.2246,4.05Z"/><path id="_Path_10" data-name="&lt;Path&gt;" class="cls-1" d="M44.3383,19.768c-.0275-.0347-.0485-.069-.076-.1022-.2258-.2894-.4046-.5435-.6311-.8311-.2611-.3431-.4811-.6467-.7764-1.0513a12.756,12.756,0,0,1-.7756-1.0712,3.2734,3.2734,0,0,1-.3092-.6035c.0616-.124.11-.2273.1718-.3713.1026-.2273.1784-.364.2538-.564a1.7012,1.7012,0,0,0,.1166-.3424c0-.0625.02-.0893-.0891-.1518-.1167-.0332-.1713.0271-.2266.1025a5.6713,5.6713,0,0,1-.4117.708c-.2133.2682-.4122.4263-.5351.57-.0078,0-.0078.0064-.0078.0131v.282a2.6867,2.6867,0,0,0,.2336.4478c.3228.4446.5149.6918.8243,1.0708.3226.356.5287.57.8581.9193.3917.4251.762.7961,1.1676,1.1805.0476.0419.0888.09.1367.1314.3855.3637.707.6652,1.0988.975a.1845.1845,0,0,0,.2057-.07C45.1285,20.5989,44.7437,20.2,44.3383,19.768Z"/><path id="_Path_11" data-name="&lt;Path&gt;" class="cls-1" d="M44.95,16.39a4.8294,4.8294,0,0,1-.6879-.0678,1.2667,1.2667,0,0,1-.3706-.1392c-.1716-.15-.3434-.3366-.3434-.4119a.3872.3872,0,0,0,.0618-.351.3349.3349,0,0,0-.24-.1358.4267.4267,0,0,0-.2744.1035.5746.5746,0,0,0-.1378.2058.8864.8864,0,0,0,.1029.4454,1.4054,1.4054,0,0,0,.5148.4888,2.2276,2.2276,0,0,0,.5635.198.6964.6964,0,0,0,.123.0073,3.65,3.65,0,0,0,.8246-.0687,1.2053,1.2053,0,0,0,.3087-.1021.9137.9137,0,0,0,.2411-.24c-.1312,0-.2065.0332-.31.0332A1.8228,1.8228,0,0,1,44.95,16.39Z"/><path id="_Path_12" data-name="&lt;Path&gt;" class="cls-1" d="M40.6925,16.5275c-.7211.4723-1.4494.9254-2.1773,1.4142-.4946.3713-.9407.6942-1.4146,1.0721a3.0944,3.0944,0,0,0-.4943.514c-.0137.0132-.0208.0205-.0208.0272v.015c.0071.04.1237.0055.1861-.0354.2951-.1852.5489-.3229.92-.5208.6041-.3511,1.1738-.6676,1.7854-1.0386q.7616-.4216,1.5652-.8429v-.1376a1.3476,1.3476,0,0,0-.1166-.22A.94.94,0,0,0,40.6925,16.5275Z"/></g></g><g id="_Group_9" data-name="&lt;Group&gt;"><path id="_Compound_Path_20" data-name="&lt;Compound Path&gt;" class="cls-1" d="M19.95,22.2279H21.944v3.09h3.1166v1.0035H19.95Z"/><path id="_Compound_Path_21" data-name="&lt;Compound Path&gt;" class="cls-1" d="M26.2381,22.2279h5.3485V23.1H28.2323v.66h3.1034v.832H28.2323v.8056H31.679v.9242H26.2381Z"/><path id="_Compound_Path_22" data-name="&lt;Compound Path&gt;" class="cls-1" d="M36.9935,25.6483H34.7395l-.3229.6734H32.3772l2.4171-4.0938h2.1881l2.42,4.0938h-2.087Zm-.422-.8848L35.87,23.29l-.7065,1.4734Z"/><path id="_Compound_Path_23" data-name="&lt;Compound Path&gt;" class="cls-1" d="M40.339,22.2279h2.9648a5.4222,5.4222,0,0,1,1.4161.1508,2.4787,2.4787,0,0,1,.8922.433,1.6746,1.6746,0,0,1,.511.6561,2.0132,2.0132,0,0,1,.1586.7929,1.8591,1.8591,0,0,1-.2356,1.0181,1.9162,1.9162,0,0,1-.6543.6059,2.6353,2.6353,0,0,1-.8986.3254,7.1422,7.1422,0,0,1-1.1894.1115H40.339Zm1.9942.9243v2.2452h.4887a3.1184,3.1184,0,0,0,.8891-.0883.7865.7865,0,0,0,.4138-.3083,1.3016,1.3016,0,0,0,.15-.7132,1.0355,1.0355,0,0,0-.3346-.8942,1.9493,1.9493,0,0,0-1.1091-.241Z"/><path id="_Compound_Path_24" data-name="&lt;Compound Path&gt;" class="cls-1" d="M47.6011,22.2279h3.733a2.8729,2.8729,0,0,1,1.4326.2919.8438.8438,0,0,1,.5.7233.7522.7522,0,0,1-.3566.62,1.8789,1.8789,0,0,1-.6955.2726,2.212,2.212,0,0,1,1.0267.3658.7973.7973,0,0,1,.3292.6515.8294.8294,0,0,1-.2336.5746,1.5853,1.5853,0,0,1-.6387.4036,3.0673,3.0673,0,0,1-.7576.1345q-.6743.0562-.8943.0559H47.6011Zm2.0073,1.5979h.87a1.4775,1.4775,0,0,0,.6508-.1.3164.3164,0,0,0,.1832-.2908.3034.3034,0,0,0-.1832-.2754,1.4513,1.4513,0,0,0-.6376-.0994h-.8828Zm0,1.6112H50.632a1.6427,1.6427,0,0,0,.7313-.1162.35.35,0,0,0,.2127-.3124.33.33,0,0,0-.21-.2928,1.7324,1.7324,0,0,0-.7378-.1106H49.6083Z"/><path id="_Compound_Path_25" data-name="&lt;Compound Path&gt;" class="cls-1" d="M54.8893,22.2279h5.3485V23.1H56.8834v.66h3.1034v.832H56.8834v.8056H60.33v.9242h-5.441Z"/><path id="_Compound_Path_26" data-name="&lt;Compound Path&gt;" class="cls-1" d="M61.2265,22.2279h6.0615v1.0169H65.2544v3.0769H63.26V23.2448H61.2265Z"/><path id="_Compound_Path_27" data-name="&lt;Compound Path&gt;" class="cls-1" d="M68.0126,22.2279h6.0616v1.0169H72.04v3.0769H70.0464V23.2448H68.0126Z"/><path id="_Compound_Path_28" data-name="&lt;Compound Path&gt;" class="cls-1" d="M75.2478,22.2279h5.3485V23.1H77.2419v.66h3.1034v.832H77.2419v.8056h3.4468v.9242h-5.441Z"/><path id="_Compound_Path_29" data-name="&lt;Compound Path&gt;" class="cls-1" d="M82.06,26.3217V22.2279h3.3235a7.508,7.508,0,0,1,1.4131.1,1.6352,1.6352,0,0,1,.7879.3722.8619.8619,0,0,1,.2993.6622.8341.8341,0,0,1-.2289.5869,1.6435,1.6435,0,0,1-.63.4,3.3918,3.3918,0,0,1-.7.1618,2.6335,2.6335,0,0,1,.518.1524,2.64,2.64,0,0,1,.5971.4749l.9726,1.1829H86.1577l-1.0664-1.2528a1.1461,1.1461,0,0,0-.36-.3159,1.1982,1.1982,0,0,0-.4874-.095h-.1758v1.6638Zm2.0073-2.4431h.8367a4.6272,4.6272,0,0,0,.5258-.0548.6221.6221,0,0,0,.3219-.1263.2968.2968,0,0,0,.1249-.2338.3264.3264,0,0,0-.1974-.2994,1.7767,1.7767,0,0,0-.74-.1044h-.8717Z"/></g><g id="_Group_10" data-name="&lt;Group&gt;"><path id="_Compound_Path_30" data-name="&lt;Compound Path&gt;" class="cls-1" d="M48.7481,21.0868V18.79H47.6011v-.3072h2.76V18.79H49.2089v2.2969Z"/><path id="_Compound_Path_31" data-name="&lt;Compound Path&gt;" class="cls-1" d="M50.8476,21.0868V18.4828h.4607V19.552h1.81V18.4828h.4608v2.6041h-.4608V19.8594h-1.81v1.2274Z"/><path id="_Compound_Path_32" data-name="&lt;Compound Path&gt;" class="cls-1" d="M54.3553,21.0868V18.4828h2.5174V18.79H54.8162v.7976h1.926v.3056h-1.926v.8864h2.1374v.3074Z"/></g></g><g id="_Group_11" data-name="&lt;Group&gt;"><path id="_Compound_Path_33" data-name="&lt;Compound Path&gt;" class="cls-1" d="M67.4333,38.2167a.6015.6015,0,0,1-.3229.549,1.9146,1.9146,0,0,1-.9512.1892H64.8774V36.42H66.091a2.3943,2.3943,0,0,1,.4844.045,1.337,1.337,0,0,1,.37.1283.6728.6728,0,0,1,.2359.2033.462.462,0,0,1,.0833.27.4532.4532,0,0,1-.1224.3194.9137.9137,0,0,1-.37.22,1.12,1.12,0,0,1,.29.09.7711.7711,0,0,1,.2056.1405.5546.5546,0,0,1,.1236.178A.51.51,0,0,1,67.4333,38.2167Zm-2.1043-.7345h.7595a1.2923,1.2923,0,0,0,.5513-.089.307.307,0,0,0,.1779-.297.3236.3236,0,0,0-.04-.1639.3083.3083,0,0,0-.1312-.1171.8.8,0,0,0-.2384-.07,2.3625,2.3625,0,0,0-.3621-.0234H65.329Zm0,1.171h.8276q.8074,0,.8074-.4366a.4275.4275,0,0,0-.0416-.1948.32.32,0,0,0-.1426-.1359.87.87,0,0,0-.2687-.08,2.7954,2.7954,0,0,0-.42-.0262h-.762Z"/><path id="_Compound_Path_34" data-name="&lt;Compound Path&gt;" class="cls-1" d="M70.87,38.955h-.5122l-.3961-.77H68.5309l-.3759.77h-.4769L68.9875,36.42h.4895Zm-1.04-1.04-.603-1.1729-.5727,1.1729Z"/><path id="_Compound_Path_35" data-name="&lt;Compound Path&gt;" class="cls-1" d="M73.93,38.955H73.466l-1.7914-1.9992V38.955h-.4289V36.42h.4668l1.7838,2.003V36.42h.434Z"/><path id="_Compound_Path_36" data-name="&lt;Compound Path&gt;" class="cls-1" d="M76.1834,39a2.3164,2.3164,0,0,1-.6749-.0946,1.5843,1.5843,0,0,1-.521-.267,1.1946,1.1946,0,0,1-.3356-.415,1.2134,1.2134,0,0,1,.3368-1.4924,1.57,1.57,0,0,1,.516-.2633,2.2412,2.2412,0,0,1,.6636-.0927,2.6089,2.6089,0,0,1,.5664.0581,1.7794,1.7794,0,0,1,.4579.164,1.0206,1.0206,0,0,1,.3179.2567.6555.6555,0,0,1,.1438.3363h-.4693a.4184.4184,0,0,0-.09-.2211.6232.6232,0,0,0-.2082-.1649,1.1822,1.1822,0,0,0-.3116-.1031,2.0737,2.0737,0,0,0-.4-.0356,1.5969,1.5969,0,0,0-.4781.0674,1.05,1.05,0,0,0-.37.1977.8959.8959,0,0,0-.24.32,1.137,1.137,0,0,0,0,.8666.9045.9045,0,0,0,.241.3232,1.0687,1.0687,0,0,0,.3709.2014,1.5569,1.5569,0,0,0,.4781.0693,2.0652,2.0652,0,0,0,.6472-.09,1.1434,1.1434,0,0,0,.4529-.27v-.3879h-.9008V37.66H77.72v.8759a3.4561,3.4561,0,0,1-.4415.241A2.5845,2.5845,0,0,1,76.1834,39Z"/><path id="_Compound_Path_37" data-name="&lt;Compound Path&gt;" class="cls-1" d="M81.1968,38.955h-.5929L79.3878,37.69l-.5324.3841v.8806h-.4516V36.42h.4516v1.2554l1.67-1.2554h.6081l-1.4306,1.04Z"/><path id="_Compound_Path_38" data-name="&lt;Compound Path&gt;" class="cls-1" d="M83.0665,36.3749a2.1614,2.1614,0,0,1,.6547.0946,1.6037,1.6037,0,0,1,.516.2661,1.229,1.229,0,0,1,.3394.4131,1.2361,1.2361,0,0,1,.0013,1.07,1.24,1.24,0,0,1-.3368.415,1.5915,1.5915,0,0,1-.516.27,2.3059,2.3059,0,0,1-1.3171.0009,1.6037,1.6037,0,0,1-.5172-.2679,1.2211,1.2211,0,0,1-.3381-.415,1.1851,1.1851,0,0,1-.1211-.5368,1.173,1.173,0,0,1,.1224-.5378,1.2222,1.2222,0,0,1,.3406-.4131,1.6025,1.6025,0,0,1,.5185-.2651A2.1841,2.1841,0,0,1,83.0665,36.3749Zm-.0025,2.3365a1.5186,1.5186,0,0,0,.4693-.0693,1.0706,1.0706,0,0,0,.37-.2014.9184.9184,0,0,0,.2422-.3232,1.1172,1.1172,0,0,0,0-.8647.9029.9029,0,0,0-.2422-.32,1.0794,1.0794,0,0,0-.3671-.1986,1.4961,1.4961,0,0,0-.4617-.0684,1.5311,1.5311,0,0,0-.4705.0693,1.092,1.092,0,0,0-.3722.2.9067.9067,0,0,0-.2435.32,1.0158,1.0158,0,0,0-.087.4291,1.0456,1.0456,0,0,0,.0858.4328.9045.9045,0,0,0,.241.3232,1.072,1.072,0,0,0,.3684.2014A1.5065,1.5065,0,0,0,83.0639,38.7114Z"/><path id="_Compound_Path_39" data-name="&lt;Compound Path&gt;" class="cls-1" d="M88.095,38.955h-.5929L86.2859,37.69l-.5324.3841v.8806h-.4516V36.42h.4516v1.2554l1.67-1.2554h.6081l-1.4306,1.04Z"/></g></g></g></svg>