<svg id="Layer_1" data-name="Layer 1" xmlns="http://www.w3.org/2000/svg" viewBox="0 0 20 20"><defs><style>.cls-1{fill:#adafaf;}</style></defs><title>twitter</title><g id="_52yjBx" data-name="52yjBx"><path class="cls-1" d="M16.4656,5.0641a3.1809,3.1809,0,0,1-1.12,1.46,2.5605,2.5605,0,0,0,.7482-.1392c.2319-.0625.4587-.1442.721-.2281a1.7751,1.7751,0,0,1-.2666.3844,5.8281,5.8281,0,0,1-.9475.9256.3064.3064,0,0,0-.126.271,11.6533,11.6533,0,0,1-.0787,1.1772,8.2287,8.2287,0,0,1-.5792,2.13,7.8324,7.8324,0,0,1-1.6974,2.561,7.4377,7.4377,0,0,1-3.1652,1.9223,8.1533,8.1533,0,0,1-2.42.3278A7.8557,7.8557,0,0,1,5.1682,15.53a8.8031,8.8031,0,0,1-1.7517-.7842A.2153.2153,0,0,1,3.3,14.6316a5.76,5.76,0,0,0,4.0194-1.14c-.1587-.03-.2987-.0521-.437-.0822a2.7694,2.7694,0,0,1-2.0677-1.7109c-.0672-.1578-.062-.1565.1011-.1543.2477.0034.4956,0,.7433-.0041a.5916.5916,0,0,0,.2767-.0728,2.3614,2.3614,0,0,1-.469-.1608A2.75,2.75,0,0,1,3.8043,9.1013c-.013-.0871-.0137-.1761-.0235-.2638-.0131-.1175.03-.1279.1252-.0773A2.9007,2.9007,0,0,0,4.883,9.04a.0833.0833,0,0,0,.084-.016c-.0856-.0761-.1711-.15-.2543-.2265a2.8356,2.8356,0,0,1-.6065-3.356c.0464-.092.0746-.0771.1365-.0181.381.3631.7421.7472,1.15,1.0826A7.6139,7.6139,0,0,0,7.6488,7.7735a7.91,7.91,0,0,0,2.12.4539c.1173.0089.1465-.0105.1308-.1391a2.7749,2.7749,0,0,1,.63-2.28,2.7242,2.7242,0,0,1,2.4354-.97,2.675,2.675,0,0,1,1.5867.722.3392.3392,0,0,0,.3378.0921,6.8216,6.8216,0,0,0,1.2776-.4751A1.01,1.01,0,0,1,16.4656,5.0641Z"/></g></svg>