<svg id="Layer_1" data-name="Layer 1" xmlns="http://www.w3.org/2000/svg" xmlns:xlink="http://www.w3.org/1999/xlink" viewBox="0 0 196.5 75"><defs><style>.cls-1{fill:url(#radial-gradient);}</style><radialGradient id="radial-gradient" cx="-12.907" cy="71.7788" r="243.7193" gradientUnits="userSpaceOnUse"><stop offset="0" stop-color="#2581c4"/><stop offset="1" stop-color="#2d2e83"/></radialGradient></defs><title>FORE-logo</title><circle class="cls-1" cx="189.8156" cy="8.4921" r="5.4574"/><path class="cls-1" d="M9.4066,64.24h-.202a.44.44,0,0,0-.4235.2628L6.19,69.1018,3.5732,64.4834a.4478.4478,0,0,0-.4286-.2429h-.17a.372.372,0,0,0-.4053.4048v7.26a.3721.3721,0,0,0,.4053.4048h.191a.372.372,0,0,0,.4049-.4048V67.0337q0-.2849-.0069-.5759c.0753.1388.1508.2744.2291.41L5.7017,70.24a.4157.4157,0,0,0,.4252.266h.1378a.418.418,0,0,0,.4029-.2419l1.8881-3.3525c.0865-.15.17-.2993.2521-.45q-.0081.2866-.0079.5718v4.8718a.371.371,0,0,0,.3943.4048h.2123a.3711.3711,0,0,0,.3943-.4048v-7.26A.3672.3672,0,0,0,9.4066,64.24Z"/><path class="cls-1" d="M18.5437,64.4888a.4276.4276,0,0,0-.4308-.3015h-.2121a.4375.4375,0,0,0-.4284.2952L14.5351,71.81a.351.351,0,0,0,.0184.3444.3643.3643,0,0,0,.3222.1555h.18a.4512.4512,0,0,0,.4927-.2849l.8666-2.1776h3.1625l.8639,2.1371a.4415.4415,0,0,0,.4949.3254h.1908a.369.369,0,0,0,.3323-.1577.3428.3428,0,0,0,.0214-.3358Zm-1.7664,4.41,1.2239-3.06,1.2244,3.06Z"/><path class="cls-1" d="M31.914,64.24h-.2123a.367.367,0,0,0-.4049.3943v4.7874c0,.33.0145.6563.0314.9578-.1439-.2317-.3006-.478-.4691-.7187l-3.6583-5.2278A.4357.4357,0,0,0,26.83,64.24h-.2121a.3722.3722,0,0,0-.4056.4048v7.26a.3723.3723,0,0,0,.4056.4048H26.83a.3712.3712,0,0,0,.3946-.4048V66.96c0-.26-.0093-.5208-.0209-.767.11.1826.2269.37.3522.5488l3.7551,5.3507a.399.399,0,0,0,.38.2181h.2229a.3711.3711,0,0,0,.3943-.4048v-7.26A.3672.3672,0,0,0,31.914,64.24Z"/><path class="cls-1" d="M41.0514,64.4877a.4285.4285,0,0,0-.4311-.3h-.2124a.4382.4382,0,0,0-.4284.2952L37.0424,71.81a.3528.3528,0,0,0,.0181.3444.3653.3653,0,0,0,.3225.1555h.18a.4508.4508,0,0,0,.4924-.2849l.8666-2.1776h3.1627l.864,2.1371a.4407.4407,0,0,0,.4941.3254h.1915a.3692.3692,0,0,0,.3323-.1577.3428.3428,0,0,0,.0213-.3358Zm-1.7666,4.4115,1.2239-3.06,1.2244,3.06Z"/><path class="cls-1" d="M54.1767,67.9758H51.566a.3764.3764,0,0,0-.4053.406v.1909a.376.376,0,0,0,.4053.4047H53.57v.6565c0,1.1654-.7654,1.8344-2.1,1.8344-1.36,0-2.11-.6782-2.11-1.9084v-2.6c0-1.2281.7259-1.8771,2.1-1.8771,1.2077,0,1.7686.3683,2.0712,1.3669a.3963.3963,0,0,0,.1976.2429.4177.4177,0,0,0,.3208.01l.2136-.072a.3826.3826,0,0,0,.2448-.502A2.7632,2.7632,0,0,0,51.46,64.0922c-1.955,0-3.122,1.0758-3.122,2.8778v2.59c0,1.8145,1.1712,2.8987,3.1328,2.8987,1.92,0,3.1117-1.082,3.1117-2.8246V68.3922A.3814.3814,0,0,0,54.1767,67.9758Z"/><path class="cls-1" d="M64.6026,71.32H60.7409V68.7229h3.2567a.3711.3711,0,0,0,.3943-.4049v-.1908a.366.366,0,0,0-.3943-.3944H60.7409V65.2306h3.713a.3671.3671,0,0,0,.4048-.3944v-.1909a.3719.3719,0,0,0-.4048-.4048h-4.33a.372.372,0,0,0-.4053.4048v7.26a.3721.3721,0,0,0,.4053.4048h4.4789a.3757.3757,0,0,0,.4048-.4048v-.1912A.3744.3744,0,0,0,64.6026,71.32Z"/><path class="cls-1" d="M76.8531,64.24h-.2018a.44.44,0,0,0-.4238.2628l-2.5908,4.5985L71.02,64.4834a.4483.4483,0,0,0-.4289-.2429h-.1694a.3721.3721,0,0,0-.4056.4048v7.26a.3722.3722,0,0,0,.4056.4048h.1908a.372.372,0,0,0,.4048-.4048V67.0337q0-.2849-.0068-.5759c.0753.1388.1508.2744.229.41L73.1485,70.24a.415.415,0,0,0,.425.266h.1378a.4182.4182,0,0,0,.4029-.2419l1.888-3.3525c.0865-.15.17-.2993.2521-.45q-.0081.2866-.0081.5718v4.8718a.3713.3713,0,0,0,.3945.4048h.2124a.3713.3713,0,0,0,.3945-.4048v-7.26A.3674.3674,0,0,0,76.8531,64.24Z"/><path class="cls-1" d="M87.5874,71.32H83.7256V68.7229h3.2566a.3711.3711,0,0,0,.3943-.4049v-.1908a.3661.3661,0,0,0-.3943-.3944H83.7256V65.2306h3.7137a.3712.3712,0,0,0,.4049-.3944v-.1909a.3719.3719,0,0,0-.4049-.4048h-4.33a.3723.3723,0,0,0-.4061.4048v7.26a.3725.3725,0,0,0,.4061.4048h4.4783a.376.376,0,0,0,.4048-.4048v-.1912A.3743.3743,0,0,0,87.5874,71.32Z"/><path class="cls-1" d="M98.7021,64.24h-.2109a.3716.3716,0,0,0-.4068.3943v4.7874c0,.33.0145.6552.0311.9568-.1439-.2317-.3-.4771-.4674-.7178l-3.6593-5.2278a.4348.4348,0,0,0-.37-.1929h-.2129a.3719.3719,0,0,0-.4048.4048v7.26a.372.372,0,0,0,.4048.4048h.2129a.3711.3711,0,0,0,.3943-.4048V66.96c0-.26-.0093-.5208-.0208-.7681.11.1827.2275.3715.3526.55l3.7564,5.3528a.3977.3977,0,0,0,.3776.2161h.2234a.371.371,0,0,0,.3943-.4048v-7.26A.367.367,0,0,0,98.7021,64.24Z"/><path class="cls-1" d="M109.32,64.24h-5.0958a.3719.3719,0,0,0-.4051.4048v.1909a.3712.3712,0,0,0,.4051.3944h2.0366v6.6749a.372.372,0,0,0,.4049.4048h.2231a.3711.3711,0,0,0,.3945-.4048V65.2306H109.32a.3671.3671,0,0,0,.4049-.3944v-.1909A.3719.3719,0,0,0,109.32,64.24Z"/><path class="cls-1" d="M126.6452,67.9758h-2.6107a.3763.3763,0,0,0-.4048.406v.1909a.3759.3759,0,0,0,.4048.4047h2.0035v.6565c0,1.1654-.7649,1.8344-2.1,1.8344-1.36,0-2.11-.6782-2.11-1.9084v-2.6c0-1.2281.7261-1.8771,2.0994-1.8771,1.2072,0,1.7676.3683,2.0712,1.3647a.3916.3916,0,0,0,.1981.2451.397.397,0,0,0,.3193.01l.2141-.072a.3821.3821,0,0,0,.2452-.502,2.7621,2.7621,0,0,0-3.0479-2.0367c-1.9554,0-3.122,1.0758-3.122,2.8778v2.59c0,1.8145,1.171,2.8987,3.1323,2.8987,1.9192,0,3.1117-1.082,3.1117-2.8246V68.3922A.3812.3812,0,0,0,126.6452,67.9758Z"/><path class="cls-1" d="M137.0326,69.4294l-.0032-.0054a2.5511,2.5511,0,0,0-.4277-.6082,2.1247,2.1247,0,0,0,1.4588-2.1862,2.2326,2.2326,0,0,0-2.423-2.3893h-3.0468a.3719.3719,0,0,0-.4048.4048v7.26a.372.372,0,0,0,.4048.4048h.2234a.3712.3712,0,0,0,.3943-.4048v-2.907h1.4836A1.32,1.32,0,0,1,136.1,69.86l1.0977,2.1725a.4805.4805,0,0,0,.51.2776h.2a.352.352,0,0,0,.3331-.1836.3337.3337,0,0,0-.0189-.3412Zm-1.4471-1.4213h-2.377V65.2306h2.377a1.3894,1.3894,0,1,1,0,2.7776Z"/><path class="cls-1" d="M146.1388,64.0922c-1.9628,0-3.1345,1.08-3.1345,2.8881v2.59c0,1.8083,1.1717,2.8884,3.1345,2.8884,1.9481,0,3.1115-1.08,3.1115-2.8884V66.98C149.25,65.1722,148.0869,64.0922,146.1388,64.0922Zm2.0888,5.4779c0,1.224-.742,1.8982-2.0888,1.8982-1.3817,0-2.1122-.6562-2.1122-1.8982V66.98c0-1.2415.7305-1.8977,2.1122-1.8977,1.3468,0,2.0888.6738,2.0888,1.8977Z"/><path class="cls-1" d="M160.1521,64.24h-.2339a.367.367,0,0,0-.3943.4048v4.8508a2.0429,2.0429,0,0,1-4.084,0V64.6453a.367.367,0,0,0-.3943-.4048h-.2231a.3719.3719,0,0,0-.4051.4048v4.8508a3.066,3.066,0,0,0,6.1292,0V64.6453A.371.371,0,0,0,160.1521,64.24Z"/><path class="cls-1" d="M169.1965,64.24h-2.8549a.3719.3719,0,0,0-.4048.4048v7.26a.372.372,0,0,0,.4048.4048h.2234a.3711.3711,0,0,0,.3943-.4048V69.3813h2.2372a2.5708,2.5708,0,1,0,0-5.1409Zm-.0417,4.15h-2.1955v-3.16h2.1955a1.58,1.58,0,1,1,0,3.16Z"/><path class="cls-1" d="M9.9029,45.144l-6.041,1.0938a1.6114,1.6114,0,0,0-1.2925,1.5469v8.88a1.3767,1.3767,0,0,0,1.375,1.375h6.01a1.3767,1.3767,0,0,0,1.375-1.375v-10.33a1.1811,1.1811,0,0,0-1.4263-1.19Z"/><path class="cls-1" d="M32.9342,2.66H3.9444a1.3767,1.3767,0,0,0-1.375,1.375v32.4a1.2156,1.2156,0,0,0,.4238.9414,1.19,1.19,0,0,0,.7666.2715,1.3732,1.3732,0,0,0,.2349-.0215l23.2217-4.1758a1.61,1.61,0,0,0,1.293-1.5459v-3.06a1.3767,1.3767,0,0,0-1.375-1.375h-15.18a.6256.6256,0,0,1-.625-.625V12.0444a.6256.6256,0,0,1,.625-.625h20.98a1.3767,1.3767,0,0,0,1.375-1.375v-6.01A1.3767,1.3767,0,0,0,32.9342,2.66Z"/><path class="cls-1" d="M170.4342,2.66h-28.99a1.377,1.377,0,0,0-1.375,1.375v7.67a1.2194,1.2194,0,0,0,.4229.9414,1.19,1.19,0,0,0,.77.2715,1.3545,1.3545,0,0,0,.2334-.0205l29.0215-5.2256a1.6109,1.6109,0,0,0,1.293-1.5469v-2.09A1.377,1.377,0,0,0,170.4342,2.66Z"/><path class="cls-1" d="M170.4342,49.28H149.4547a.6256.6256,0,0,1-.625-.625v-11.8a.6256.6256,0,0,1,.625-.625h15.18a1.377,1.377,0,0,0,1.375-1.375v-6.01a1.377,1.377,0,0,0-1.375-1.375h-15.18a.6256.6256,0,0,1-.625-.625v-5.24a1.183,1.183,0,0,0-1.4258-1.1924l-6.042,1.0859a1.61,1.61,0,0,0-1.293,1.5459v33.62a1.377,1.377,0,0,0,1.375,1.375h28.99a1.377,1.377,0,0,0,1.375-1.375v-6.01A1.377,1.377,0,0,0,170.4342,49.28Z"/><path class="cls-1" d="M76.9312,41.7485v-22.79a16.934,16.934,0,0,0-16.915-16.915h-2.94a16.934,16.934,0,0,0-16.915,16.915v10.61a1.3062,1.3062,0,0,0,1.3052,1.3047.6164.6164,0,0,0,.17-.02l6.2588-1.1182a1.2948,1.2948,0,0,0,1.0264-1.2773v-9.5a8.1639,8.1639,0,0,1,8.1548-8.1543h2.94a8.159,8.159,0,0,1,8.145,8.1543v22.79a8.1592,8.1592,0,0,1-8.145,8.1553h-2.94a8.1641,8.1641,0,0,1-8.1548-8.1553V39.6792A1.2976,1.2976,0,0,0,47.37,38.41l-6.0435,1.084-.24.0469a1.3005,1.3005,0,0,0-.9248,1.248v.96a16.934,16.934,0,0,0,16.915,16.915h2.94A16.934,16.934,0,0,0,76.9312,41.7485Z"/><path class="cls-1" d="M112.7916,38.8071v-.001a.6071.6071,0,0,1-.0566-.0615c.0313-.0029.07-.0049.1191-.0049a15.1866,15.1866,0,0,0,2.0479-.1689c.1758-.0293,4.33-.7373,6.6406-2.3877a14.9477,14.9477,0,0,0,1.21-.9668l.1006-.083c.3564-.3232.71-.6758,1.1-1.0937.0322-.03.0635-.0615.0938-.0947l.1055-.13c.3047-.3477.5947-.709.874-1.084.0771-.1055.1523-.2129.2617-.37q.3574-.5068.6816-1.042l.1816-.3018a19.4225,19.4225,0,0,0,1.4326-3.0684l.0332-.0986c.1826-.5059.3486-1.0371.501-1.6006l.0342-.125c.1582-.6006.2021-.8252.2021-.8252.1172-.58.1748-.8672.1865-1.03l.0127.002c.0049-.0615.0566-.4727.1211-.9678a23.4989,23.4989,0,0,0,.1787-2.6,27.6635,27.6635,0,0,0-.6025-4.8066c-.0947-.4414-.1738-.8164-.1924-.9238a2.4726,2.4726,0,0,0-.12-.45l-.0684-.2168a19.1314,19.1314,0,0,0-2.7-5.415,17.0507,17.0507,0,0,0-1.9287-2.2383q-.4541-.4395-.9355-.8359l-.1768-.1436c-.3164-.2529-.6387-.4932-.9707-.7168l-.1055-.0742c-.3779-.25-.7646-.48-1.1475-.6846l-.1367-.0674c-.33-.1719-.667-.3271-1.0078-.47l-.34-.1348q-.4438-.1714-.8994-.3086l-.3418-.1025a11.5875,11.5875,0,0,0-1.1787-.2646l-.7656-.1035c-.3984-.05-1.8242-.0879-2.3867-.0879h-3.78c-.4834,0-.7969,0-1,.0166L87.5645,2.66a1.3767,1.3767,0,0,0-1.375,1.375v17.36a1.1831,1.1831,0,0,0,1.4253,1.1924L93.6568,21.5a1.6091,1.6091,0,0,0,1.293-1.5459v-7.91a.6256.6256,0,0,1,.625-.625h17.2793c.542,0,1.2344.0176,1.4893.03l.2764.0537c.0586.0117.1162.0254.209.0488a4.3713,4.3713,0,0,1,.5986.1953l.1543.0586a5.0872,5.0872,0,0,1,.7012.39l.1631.1162a6.5814,6.5814,0,0,1,.5928.4785l.1025.0918a7.9886,7.9886,0,0,1,1.2324,1.5244l.0518.084A8.7725,8.7725,0,0,1,119.02,15.64c.1816.4463.2939.7207.377.89l-.0088.002c.0137.0459.1221.457.251.9541a15.2522,15.2522,0,0,1,.4541,3.2178,12.3042,12.3042,0,0,1-1.09,5.1055c-.0615.1367-.13.2676-.23.4629-.1113.2119-.2246.4189-.3467.6162-.0654.1064-.1309.2109-.2012.3145a9.0792,9.0792,0,0,1-.5684.7539l-.0684.083a5.2227,5.2227,0,0,1-.8193.7861c-.3623.2568-.5811.4131-.7158.5176l-.7617.333a11.3548,11.3548,0,0,1-2.4375.3037H95.5748c-.28.004-.5205.01-.7094.0148a9.84,9.84,0,0,0-.9979.0576c-.1448.0177-.2637.0369-.3435.0507L87.4825,31.189a1.6086,1.6086,0,0,0-1.293,1.5459v23.93a1.3767,1.3767,0,0,0,1.375,1.375h6.01a1.377,1.377,0,0,0,1.375-1.375v-17.3a.6256.6256,0,0,1,.625-.625h3.9043a2.4175,2.4175,0,0,1,1.4414.5977l17.8857,17.8857a3.16,3.16,0,0,0,1.9727.8164h9.33c.5771,0,.7773-.2754.8447-.4395a.8073.8073,0,0,0-.2861-.9072Zm10.9764-5.1134h0Zm-1.1672,1.1609,0,0,0,0Zm-1.7556-29.66,0,.0007,0,0Z"/></svg>