<svg id="Layer_1" data-name="Layer 1" xmlns="http://www.w3.org/2000/svg" xmlns:xlink="http://www.w3.org/1999/xlink" viewBox="0 0 420 420"><defs><style>.cls-1{fill:#d9f7ff;}.cls-2{fill:url(#radial-gradient);}.cls-3{fill:#88d0e9;}.cls-4{fill:#f9e0a8;}.cls-5{fill:#d9c392;}.cls-6{fill:#ffe9ba;}.cls-7{fill:#434a54;}.cls-8{fill:#656d78;}</style><radialGradient id="radial-gradient" cx="89.4914" cy="504.0639" r="540.6332" gradientUnits="userSpaceOnUse"><stop offset="0" stop-color="#2580c3"/><stop offset="1" stop-color="#2d2e82"/></radialGradient></defs><title>temp-prof-pic</title><rect class="cls-1" x="1" y="1" width="419" height="419" rx="9.6767" ry="9.6767"/><path id="_5" data-name="5" class="cls-2" d="M346.0967,339.3372c-8.577-7.4139-22.5891-16.9876-35.7728-18.275C301.8574,320.2352,210,305.8973,210,305.8973s-91.8574,14.3379-100.3239,15.1649C96.4923,322.35,82.48,331.9233,73.9033,339.3372c-15.6513,13.529-24.2419,30.1429-28.924,45.1574C34.0644,410.4082,37.1013,423.1488,42,430c11.6247,16.2579,37.8543,5.1143,98.5042,12.3525,38.3549,4.5774,40.44,10.5349,69.4958,10.5254,30.0961-.01,32.5034-6.4032,69.4963-10.5255C340.0806,435.6011,366.94,449.0366,379,433c5.1459-6.8427,8.3759-20.0865-3.9793-48.5054C371.687,373.5876,363.8675,354.698,346.0967,339.3372Z"/><path id="_4" data-name="4" class="cls-3" d="M73.9033,368.5c8.577-7.4139,22.589-16.9876,35.7728-18.275C118.1426,349.3985,210,335.0605,210,335.0605s91.8574,14.338,100.3239,15.1649c13.1838,1.2874,27.1958,10.8611,35.7728,18.275a92.5135,92.5135,0,0,1,19.9972,24.4561A183.39,183.39,0,0,1,374,411c1.6339,4.37,3.0352,8.6632,7,13,1.6269,1.78,5.3258,5.85,7,5,4.0553-2.0587-6.8245-31.4278-10-40-2.73-7.37-4.0954-11.0553-6-15-2.6676-5.525-10.6817-21.7438-25.9033-34.6628-10.4272-8.85-20.7191-16.8046-35.7728-18.275C301.8574,320.2352,210,305.8973,210,305.8973s-91.8574,14.3379-100.3239,15.1649c-14.2563,1.3925-24.7778,9.1259-35.7728,18.275C56.6224,353.7168,48.668,371.5037,45,382c-1.1936,3.0676-3.1258,8.3141-5,15-3.1526,11.2461-6.8216,28.9915-4,30,.4858.1736,1.0723-.1815,2-1,5.8069-5.123,6.8067-12.3632,9-19a58.143,58.143,0,0,1,6.906-14.0435A91.5853,91.5853,0,0,1,73.9033,368.5Z"/><path id="_6" data-name="6" class="cls-4" d="M210,217.2388l-49.2859-6.4159,19.0233,103.5113s4.2754,35.889,30.2626,35.889,30.2638-35.889,30.2638-35.889l19.0221-103.5113Z"/><path id="_5-2" data-name="5" class="cls-5" d="M249.662,228.3208l-81.1035,25.1875,8.2659,44.9774c12.4366,15.3336,31.4018,29.38,59.443,30.6374a64.4618,64.4618,0,0,0,3.9963-14.7889l14.1464-76.98C251.6282,231.7589,249.662,228.3208,249.662,228.3208Z"/><path id="ear" class="cls-4" d="M136.5086,174.66s-24.8571-15.7482-22.286,16.9147,22.286,30.33,22.286,30.33Z"/><path id="ear-2" data-name="ear" class="cls-4" d="M283.4914,174.66s24.8583-15.7482,22.286,16.9147-22.286,30.33-22.286,30.33Z"/><path id="face" class="cls-6" d="M210,90.3923c-73.4914,0-73.4914,40.5233-73.4914,40.5233V224.238c0,23.9139,22.4409,42.33,41.0917,58.3265C193.2414,295.98,210,295.3963,210,295.3963s16.7586.5833,32.4-12.8318c18.6508-15.9965,41.0917-34.4126,41.0917-58.3265V130.9156S283.4914,90.3923,210,90.3923Z"/><path id="_3" data-name="3" class="cls-7" d="M289.4163,107.733c-.2916-20.4143-22.4375-15.5044-22.4375-15.5044s-32.08-63.4414-96.1584-34.8045C130.9055,75.2616,130.6965,91.6,136.929,101.7158c-.106.3942-.42.7929-.42,1.203V184.576l7.2748-9.3322s10.869-12.8318,4.0623-62.9926c0,0,36.39,5.8327,63.8032,5.8327s61.4371-5.9238,61.4371-5.9238c-8.0335,49.377,3.6648,63.0381,3.6648,63.0381l6.7406,9.3779V134.5086C286.991,130.0725,289.61,121.2506,289.4163,107.733Z"/><path id="_2" data-name="2" class="cls-8" d="M254.2689,114.9236c-2.1781-14.2809-11.6049-53.5738-49.3554-52.6373,0,0,37.5227,13.8046,36.1624,44.3281,0,0-35.546-39.4707-65.9089-36.5521,0,0,37.9122,9.72,42.19,39.0788,0,0-30.913-38.3-76.214-25.274,0,0,50.55,5.0556,56.8683,29.7465,0,0-34.3466-24.78-62.0175-14.21q.3879.83.8373,1.6154c9.044.36,29.9014,2.6178,43.427,15.2925,10.2038.9911,21.4259,1.7725,31.46,1.7725C226.0375,118.0837,242.1422,116.4683,254.2689,114.9236Z"/><path id="_1" data-name="1" class="cls-8" d="M268.8779,103.3085s15.5727-6.3362,19.5485,18.6076C288.4264,121.916,286.5706,88.7268,268.8779,103.3085Z"/><path id="_1-2" data-name="1" class="cls-3" d="M253.7824,311.9829l-10.501-11.549L213.08,328.87,210,346.1669,206.92,328.87l-30.2011-28.4359-10.501,11.549c-1.3637,1.501-.0012,3.9647-.0012,3.9647s15.6992,43.0883,16.2824,48.03,3.3526,2.78,3.3526,2.78,10.8087-16.1147,13.4105-17.2971c2.0414-.9266,1.84,1.7085,1.84,1.7085l-.049,53.74h17.8943l-.0478-53.74s-.2039-2.6037,1.8375-1.6771c2.6019,1.18,13.4128,17.2814,13.4128,17.2814s2.7671,2.1537,3.35-2.7883,16.2836-48.0328,16.2836-48.0328S255.1461,313.4839,253.7824,311.9829Z"/></svg>